{
.appVersion = "3133";
DisplayStrings = (
"/dcaron",
"/rightanglebracket-math",
"ß",
"/uni1E9E"
);
classes = (
{
code = "zero.hex one.hex two.hex three.hex four.hex five.hex six.hex seven.hex eight.hex nine.hex a.hex b.hex c.hex d.hex e.hex f.hex A.hex B.hex C.hex D.hex E.hex F.hex ";
name = hex_digit_decorated;
},
{
code = "zero one two three four five six seven eight nine a b c d e f A B C D E F";
name = hex_digit;
}
);
customParameters = (
{
name = isFixedPitch;
value = 1;
},
{
name = Axes;
value = (
{
Name = Weight;
Tag = wght;
},
{
Name = Width;
Tag = wdth;
},
{
Name = Custom;
Tag = CUS1;
}
);
}
);
date = "2016-05-30 09:02:42 +0000";
designer = "Matthias Tellen";
disablesAutomaticAlignment = 1;
disablesNiceNames = 1;
familyName = mononoki;
featurePrefixes = (
{
code = "languagesystem DFLT dflt;\012languagesystem latn dflt;\012languagesystem latn CAT;\012";
disabled = 1;
name = Languagesystems;
}
);
features = (
{
code = "";
name = aalt;
},
{
automatic = 1;
code = "lookup locl_latn_0 {\012	script latn;\012	language CAT;\012	sub  l' periodcentered' l by ldot;\012	sub  L' periodcentered' L by Ldot;\012} locl_latn_0;\012";
name = locl;
},
{
automatic = 1;
code = "sub zero by zeroinferior;\012sub one by oneinferior;\012sub two by twoinferior;\012sub three by threeinferior;\012sub four by fourinferior;\012sub five by fiveinferior;\012sub six by sixinferior;\012sub seven by seveninferior;\012sub eight by eightinferior;\012sub nine by nineinferior;\012sub parenleft by parenleftinferior;\012sub parenright by parenrightinferior;\012sub equal by equalinferior;\012sub minus by minusinferior;\012sub plus by plusinferior;\012";
name = subs;
},
{
automatic = 1;

glyphs = (
{
glyphname = A;
lastChange = "2019-03-25 21:22:10 +0000";
layers = (
{
anchors = (
{
name = ogonek;
position = "{517, 10}";
},
{
name = top;
position = "{288, 700}";
}
);
hints = (
{
horizontal = 1;
origin = "{0, 3}";
target = "{1, 3}";
type = Align;
},
{
horizontal = 1;
origin = "{0, 20}";
type = Anchor;
},
{
horizontal = 1;
origin = "{0, 11}";
type = Anchor;
},
{
horizontal = 1;
origin = "{0, 6}";
target = "{1, 0}";
type = Diagonal;
},
{
horizontal = 1;
origin = "{0, 0}";
target = "{1, 6}";
type = Diagonal;
},
{
horizontal = 1;
origin = "{0, 15}";
target = "{1, 8}";
type = Align;
},
{
horizontal = 1;
origin = "{0, 10}";
target = up;
type = BottomGhost;
},
{
horizontal = 1;
origin = "{0, 15}";
target = "{1, 8}";
type = Stem;
},
{
horizontal = 1;
origin = "{0, 3}";
target = "{1, 3}";
type = Stem;
}
);
layerId = "A14B1AE3-86D5-4EA7-AE2F-7B4FA04DAB2E";
paths = (
{
closed = 1;
nodes = (
"410 621 LINE SMOOTH",
"396 679 OFFCURVE",
"347 710 OFFCURVE",
"288 710 CURVE SMOOTH",
"229 710 OFFCURVE",
"180 679 OFFCURVE",
"165 621 CURVE SMOOTH",
"17 28 LINE SMOOTH",
"13 11 OFFCURVE",
"21 0 OFFCURVE",
"39 0 CURVE SMOOTH",
"74 0 LINE SMOOTH",
"89 0 OFFCURVE",
"98 7 OFFCURVE",
"102 22 CURVE SMOOTH",
"152 220 LINE",
"424 220 LINE",
"473 22 LINE SMOOTH",
"477 7 OFFCURVE",
"486 0 OFFCURVE",
"501 0 CURVE SMOOTH",
"537 0 LINE SMOOTH",
"554 0 OFFCURVE",
"562 11 OFFCURVE",
"558 28 CURVE SMOOTH"
);
},
{
closed = 1;
nodes = (
"249 607 LINE SMOOTH",
"253 625 OFFCURVE",
"271 634 OFFCURVE",
"288 634 CURVE SMOOTH",
"305 634 OFFCURVE",
"323 625 OFFCURVE",
"327 607 CURVE SMOOTH",
"405 296 LINE",
"171 296 LINE"
);
}
);
width = 575;
},
{
anchors = (
{
name = ogonek;
position = "{517, 10}";
},
{
name = top;
position = "{288, 700}";
}
);
hints = (
{
horizontal = 1;
origin = "{0, 4}";
target = "{1, 8}";
type = TTStem;
},
{
horizontal = 1;
origin = "{0, 17}";
target = "{1, 0}";
type = TTStem;
},
{
horizontal = 1;
origin = "{0, 24}";
target = up;
type = BottomGhost;
},
{
horizontal = 1;
origin = "{0, 4}";
target = "{1, 8}";
type = Stem;
},
{
horizontal = 1;
origin = "{0, 17}";
target = "{1, 0}";
type = Stem;
}
);
layerId = "FB732A47-0020-4E5B-B7FA-72B1D79E8828";
paths = (
{
closed = 1;
nodes = (
"74 0 LINE SMOOTH",
"94 0 OFFCURVE",
"108 11 OFFCURVE",
"112 30 CURVE",
"160 220 LINE",
"416 220 LINE",
"463 30 LINE SMOOTH",
"468 10 OFFCURVE",
"482 0 OFFCURVE",
"501 0 CURVE SMOOTH",
"537 0 LINE SMOOTH",
"561 0 OFFCURVE",
"574 18 OFFCURVE",
"568 41 CURVE SMOOTH",
"420 633 LINE SMOOTH",
"405 693 OFFCURVE",
"355 730 OFFCURVE",
"288 730 CURVE SMOOTH",
"222 730 OFFCURVE",
"171 693 OFFCURVE",
"155 634 CURVE SMOOTH",
"7 40 LINE SMOOTH",
"2 17 OFFCURVE",
"15 0 OFFCURVE",
"39 0 CURVE SMOOTH"
);
},
{
closed = 1;
nodes = (
"259 615 LINE",
"261 626 OFFCURVE",
"273 634 OFFCURVE",
"288 634 CURVE SMOOTH",
"303 634 OFFCURVE",
"315 626 OFFCURVE",
"317 615 CURVE",
"392 316 LINE",
"184 316 LINE"
);
}
);
width = 575;
},
{
anchors = (
{
name = ogonek;
position = "{518, 5}";
},
{
name = top;
position = "{288, 700}";
}
);
associatedMasterId = "FB732A47-0020-4E5B-B7FA-72B1D79E8828";
layerId = "E3E16BB1-FE4D-46B1-8609-3144CC288255";
name = "Bold Jan 23 14, 22:22";
paths = (
{
closed = 1;
nodes = (
"396 679 OFFCURVE",
"352 710 OFFCURVE",
"288 710 CURVE SMOOTH",
"223 710 OFFCURVE",
"180 679 OFFCURVE",
"165 621 CURVE SMOOTH",
"17 28 LINE SMOOTH",
"13 11 OFFCURVE",
"21 0 OFFCURVE",
"39 0 CURVE SMOOTH",
"159 0 LINE SMOOTH",
"174 0 OFFCURVE",
"186 7 OFFCURVE",
"187 22 CURVE SMOOTH",
"249 607 LINE SMOOTH",
"251 624 OFFCURVE",
"267 634 OFFCURVE",
"288 634 CURVE SMOOTH",
"309 634 OFFCURVE",
"325 624 OFFCURVE",
"327 607 CURVE SMOOTH",
"388 22 LINE SMOOTH",
"390 7 OFFCURVE",
"401 0 OFFCURVE",
"416 0 CURVE SMOOTH",
"537 0 LINE SMOOTH",
"554 0 OFFCURVE",
"563 11 OFFCURVE",
"558 28 CURVE SMOOTH",
"410 621 LINE SMOOTH"
);
},
{
closed = 1;
nodes = (
"91 170 LINE",
"489 170 LINE",
"489 246 LINE",
"91 246 LINE"
);
}
);
width = 575;
},
{
associatedMasterId = "FB732A47-0020-4E5B-B7FA-72B1D79E8828";
layerId = "3ADB0BAF-ABAE-426A-9E2E-4239AD9C3170";
name = "Bold Aug 24 14, 22:46";
paths = (
{
closed = 1;
nodes = (
"91 170 LINE",
"489 170 LINE",
"489 246 LINE",
"91 246 LINE"
);
},
{
closed = 1;
nodes = (
"396 679 OFFCURVE",
"352 710 OFFCURVE",
"288 710 CURVE SMOOTH",
"223 710 OFFCURVE",
"180 679 OFFCURVE",
"165 621 CURVE SMOOTH",
"17 28 LINE SMOOTH",
"13 11 OFFCURVE",
"21 0 OFFCURVE",
"39 0 CURVE SMOOTH",
"124 0 LINE SMOOTH",
"139 0 OFFCURVE",
"150 7 OFFCURVE",
"152 22 CURVE SMOOTH",
"249 607 LINE SMOOTH",
"252 624 OFFCURVE",
"267 634 OFFCURVE",
"288 634 CURVE SMOOTH",
"309 634 OFFCURVE",
"324 624 OFFCURVE",
"327 607 CURVE SMOOTH",
"423 22 LINE SMOOTH",
"426 7 OFFCURVE",
"436 0 OFFCURVE",
"451 0 CURVE SMOOTH",
"537 0 LINE SMOOTH",
"554 0 OFFCURVE",
"563 11 OFFCURVE",
"558 28 CURVE SMOOTH",
"410 621 LINE SMOOTH"
);
}
);
width = 575;
},
{
anchors = (
{
name = ogonek;
position = "{479, 10}";
},
{
name = top;
position = "{359, 700}";
}
);
hints = (
{
horizontal = 1;
origin = "{0, 10}";
target = up;
type = BottomGhost;
},
{
horizontal = 1;
origin = "{0, 15}";
target = "{1, 8}";
type = Stem;
},
{
horizontal = 1;
origin = "{0, 3}";
target = "{1, 3}";
type = Stem;
}
);
layerId = "8A9476DE-11F4-4864-A7B4-14D9B7165FAE";
paths = (
{
closed = 1;
nodes = (
"469 621 LINE SMOOTH",
"464 679 OFFCURVE",
"414 710 OFFCURVE",
"355 710 CURVE SMOOTH",
"296 710 OFFCURVE",
"248 679 OFFCURVE",
"224 621 CURVE SMOOTH",
"-18 28 LINE SMOOTH",
"-25 11 OFFCURVE",
"-19 0 OFFCURVE",
"-1 0 CURVE SMOOTH",
"34 0 LINE SMOOTH",
"49 0 OFFCURVE",
"61 7 OFFCURVE",
"66 22 CURVE",
"147 220 LINE",
"419 220 LINE",
"437 22 LINE",
"439 7 OFFCURVE",
"446 0 OFFCURVE",
"461 0 CURVE SMOOTH",
"497 0 LINE SMOOTH",
"514 0 OFFCURVE",
"525 11 OFFCURVE",
"523 28 CURVE SMOOTH"
);
},
{
closed = 1;
nodes = (
"306 607 LINE",
"312 625 OFFCURVE",
"332 634 OFFCURVE",
"349 634 CURVE SMOOTH",
"366 634 OFFCURVE",
"382 625 OFFCURVE",
"384 607 CURVE SMOOTH",
"412 296 LINE",
"178 296 LINE"
);
}
);
width = 575;
},
{
anchors = (
{
name = bottom;
position = "{259, 0}";
},
{
name = ogonek;
position = "{499, 10}";
},
{
name = top;
position = "{323, 700}";
}
);
hints = (
{
horizontal = 1;
origin = "{0, 10}";
target = up;
type = BottomGhost;
},
{
horizontal = 1;
origin = "{0, 15}";
target = "{1, 8}";
type = Stem;
},
{
horizontal = 1;
origin = "{0, 3}";
target = "{1, 0}";
type = Stem;
}
);
layerId = "C492240F-DFB2-48B7-8D1C-81E7E6E3599E";
paths = (
{
closed = 1;
nodes = (
"479 633 LINE SMOOTH",
"474 693 OFFCURVE",
"422 730 OFFCURVE",
"355 730 CURVE SMOOTH",
"289 730 OFFCURVE",
"240 693 OFFCURVE",
"214 634 CURVE SMOOTH",
"-28 40 LINE",
"-36 17 OFFCURVE",
"-26 0 OFFCURVE",
"-2 0 CURVE SMOOTH",
"33 0 LINE SMOOTH",
"53 0 OFFCURVE",
"69 11 OFFCURVE",
"76 30 CURVE",
"154 220 LINE",
"409 220 LINE",
"427 30 LINE",
"428 10 OFFCURVE",
"441 0 OFFCURVE",
"460 0 CURVE SMOOTH",
"496 0 LINE SMOOTH",
"520 0 OFFCURVE",
"536 18 OFFCURVE",
"533 41 CURVE"
);
},
{
closed = 1;
nodes = (
"315 615 LINE",
"319 626 OFFCURVE",
"332 634 OFFCURVE",
"347 634 CURVE SMOOTH",
"362 634 OFFCURVE",
"373 626 OFFCURVE",
"373 615 CURVE",
"401 316 LINE",
"193 316 LINE"
);
}
);
width = 575;
},
{
anchors = (
{
name = ogonek;
position = "{517, 10}";
},
{
name = top;
position = "{288, 700}";
}
);
associatedMasterId = "FB732A47-0020-4E5B-B7FA-72B1D79E8828";
layerId = "234F1611-D2EF-4505-9A34-41693E77C462";
name = "Bold Feb 26 15, 17:46";
paths = (
{
closed = 1;
nodes = (
"396 679 OFFCURVE",
"352 710 OFFCURVE",
"288 710 CURVE SMOOTH",
"223 710 OFFCURVE",
"180 679 OFFCURVE",
"165 621 CURVE SMOOTH",
"17 28 LINE SMOOTH",
"13 11 OFFCURVE",
"21 0 OFFCURVE",
"39 0 CURVE SMOOTH",
"74 0 LINE SMOOTH",
"89 0 OFFCURVE",
"99 7 OFFCURVE",
"102 22 CURVE SMOOTH",
"239 567 LINE SMOOTH",
"242 578 OFFCURVE",
"251 584 OFFCURVE",
"260 584 CURVE SMOOTH",
"270 584 OFFCURVE",
"279 578 OFFCURVE",
"282 567 CURVE SMOOTH",
"418 22 LINE SMOOTH",
"422 7 OFFCURVE",
"431 0 OFFCURVE",
"446 0 CURVE SMOOTH",
"537 0 LINE SMOOTH",
"554 0 OFFCURVE",
"563 11 OFFCURVE",
"558 28 CURVE SMOOTH",
"410 621 LINE SMOOTH"
);
},
{
closed = 1;
nodes = (
"131 220 LINE",
"459 220 LINE",
"459 296 LINE",
"131 296 LINE"
);
}
);
width = 575;
}
);
unicode = 0041;
},
{
glyphname = AE;
lastChange = "2016-06-09 18:35:33 +0000";
layers = (
{
hints = (
{
horizontal = 1;
origin = "{0, 32}";
target = "{1, 1}";
type = Stem;
},
{
horizontal = 1;
origin = "{0, 28}";
target = up;
type = BottomGhost;
},
{
horizontal = 1;
origin = "{0, 20}";
target = "{1, 5}";
type = Stem;
},
{
horizontal = 1;
origin = "{0, 1}";
target = "{0, 10}";
type = Stem;
},
{
horizontal = 1;
place = "{0, 7699}";
type = Stem;
},
{
horizontal = 1;
origin = "{0, 32}";
target = "{1, 1}";
type = TTStem;
},
{
horizontal = 1;
origin = "{0, 1}";
target = "{0, 10}";
type = TTStem;
},
{
horizontal = 1;
origin = "{0, 20}";
target = "{0, 11}";
type = TTStem;
},
{
horizontal = 1;
origin = "{0, 20}";
target = "{1, 5}";
type = TTStem;
},
{
place = "{288, 8499}";
type = Stem;
}
);
layerId = "A14B1AE3-86D5-4EA7-AE2F-7B4FA04DAB2E";
paths = (
{
closed = 1;
nodes = (
"373 77 LINE",
"373 326 LINE",
"475 326 LINE SMOOTH",
"491 326 OFFCURVE",
"500 335 OFFCURVE",
"500 351 CURVE SMOOTH",
"500 378 LINE SMOOTH",
"500 394 OFFCURVE",
"491 403 OFFCURVE",
"475 403 CURVE SMOOTH",
"373 403 LINE",
"373 624 LINE",
"482 624 LINE SMOOTH",
"498 624 OFFCURVE",
"507 632 OFFCURVE",
"507 649 CURVE SMOOTH",
"507 675 LINE SMOOTH",
"507 692 OFFCURVE",
"498 700 OFFCURVE",
"482 700 CURVE SMOOTH",
"288 700 LINE SMOOTH",
"223 700 OFFCURVE",
"180 679 OFFCURVE",
"165 621 CURVE SMOOTH",
"17 28 LINE SMOOTH",
"13 11 OFFCURVE",
"21 0 OFFCURVE",
"39 0 CURVE SMOOTH",
"74 0 LINE SMOOTH",
"89 0 OFFCURVE",
"99 7 OFFCURVE",
"102 22 CURVE",
"139 170 LINE",
"288 170 LINE",
"288 25 LINE SMOOTH",
"288 9 OFFCURVE",
"297 0 OFFCURVE",
"313 0 CURVE SMOOTH",
"493 0 LINE SMOOTH",
"510 0 OFFCURVE",
"518 9 OFFCURVE",
"518 25 CURVE SMOOTH",
"518 52 LINE SMOOTH",
"518 68 OFFCURVE",
"510 77 OFFCURVE",
"493 77 CURVE SMOOTH"
);
},
{
closed = 1;
nodes = (
"288 246 LINE",
"158 246 LINE",
"249 607 LINE SMOOTH",
"253 624 OFFCURVE",
"267 634 OFFCURVE",
"288 634 CURVE"
);
}
);
width = 575;
},
{
hints = (
{
horizontal = 1;
place = "{0, 9699}";
type = Stem;
},
{
horizontal = 1;
origin = "{0, 32}";
target = "{1, 1}";
type = TTStem;
},
{
horizontal = 1;
origin = "{0, 1}";
target = "{0, 10}";
type = TTStem;
},
{
horizontal = 1;
origin = "{0, 20}";
target = "{0, 11}";
type = TTStem;
}
);
layerId = "FB732A47-0020-4E5B-B7FA-72B1D79E8828";
paths = (
{
closed = 1;
nodes = (
"383 97 LINE",
"383 326 LINE",
"475 326 LINE",
"496 326 OFFCURVE",
"510 340 OFFCURVE",
"510 361 CURVE",
"510 388 LINE",
"510 409 OFFCURVE",
"496 423 OFFCURVE",
"475 423 CURVE",
"383 423 LINE",
"383 624 LINE",
"482 624 LINE",
"504 624 OFFCURVE",
"517 637 OFFCURVE",
"517 659 CURVE",
"517 685 LINE",
"517 707 OFFCURVE",
"504 720 OFFCURVE",
"482 720 CURVE",
"288 720 LINE",
"214 720 OFFCURVE",
"170 692 OFFCURVE",
"155 634 CURVE",
"7 40 LINE",
"2 17 OFFCURVE",
"15 0 OFFCURVE",
"39 0 CURVE",
"74 0 LINE",
"94 0 OFFCURVE",
"108 11 OFFCURVE",
"112 30 CURVE",
"147 170 LINE",
"278 170 LINE",
"278 35 LINE",
"278 14 OFFCURVE",
"292 0 OFFCURVE",
"313 0 CURVE",
"493 0 LINE",
"515 0 OFFCURVE",
"528 13 OFFCURVE",
"528 35 CURVE",
"528 62 LINE",
"528 84 OFFCURVE",
"515 97 OFFCURVE",
"493 97 CURVE"
);
},
{
closed = 1;
nodes = (
"278 266 LINE",
"171 266 LINE",
"259 615 LINE",
"261 625 OFFCURVE",
"268 631 OFFCURVE",
"278 633 CURVE"
);
}
);
width = 575;
},
{
layerId = "8A9476DE-11F4-4864-A7B4-14D9B7165FAE";
paths = (
{
closed = 1;
nodes = (
"346 77 LINE",
"385 326 LINE",
"487 326 LINE SMOOTH",
"503 326 OFFCURVE",
"513 335 OFFCURVE",
"516 351 CURVE SMOOTH",
"520 378 LINE SMOOTH",
"523 394 OFFCURVE",
"515 403 OFFCURVE",
"499 403 CURVE SMOOTH",
"397 403 LINE",
"432 624 LINE",
"541 624 LINE SMOOTH",
"557 624 OFFCURVE",
"568 632 OFFCURVE",
"570 649 CURVE SMOOTH",
"574 675 LINE SMOOTH",
"577 692 OFFCURVE",
"569 700 OFFCURVE",
"553 700 CURVE SMOOTH",
"359 700 LINE SMOOTH",
"294 700 OFFCURVE",
"248 679 OFFCURVE",
"224 621 CURVE SMOOTH",
"-18 28 LINE SMOOTH",
"-25 11 OFFCURVE",
"-19 0 OFFCURVE",
"-1 0 CURVE SMOOTH",
"34 0 LINE SMOOTH",
"49 0 OFFCURVE",
"61 7 OFFCURVE",
"66 22 CURVE",
"126 170 LINE",
"275 170 LINE",
"252 25 LINE SMOOTH",
"250 9 OFFCURVE",
"257 0 OFFCURVE",
"273 0 CURVE SMOOTH",
"453 0 LINE SMOOTH",
"470 0 OFFCURVE",
"480 9 OFFCURVE",
"482 25 CURVE SMOOTH",
"487 52 LINE SMOOTH",
"489 68 OFFCURVE",
"483 77 OFFCURVE",
"466 77 CURVE SMOOTH"
);
},
{
closed = 1;
nodes = (
"287 246 LINE",
"157 246 LINE",
"306 607 LINE SMOOTH",
"312 624 OFFCURVE",
"328 634 OFFCURVE",
"349 634 CURVE"
);
}
);
width = 575;
},
{
layerId = "C492240F-DFB2-48B7-8D1C-81E7E6E3599E";
paths = (
{
closed = 1;
nodes = (
"357 97 LINE",
"393 326 LINE",
"485 326 LINE",
"506 326 OFFCURVE",
"523 340 OFFCURVE",
"526 361 CURVE",
"530 388 LINE",
"534 409 OFFCURVE",
"522 423 OFFCURVE",
"501 423 CURVE",
"409 423 LINE",
"441 624 LINE",
"540 624 LINE",
"562 624 OFFCURVE",
"577 637 OFFCURVE",
"580 659 CURVE",
"584 685 LINE",
"588 707 OFFCURVE",
"577 720 OFFCURVE",
"555 720 CURVE",
"361 720 LINE",
"287 720 OFFCURVE",
"238 692 OFFCURVE",
"214 634 CURVE",
"-28 40 LINE",
"-36 17 OFFCURVE",
"-26 0 OFFCURVE",
"-2 0 CURVE",
"33 0 LINE",
"53 0 OFFCURVE",
"69 11 OFFCURVE",
"76 30 CURVE",
"133 170 LINE",
"264 170 LINE",
"242 35 LINE",
"239 14 OFFCURVE",
"251 0 OFFCURVE",
"272 0 CURVE",
"452 0 LINE",
"474 0 OFFCURVE",
"489 13 OFFCURVE",
"492 35 CURVE",
"497 62 LINE",
"500 84 OFFCURVE",
"489 97 OFFCURVE",
"467 97 CURVE"
);
},
{
closed = 1;
nodes = (
"279 266 LINE",
"172 266 LINE",
"315 615 LINE",
"319 625 OFFCURVE",
"327 631 OFFCURVE",
"337 633 CURVE"
);
}
);
width = 575;
}
);
unicode = 00C6;
},
{
glyphname = B;
lastChange = "2016-06-09 18:35:33 +0000";
layers = (
{
hints = (
{
horizontal = 1;
place = "{0, 7699}";
type = Stem;
},
{
horizontal = 1;
origin = "{2, 1}";
target = "{1, 8}";
type = TTStem;
},
{
horizontal = 1;
origin = "{0, 17}";
target = "{0, 24}";
type = TTStem;
}
);
layerId = "A14B1AE3-86D5-4EA7-AE2F-7B4FA04DAB2E";
paths = (
{
closed = 1;
nodes = (
"102 25 LINE SMOOTH",
"102 9 OFFCURVE",
"111 0 OFFCURVE",
"127 0 CURVE SMOOTH",
"264 0 LINE SMOOTH",
"424 0 OFFCURVE",
"513 96 OFFCURVE",
"513 196 CURVE SMOOTH",
"513 271 OFFCURVE",
"463 341 OFFCURVE",
"382 370 CURVE",
"430 395 OFFCURVE",
"473 453 OFFCURVE",
"473 521 CURVE SMOOTH",
"473 606 OFFCURVE",
"406 700 OFFCURVE",
"244 700 CURVE SMOOTH",
"64 700 LINE SMOOTH",
"47 700 OFFCURVE",
"39 691 OFFCURVE",
"39 675 CURVE SMOOTH",
"39 649 LINE SMOOTH",
"39 633 OFFCURVE",
"47 624 OFFCURVE",
"64 624 CURVE SMOOTH",
"102 624 LINE"
);
},
{
closed = 1;
nodes = (
"187 624 LINE",
"244 624 LINE SMOOTH",
"354 624 OFFCURVE",
"398 564 OFFCURVE",
"398 511 CURVE SMOOTH",
"398 452 OFFCURVE",
"344 403 OFFCURVE",
"244 403 CURVE SMOOTH",
"187 403 LINE"
);
},
{
closed = 1;
nodes = (
"187 77 LINE",
"187 326 LINE",
"264 326 LINE SMOOTH",
"380 326 OFFCURVE",
"437 263 OFFCURVE",
"437 201 CURVE SMOOTH",
"437 139 OFFCURVE",
"380 77 OFFCURVE",
"264 77 CURVE SMOOTH"
);
}
);
width = 575;
},
{
hints = (
{
horizontal = 1;
place = "{0, 9699}";
type = Stem;
},
{
horizontal = 1;
origin = "{2, 1}";
target = "{1, 8}";
type = TTStem;
},
{
horizontal = 1;
origin = "{0, 17}";
target = "{0, 24}";
type = TTStem;
}
);
layerId = "FB732A47-0020-4E5B-B7FA-72B1D79E8828";
paths = (
{
closed = 1;
nodes = (
"92 35 LINE SMOOTH",
"92 14 OFFCURVE",
"106 0 OFFCURVE",
"127 0 CURVE SMOOTH",
"264 0 LINE SMOOTH",
"414 0 OFFCURVE",
"523 88 OFFCURVE",
"523 206 CURVE SMOOTH",
"523 281 OFFCURVE",
"477 348 OFFCURVE",
"394 382 CURVE",
"452 415 OFFCURVE",
"483 473 OFFCURVE",
"483 531 CURVE SMOOTH",
"483 643 OFFCURVE",
"386 720 OFFCURVE",
"244 720 CURVE SMOOTH",
"64 720 LINE SMOOTH",
"42 720 OFFCURVE",
"29 707 OFFCURVE",
"29 685 CURVE SMOOTH",
"29 659 LINE SMOOTH",
"29 637 OFFCURVE",
"42 624 OFFCURVE",
"64 624 CURVE SMOOTH",
"92 624 LINE"
);
},
{
closed = 1;
nodes = (
"197 624 LINE",
"244 624 LINE SMOOTH",
"331 624 OFFCURVE",
"388 582 OFFCURVE",
"388 521 CURVE SMOOTH",
"388 462 OFFCURVE",
"331 423 OFFCURVE",
"244 423 CURVE SMOOTH",
"197 423 LINE"
);
},
{
closed = 1;
nodes = (
"197 97 LINE",
"197 326 LINE",
"264 326 LINE SMOOTH",
"360 326 OFFCURVE",
"427 278 OFFCURVE",
"427 211 CURVE SMOOTH",
"427 144 OFFCURVE",
"360 97 OFFCURVE",
"264 97 CURVE SMOOTH"
);
}
);
width = 575;
},
{
layerId = "8A9476DE-11F4-4864-A7B4-14D9B7165FAE";
paths = (
{
closed = 1;
nodes = (
"66 25 LINE",
"64 9 OFFCURVE",
"71 0 OFFCURVE",
"87 0 CURVE SMOOTH",
"224 0 LINE SMOOTH",
"382 0 OFFCURVE",
"507 75 OFFCURVE",
"507 213 CURVE SMOOTH",
"507 289 OFFCURVE",
"469 346 OFFCURVE",
"401 370 CURVE",
"473 404 OFFCURVE",
"519 476 OFFCURVE",
"519 553 CURVE SMOOTH",
"519 658 OFFCURVE",
"435 700 OFFCURVE",
"315 700 CURVE SMOOTH",
"135 700 LINE",
"118 700 OFFCURVE",
"109 691 OFFCURVE",
"106 675 CURVE SMOOTH",
"102 649 LINE SMOOTH",
"100 633 OFFCURVE",
"106 624 OFFCURVE",
"123 624 CURVE SMOOTH",
"161 624 LINE"
);
},
{
closed = 1;
nodes = (
"246 624 LINE",
"303 624 LINE SMOOTH",
"394 624 OFFCURVE",
"442 591 OFFCURVE",
"442 527 CURVE SMOOTH",
"442 448 OFFCURVE",
"370 403 OFFCURVE",
"268 403 CURVE SMOOTH",
"211 403 LINE"
);
},
{
closed = 1;
nodes = (
"160 77 LINE",
"199 326 LINE",
"276 326 LINE SMOOTH",
"362 326 OFFCURVE",
"431 299 OFFCURVE",
"431 215 CURVE SMOOTH",
"431 121 OFFCURVE",
"348 77 OFFCURVE",
"237 77 CURVE SMOOTH"
);
}
);
width = 575;
},
{
layerId = "C492240F-DFB2-48B7-8D1C-81E7E6E3599E";
paths = (
{
closed = 1;
nodes = (
"58 35 LINE",
"55 15 OFFCURVE",
"67 0 OFFCURVE",
"87 0 CURVE",
"224 0 LINE",
"386 0 OFFCURVE",
"518 81 OFFCURVE",
"518 223 CURVE SMOOTH",
"518 297 OFFCURVE",
"482 354 OFFCURVE",
"405 382 CURVE",
"484 416 OFFCURVE",
"531 482 OFFCURVE",
"531 563 CURVE SMOOTH",
"531 675 OFFCURVE",
"440 720 OFFCURVE",
"318 720 CURVE",
"138 720 LINE",
"117 720 OFFCURVE",
"101 705 OFFCURVE",
"98 685 CURVE",
"94 659 LINE",
"91 639 OFFCURVE",
"102 624 OFFCURVE",
"123 624 CURVE",
"151 624 LINE"
);
},
{
closed = 1;
nodes = (
"256 624 LINE",
"313 624 LINE",
"399 624 OFFCURVE",
"432 594 OFFCURVE",
"432 539 CURVE SMOOTH",
"432 461 OFFCURVE",
"365 423 OFFCURVE",
"271 423 CURVE",
"224 423 LINE"
);
},
{
closed = 1;
nodes = (
"173 97 LINE",
"209 326 LINE",
"276 326 LINE",
"358 326 OFFCURVE",
"422 300 OFFCURVE",
"422 223 CURVE SMOOTH",
"422 137 OFFCURVE",
"344 97 OFFCURVE",
"240 97 CURVE"
);
}
);
width = 575;
},
{
associatedMasterId = "FB732A47-0020-4E5B-B7FA-72B1D79E8828";
layerId = "DFD46035-AB43-4705-B5B2-3F5ACE543FFD";
name = "Bold Mar 1 15, 13:25";
paths = (
{
closed = 1;
nodes = (
"102 25 LINE",
"102 9 OFFCURVE",
"111 0 OFFCURVE",
"127 0 CURVE SMOOTH",
"264 0 LINE SMOOTH",
"403 0 OFFCURVE",
"513 53 OFFCURVE",
"513 192 CURVE SMOOTH",
"514 271 OFFCURVE",
"464 342 OFFCURVE",
"382 370 CURVE",
"430 395 OFFCURVE",
"473 447 OFFCURVE",
"473 521 CURVE SMOOTH",
"473 649 OFFCURVE",
"376 700 OFFCURVE",
"244 700 CURVE SMOOTH",
"64 700 LINE",
"47 700 OFFCURVE",
"39 691 OFFCURVE",
"39 675 CURVE SMOOTH",
"39 649 LINE SMOOTH",
"39 633 OFFCURVE",
"47 624 OFFCURVE",
"64 624 CURVE SMOOTH",
"102 624 LINE"
);
},
{
closed = 1;
nodes = (
"237 624 LINE",
"244 624 LINE SMOOTH",
"313 624 OFFCURVE",
"348 591 OFFCURVE",
"348 513 CURVE SMOOTH",
"348 440 OFFCURVE",
"318 403 OFFCURVE",
"244 403 CURVE SMOOTH",
"237 403 LINE"
);
},
{
closed = 1;
nodes = (
"237 77 LINE",
"237 326 LINE",
"264 326 LINE SMOOTH",
"340 326 OFFCURVE",
"387 277 OFFCURVE",
"387 197 CURVE SMOOTH",
"387 117 OFFCURVE",
"345 77 OFFCURVE",
"264 77 CURVE SMOOTH"
);
}
);
width = 575;
}
);
unicode = 0042;
},
{
glyphname = C;
lastChange = "2016-06-09 18:35:33 +0000";
layers = (
{
anchors = (
{
name = bottom;
position = "{328, 0}";
},
{
name = top;
position = "{288, 700}";
}
);
background = {
anchors = (
{
name = top;
position = "{288, 700}";
}
);
paths = (
{
closed = 1;
nodes = (
"85 243 LINE SMOOTH",
"85 99 OFFCURVE",
"144 -10 OFFCURVE",
"288 -10 CURVE SMOOTH",
"429 -10 OFFCURVE",
"490 97 OFFCURVE",
"490 243 CURVE SMOOTH",
"490 457 LINE SMOOTH",
"490 602 OFFCURVE",
"431 710 OFFCURVE",
"288 710 CURVE SMOOTH",
"146 710 OFFCURVE",
"85 604 OFFCURVE",
"85 457 CURVE SMOOTH"
);
},
{
closed = 1;
nodes = (
"405 243 LINE SMOOTH",
"405 151 OFFCURVE",
"380 67 OFFCURVE",
"288 67 CURVE SMOOTH",
"196 67 OFFCURVE",
"170 151 OFFCURVE",
"170 243 CURVE SMOOTH",
"170 457 LINE SMOOTH",
"170 549 OFFCURVE",
"196 634 OFFCURVE",
"288 634 CURVE SMOOTH",
"380 634 OFFCURVE",
"405 549 OFFCURVE",
"405 457 CURVE SMOOTH"
);
}
);
};
hints = (
{
horizontal = 1;
origin = "{0, 25}";
target = "{0, 12}";
type = Stem;
},
{
horizontal = 1;
origin = "{0, 32}";
target = "{0, 5}";
type = Stem;
},
{
origin = "{0, 29}";
target = "{0, 8}";
type = Stem;
},
{
horizontal = 1;
origin = "{0, 25}";
target = "{0, 12}";
type = TTStem;
},
{
horizontal = 1;
origin = "{0, 32}";
target = "{0, 5}";
type = TTStem;
}
);
layerId = "A14B1AE3-86D5-4EA7-AE2F-7B4FA04DAB2E";
paths = (
{
closed = 1;
nodes = (
"475 92 OFFCURVE",
"464 97 OFFCURVE",
"449 91 CURVE SMOOTH",
"405 75 OFFCURVE",
"369 68 OFFCURVE",
"338 68 CURVE SMOOTH",
"259 68 OFFCURVE",
"171 114 OFFCURVE",
"171 310 CURVE SMOOTH",
"171 390 LINE SMOOTH",
"171 586 OFFCURVE",
"259 632 OFFCURVE",
"338 632 CURVE SMOOTH",
"369 632 OFFCURVE",
"405 625 OFFCURVE",
"449 609 CURVE SMOOTH",
"464 603 OFFCURVE",
"475 608 OFFCURVE",
"481 623 CURVE SMOOTH",
"491 647 LINE SMOOTH",
"497 662 OFFCURVE",
"493 674 OFFCURVE",
"478 680 CURVE SMOOTH",
"431 700 OFFCURVE",
"385 710 OFFCURVE",
"340 710 CURVE SMOOTH",
"222 710 OFFCURVE",
"85 640 OFFCURVE",
"85 390 CURVE SMOOTH",
"85 310 LINE SMOOTH",
"85 60 OFFCURVE",
"222 -10 OFFCURVE",
"340 -10 CURVE SMOOTH",
"385 -10 OFFCURVE",
"431 0 OFFCURVE",
"478 20 CURVE SMOOTH",
"493 26 OFFCURVE",
"497 38 OFFCURVE",
"491 53 CURVE SMOOTH",
"481 77 LINE SMOOTH"
);
}
);
width = 575;
},
{
anchors = (
{
name = bottom;
position = "{288, 0}";
},
{
name = top;
position = "{338, 700}";
}
);
hints = (
{
horizontal = 1;
origin = "{0, 32}";
target = "{0, 5}";
type = TTStem;
},
{
horizontal = 1;
origin = "{0, 25}";
target = "{0, 12}";
type = TTStem;
}
);
layerId = "FB732A47-0020-4E5B-B7FA-72B1D79E8828";
paths = (
{
closed = 1;
nodes = (
"482 101 OFFCURVE",
"465 108 OFFCURVE",
"445 100 CURVE SMOOTH",
"404 85 OFFCURVE",
"369 78 OFFCURVE",
"338 78 CURVE SMOOTH",
"235 78 OFFCURVE",
"181 158 OFFCURVE",
"181 310 CURVE SMOOTH",
"181 400 LINE SMOOTH",
"181 552 OFFCURVE",
"235 632 OFFCURVE",
"338 632 CURVE SMOOTH",
"369 632 OFFCURVE",
"404 625 OFFCURVE",
"446 610 CURVE SMOOTH",
"465 602 OFFCURVE",
"482 609 OFFCURVE",
"490 629 CURVE SMOOTH",
"500 653 LINE SMOOTH",
"508 674 OFFCURVE",
"501 691 OFFCURVE",
"482 699 CURVE SMOOTH",
"434 720 OFFCURVE",
"387 730 OFFCURVE",
"340 730 CURVE SMOOTH",
"174 730 OFFCURVE",
"75 608 OFFCURVE",
"75 400 CURVE SMOOTH",
"75 310 LINE SMOOTH",
"75 102 OFFCURVE",
"174 -20 OFFCURVE",
"340 -20 CURVE SMOOTH",
"387 -20 OFFCURVE",
"434 -10 OFFCURVE",
"482 11 CURVE SMOOTH",
"501 19 OFFCURVE",
"508 36 OFFCURVE",
"500 57 CURVE SMOOTH",
"490 81 LINE SMOOTH"
);
}
);
width = 575;
},
{
anchors = (
{
name = bottom;
position = "{248, 0}";
},
{
name = top;
position = "{359, 700}";
}
);
layerId = "8A9476DE-11F4-4864-A7B4-14D9B7165FAE";
paths = (
{
closed = 1;
nodes = (
"448 82 OFFCURVE",
"438 87 OFFCURVE",
"422 81 CURVE SMOOTH",
"376 65 OFFCURVE",
"339 58 OFFCURVE",
"308 58 CURVE SMOOTH",
"241 58 OFFCURVE",
"172 91 OFFCURVE",
"172 217 CURVE SMOOTH",
"172 253 OFFCURVE",
"176 286 OFFCURVE",
"193 390 CURVE SMOOTH",
"224 586 OFFCURVE",
"320 632 OFFCURVE",
"399 632 CURVE SMOOTH",
"430 632 OFFCURVE",
"464 625 OFFCURVE",
"506 609 CURVE SMOOTH",
"520 603 OFFCURVE",
"532 608 OFFCURVE",
"540 623 CURVE SMOOTH",
"554 647 LINE SMOOTH",
"562 662 OFFCURVE",
"560 674 OFFCURVE",
"546 680 CURVE SMOOTH",
"502 700 OFFCURVE",
"458 710 OFFCURVE",
"413 710 CURVE SMOOTH",
"295 710 OFFCURVE",
"147 640 OFFCURVE",
"107 390 CURVE SMOOTH",
"90 280 OFFCURVE",
"85 246 OFFCURVE",
"85 207 CURVE SMOOTH",
"85 33 OFFCURVE",
"194 -20 OFFCURVE",
"297 -20 CURVE SMOOTH",
"342 -20 OFFCURVE",
"390 -10 OFFCURVE",
"440 10 CURVE SMOOTH",
"456 16 OFFCURVE",
"462 28 OFFCURVE",
"458 43 CURVE SMOOTH",
"452 67 LINE SMOOTH"
);
}
);
width = 575;
},
{
anchors = (
{
name = bottom;
position = "{247, 0}";
},
{
name = top;
position = "{361, 720}";
}
);
layerId = "C492240F-DFB2-48B7-8D1C-81E7E6E3599E";
paths = (
{
closed = 1;
nodes = (
"457 101 OFFCURVE",
"441 108 OFFCURVE",
"420 100 CURVE SMOOTH",
"376 85 OFFCURVE",
"340 78 OFFCURVE",
"309 78 CURVE SMOOTH",
"225 78 OFFCURVE",
"182 131 OFFCURVE",
"182 228 CURVE SMOOTH",
"182 258 OFFCURVE",
"185 282 OFFCURVE",
"203 400 CURVE SMOOTH",
"227 552 OFFCURVE",
"294 632 OFFCURVE",
"397 632 CURVE SMOOTH",
"428 632 OFFCURVE",
"462 625 OFFCURVE",
"501 610 CURVE SMOOTH",
"519 602 OFFCURVE",
"537 609 OFFCURVE",
"548 629 CURVE SMOOTH",
"562 653 LINE SMOOTH",
"574 674 OFFCURVE",
"569 691 OFFCURVE",
"552 699 CURVE SMOOTH",
"507 720 OFFCURVE",
"461 730 OFFCURVE",
"414 730 CURVE SMOOTH",
"248 730 OFFCURVE",
"130 608 OFFCURVE",
"97 400 CURVE SMOOTH",
"81 296 OFFCURVE",
"76 258 OFFCURVE",
"76 219 CURVE SMOOTH",
"76 68 OFFCURVE",
"155 -20 OFFCURVE",
"296 -20 CURVE SMOOTH",
"343 -20 OFFCURVE",
"391 -10 OFFCURVE",
"443 11 CURVE SMOOTH",
"463 19 OFFCURVE",
"473 36 OFFCURVE",
"468 57 CURVE SMOOTH",
"462 81 LINE SMOOTH"
);
}
);
width = 575;
},
{
anchors = (
{
name = bottom;
position = "{288, 0}";
},
{
name = top;
position = "{288, 700}";
}
);
associatedMasterId = "A14B1AE3-86D5-4EA7-AE2F-7B4FA04DAB2E";
layerId = "EAB1E37A-6AC8-4E6F-8F3C-2E37E6FC87D7";
name = "Regular Jan 11 15, 19:10";
paths = (
{
closed = 1;
nodes = (
"519 668 LINE SMOOTH",
"522 684 OFFCURVE",
"516 694 OFFCURVE",
"499 697 CURVE SMOOTH",
"438 708 OFFCURVE",
"384 710 OFFCURVE",
"351 710 CURVE SMOOTH",
"99 710 OFFCURVE",
"85 524 OFFCURVE",
"85 370 CURVE SMOOTH",
"85 330 LINE SMOOTH",
"85 178 OFFCURVE",
"99 -10 OFFCURVE",
"351 -10 CURVE SMOOTH",
"382 -10 OFFCURVE",
"435 -9 OFFCURVE",
"499 3 CURVE SMOOTH",
"516 6 OFFCURVE",
"522 17 OFFCURVE",
"519 33 CURVE SMOOTH",
"513 59 LINE SMOOTH",
"509 75 OFFCURVE",
"499 81 OFFCURVE",
"483 78 CURVE SMOOTH",
"428 69 OFFCURVE",
"379 67 OFFCURVE",
"351 67 CURVE SMOOTH",
"214 67 OFFCURVE",
"170 130 OFFCURVE",
"170 330 CURVE SMOOTH",
"170 371 LINE SMOOTH",
"170 520 OFFCURVE",
"179 634 OFFCURVE",
"351 634 CURVE SMOOTH",
"376 634 OFFCURVE",
"426 632 OFFCURVE",
"483 622 CURVE SMOOTH",
"499 619 OFFCURVE",
"509 626 OFFCURVE",
"513 641 CURVE SMOOTH"
);
}
);
width = 575;
}
);
unicode = 0043;
},
{
glyphname = D;
lastChange = "2016-06-09 18:46:00 +0000";
layers = (
{
anchors = (
{
name = center;
position = "{288, 350}";
},
{
name = top;
position = "{288, 700}";
}
);
hints = (
{
horizontal = 1;
place = "{0, 7699}";
type = Stem;
},
{
horizontal = 1;
origin = "{0, 0}";
target = "{1, 4}";
type = TTStem;
}
);
layerId = "A14B1AE3-86D5-4EA7-AE2F-7B4FA04DAB2E";
paths = (
{
closed = 1;
nodes = (
"64 700 LINE SMOOTH",
"47 700 OFFCURVE",
"39 691 OFFCURVE",
"39 675 CURVE SMOOTH",
"39 649 LINE SMOOTH",
"39 633 OFFCURVE",
"47 624 OFFCURVE",
"64 624 CURVE SMOOTH",
"102 624 LINE",
"102 25 LINE SMOOTH",
"102 9 OFFCURVE",
"111 0 OFFCURVE",
"127 0 CURVE SMOOTH",
"183 0 LINE SMOOTH",
"434 0 OFFCURVE",
"517 102 OFFCURVE",
"517 330 CURVE SMOOTH",
"517 370 LINE SMOOTH",
"517 631 OFFCURVE",
"393 700 OFFCURVE",
"144 700 CURVE SMOOTH"
);
},
{
closed = 1;
nodes = (
"432 330 LINE SMOOTH",
"432 147 OFFCURVE",
"360 77 OFFCURVE",
"187 77 CURVE",
"187 623 LINE",
"367 623 OFFCURVE",
"432 536 OFFCURVE",
"432 370 CURVE SMOOTH"
);
}
);
width = 575;
},
{
anchors = (
{
name = center;
position = "{288, 350}";
},
{
name = top;
position = "{288, 700}";
}
);
hints = (
{
horizontal = 1;
place = "{0, 9699}";
type = Stem;
},
{
horizontal = 1;
origin = "{0, 0}";
target = "{0, 7}";
type = TTStem;
}
);
layerId = "FB732A47-0020-4E5B-B7FA-72B1D79E8828";
paths = (
{
closed = 1;
nodes = (
"64 720 LINE",
"43 720 OFFCURVE",
"29 705 OFFCURVE",
"29 685 CURVE",
"29 659 LINE",
"29 639 OFFCURVE",
"43 624 OFFCURVE",
"64 624 CURVE",
"92 624 LINE",
"92 35 LINE",
"92 15 OFFCURVE",
"107 0 OFFCURVE",
"127 0 CURVE",
"183 0 LINE",
"439 0 OFFCURVE",
"527 108 OFFCURVE",
"527 330 CURVE",
"527 390 LINE",
"527 647 OFFCURVE",
"396 720 OFFCURVE",
"144 720 CURVE"
);
},
{
closed = 1;
nodes = (
"422 330 LINE",
"422 167 OFFCURVE",
"357 100 OFFCURVE",
"197 97 CURVE",
"197 623 LINE",
"362 615 OFFCURVE",
"422 537 OFFCURVE",
"422 390 CURVE"
);
}
);
width = 575;
},
{
layerId = "8A9476DE-11F4-4864-A7B4-14D9B7165FAE";
paths = (
{
closed = 1;
nodes = (
"133 700 LINE SMOOTH",
"118 700 OFFCURVE",
"108 692 OFFCURVE",
"106 677 CURVE SMOOTH",
"102 651 LINE SMOOTH",
"99 634 OFFCURVE",
"108 624 OFFCURVE",
"125 624 CURVE SMOOTH",
"161 624 LINE",
"66 27 LINE SMOOTH",
"63 10 OFFCURVE",
"72 0 OFFCURVE",
"89 0 CURVE SMOOTH",
"143 0 LINE SMOOTH",
"394 0 OFFCURVE",
"494 102 OFFCURVE",
"528 320 CURVE SMOOTH",
"542 405 OFFCURVE",
"546 433 OFFCURVE",
"546 473 CURVE SMOOTH",
"546 648 OFFCURVE",
"402 700 OFFCURVE",
"185 700 CURVE SMOOTH"
);
},
{
closed = 1;
nodes = (
"415 145 OFFCURVE",
"345 80 OFFCURVE",
"160 76 CURVE",
"247 622 LINE",
"405 614 OFFCURVE",
"461 570 OFFCURVE",
"461 473 CURVE SMOOTH",
"461 441 OFFCURVE",
"459 420 OFFCURVE",
"444 332 CURVE SMOOTH"
);
}
);
width = 575;
},
{
layerId = "C492240F-DFB2-48B7-8D1C-81E7E6E3599E";
paths = (
{
closed = 1;
nodes = (
"133 720 LINE SMOOTH",
"112.621 720 OFFCURVE",
"98.725 708.1 OFFCURVE",
"96.088 688.322 CURVE SMOOTH",
"92.116 662.521 LINE SMOOTH",
"88.089 639.716 OFFCURVE",
"101.43 624 OFFCURVE",
"125 624 CURVE SMOOTH",
"149.283 624 LINE",
"56.124 38.572 LINE SMOOTH",
"52.089 15.716 OFFCURVE",
"65.43 0 OFFCURVE",
"89 0 CURVE SMOOTH",
"143 0 LINE SMOOTH",
"387.627 0 OFFCURVE",
"501.408 94.605 OFFCURVE",
"537.881 328.459 CURVE SMOOTH",
"551.884 413.48 OFFCURVE",
"556 442.289 OFFCURVE",
"556 483 CURVE SMOOTH",
"556 645.878 OFFCURVE",
"438.179 720 OFFCURVE",
"185 720 CURVE SMOOTH"
);
},
{
closed = 1;
nodes = (
"406.344 164.44 OFFCURVE",
"341.709 102.667 OFFCURVE",
"171.775 96.349 CURVE",
"255.456 621.515 LINE",
"398.026 612.889 OFFCURVE",
"451 574.553 OFFCURVE",
"451 483 CURVE SMOOTH",
"451 451.475 OFFCURVE",
"449.08 431.316 OFFCURVE",
"434.142 343.68 CURVE SMOOTH"
);
}
);
width = 575;
}
);
unicode = 0044;
},
{
glyphname = Eth;
lastChange = "2016-06-09 18:35:33 +0000";
layers = (
{
anchors = (
{
name = center;
position = "{288, 350}";
},
{
name = top;
position = "{288, 700}";
}
);
hints = (
{
horizontal = 1;
origin = "{1, 4}";
target = "{1, 11}";
type = Align;
},
{
horizontal = 1;
origin = "{0, 17}";
target = "{0, 10}";
type = Align;
},
{
horizontal = 1;
place = "{0, 7699}";
type = Stem;
},
{
horizontal = 1;
origin = "{0, 0}";
target = "{1, 13}";
type = TTStem;
}
);
layerId = "A14B1AE3-86D5-4EA7-AE2F-7B4FA04DAB2E";
paths = (
{
closed = 1;
nodes = (
"64 700 LINE SMOOTH",
"47 700 OFFCURVE",
"39 691 OFFCURVE",
"39 675 CURVE SMOOTH",
"39 649 LINE SMOOTH",
"39 633 OFFCURVE",
"47 624 OFFCURVE",
"64 624 CURVE SMOOTH",
"102 624 LINE",
"102 389 LINE",
"67 389 LINE SMOOTH",
"51 389 OFFCURVE",
"42 380 OFFCURVE",
"42 363 CURVE SMOOTH",
"42 337 LINE SMOOTH",
"42 321 OFFCURVE",
"51 312 OFFCURVE",
"67 312 CURVE SMOOTH",
"102 312 LINE",
"102 25 LINE SMOOTH",
"102 9 OFFCURVE",
"111 0 OFFCURVE",
"127 0 CURVE SMOOTH",
"183 0 LINE SMOOTH",
"434 0 OFFCURVE",
"517 102 OFFCURVE",
"517 330 CURVE SMOOTH",
"517 370 LINE SMOOTH",
"517 631 OFFCURVE",
"393 700 OFFCURVE",
"144 700 CURVE SMOOTH"
);
},
{
closed = 1;
nodes = (
"432 147 OFFCURVE",
"360 77 OFFCURVE",
"187 77 CURVE",
"187 312 LINE",
"290 312 LINE SMOOTH",
"306 312 OFFCURVE",
"315 321 OFFCURVE",
"315 337 CURVE SMOOTH",
"315 364 LINE SMOOTH",
"315 380 OFFCURVE",
"306 389 OFFCURVE",
"290 389 CURVE SMOOTH",
"187 389 LINE",
"187 623 LINE",
"367 618 OFFCURVE",
"432 536 OFFCURVE",
"432 370 CURVE SMOOTH",
"432 330 LINE SMOOTH"
);
}
);
width = 575;
},
{
components = (
{
name = D;
}
);
layerId = "FB732A47-0020-4E5B-B7FA-72B1D79E8828";
paths = (
{
closed = 1;
nodes = (
"42 337 LINE SMOOTH",
"42 321 OFFCURVE",
"51 312 OFFCURVE",
"67 312 CURVE SMOOTH",
"290 312 LINE SMOOTH",
"306 312 OFFCURVE",
"315 321 OFFCURVE",
"315 337 CURVE SMOOTH",
"315 364 LINE SMOOTH",
"315 380 OFFCURVE",
"306 389 OFFCURVE",
"290 389 CURVE SMOOTH",
"67 389 LINE SMOOTH",
"51 389 OFFCURVE",
"42 380 OFFCURVE",
"42 363 CURVE SMOOTH"
);
}
);
width = 575;
},
{
components = (
{
name = D;
transform = "{1, 0, 0, 1, -10, 0}";
}
);
layerId = "8A9476DE-11F4-4864-A7B4-14D9B7165FAE";
paths = (
{
closed = 1;
nodes = (
"36 337 LINE SMOOTH",
"33 321 OFFCURVE",
"41 312 OFFCURVE",
"57 312 CURVE SMOOTH",
"280 312 LINE SMOOTH",
"296 312 OFFCURVE",
"306 321 OFFCURVE",
"309 337 CURVE SMOOTH",
"313 364 LINE SMOOTH",
"316 380 OFFCURVE",
"308 389 OFFCURVE",
"292 389 CURVE SMOOTH",
"69 389 LINE SMOOTH",
"53 389 OFFCURVE",
"43 380 OFFCURVE",
"40 363 CURVE SMOOTH"
);
}
);
width = 575;
},
{
components = (
{
name = D;
transform = "{1, 0, 0, 1, -10, 0}";
}
);
layerId = "C492240F-DFB2-48B7-8D1C-81E7E6E3599E";
paths = (
{
closed = 1;
nodes = (
"36 337 LINE SMOOTH",
"33 321 OFFCURVE",
"41 312 OFFCURVE",
"57 312 CURVE SMOOTH",
"280 312 LINE SMOOTH",
"296 312 OFFCURVE",
"306 321 OFFCURVE",
"309 337 CURVE SMOOTH",
"313 364 LINE SMOOTH",
"316 380 OFFCURVE",
"308 389 OFFCURVE",
"292 389 CURVE SMOOTH",
"69 389 LINE SMOOTH",
"53 389 OFFCURVE",
"43 380 OFFCURVE",
"40 363 CURVE SMOOTH"
);
}
);
width = 575;
}
);
unicode = 00D0;
},
{
glyphname = E;
lastChange = "2019-03-25 21:31:47 +0000";
layers = (
{
anchors = (
{
name = bottom;
position = "{288, 0}";
},
{
name = ogonek;
position = "{518, 1}";
},
{
name = top;
position = "{288, 700}";
}
);
hints = (
{
horizontal = 1;
origin = "{0, 1}";
target = "{0, 10}";
type = TTStem;
},
{
horizontal = 1;
origin = "{0, 20}";
target = "{0, 11}";
type = TTStem;
},
{
horizontal = 1;
origin = "{0, 27}";
target = "{0, 0}";
type = Stem;
},
{
horizontal = 1;
origin = "{0, 1}";
target = "{0, 10}";
type = Stem;
},
{
horizontal = 1;
origin = "{0, 20}";
target = "{0, 11}";
type = Stem;
},
{
origin = "{0, 24}";
target = "{0, 0}";
type = Stem;
}
);
layerId = "A14B1AE3-86D5-4EA7-AE2F-7B4FA04DAB2E";
paths = (
{
closed = 1;
nodes = (
"170 77 LINE",
"170 326 LINE",
"448 326 LINE SMOOTH",
"464 326 OFFCURVE",
"473 335 OFFCURVE",
"473 351 CURVE SMOOTH",
"473 378 LINE SMOOTH",
"473 394 OFFCURVE",
"464 403 OFFCURVE",
"448 403 CURVE SMOOTH",
"170 403 LINE",
"170 624 LINE",
"469 624 LINE SMOOTH",
"485 624 OFFCURVE",
"494 632 OFFCURVE",
"494 649 CURVE SMOOTH",
"494 675 LINE SMOOTH",
"494 692 OFFCURVE",
"485 700 OFFCURVE",
"469 700 CURVE SMOOTH",
"110 700 LINE SMOOTH",
"94 700 OFFCURVE",
"85 691 OFFCURVE",
"85 675 CURVE SMOOTH",
"85 25 LINE SMOOTH",
"85 9 OFFCURVE",
"94 0 OFFCURVE",
"110 0 CURVE SMOOTH",
"491 0 LINE SMOOTH",
"507 0 OFFCURVE",
"516 9 OFFCURVE",
"516 25 CURVE SMOOTH",
"516 52 LINE SMOOTH",
"516 68 OFFCURVE",
"507 77 OFFCURVE",
"491 77 CURVE SMOOTH"
);
}
);
width = 575;
},
{
anchors = (
{
name = bottom;
position = "{288, 0}";
},
{
name = ogonek;
position = "{518, 5}";
},
{
name = top;
position = "{288, 700}";
}
);
hints = (
{
horizontal = 1;
origin = "{0, 1}";
target = "{0, 10}";
type = TTStem;
},
{
horizontal = 1;
origin = "{0, 20}";
target = "{0, 11}";
type = TTStem;
},
{
horizontal = 1;
origin = "{0, 27}";
target = "{0, 0}";
type = Stem;
},
{
horizontal = 1;
origin = "{0, 1}";
target = "{0, 10}";
type = Stem;
},
{
horizontal = 1;
origin = "{0, 20}";
target = "{0, 11}";
type = Stem;
},
{
origin = "{0, 24}";
target = "{0, 0}";
type = Stem;
}
);
layerId = "FB732A47-0020-4E5B-B7FA-72B1D79E8828";
paths = (
{
closed = 1;
nodes = (
"180 97 LINE",
"180 326 LINE",
"448 326 LINE",
"468.142 326 OFFCURVE",
"483 340.858 OFFCURVE",
"483 361 CURVE",
"483 388 LINE",
"483 408.142 OFFCURVE",
"468.142 423 OFFCURVE",
"448 423 CURVE",
"180 423 LINE",
"180 624 LINE",
"469 624 LINE",
"488.802 624 OFFCURVE",
"504 637.509 OFFCURVE",
"504 659 CURVE",
"504 685 LINE",
"504 706.491 OFFCURVE",
"488.802 720 OFFCURVE",
"469 720 CURVE",
"110 720 LINE",
"89.858 720 OFFCURVE",
"75 705.142 OFFCURVE",
"75 685 CURVE",
"75 35 LINE",
"75 14.858 OFFCURVE",
"89.858 0 OFFCURVE",
"110 0 CURVE",
"491 0 LINE",
"511.142 0 OFFCURVE",
"526 14.858 OFFCURVE",
"526 35 CURVE",
"526 62 LINE",
"526 82.142 OFFCURVE",
"511.142 97 OFFCURVE",
"491 97 CURVE"
);
}
);
width = 575;
},
{
anchors = (
{
name = bottom;
position = "{288, 0}";
},
{
name = ogonek;
position = "{518, 5}";
},
{
name = top;
position = "{288, 700}";
}
);
associatedMasterId = "FB732A47-0020-4E5B-B7FA-72B1D79E8828";
layerId = "FA838C2B-CCD9-4E2D-9956-7C9A2EC469FC";
name = "Bold Jan 23 14, 22:24";
paths = (
{
closed = 1;
nodes = (
"255 77 LINE",
"255 326 LINE",
"448 326 LINE SMOOTH",
"464 326 OFFCURVE",
"473 335 OFFCURVE",
"473 351 CURVE SMOOTH",
"473 378 LINE SMOOTH",
"473 394 OFFCURVE",
"464 403 OFFCURVE",
"448 403 CURVE SMOOTH",
"255 403 LINE",
"255 624 LINE",
"469 624 LINE SMOOTH",
"485 624 OFFCURVE",
"494 632 OFFCURVE",
"494 649 CURVE SMOOTH",
"494 675 LINE SMOOTH",
"494 692 OFFCURVE",
"485 700 OFFCURVE",
"469 700 CURVE SMOOTH",
"110 700 LINE SMOOTH",
"94 700 OFFCURVE",
"85 691 OFFCURVE",
"85 675 CURVE SMOOTH",
"85 25 LINE SMOOTH",
"85 9 OFFCURVE",
"94 0 OFFCURVE",
"110 0 CURVE SMOOTH",
"491 0 LINE SMOOTH",
"507 0 OFFCURVE",
"516 9 OFFCURVE",
"516 25 CURVE SMOOTH",
"516 52 LINE SMOOTH",
"516 68 OFFCURVE",
"507 77 OFFCURVE",
"491 77 CURVE SMOOTH"
);
}
);
width = 575;
},
{
hints = (
{
horizontal = 1;
origin = "{0, 27}";
target = "{0, 0}";
type = Stem;
},
{
horizontal = 1;
origin = "{0, 1}";
target = "{0, 10}";
type = Stem;
},
{
horizontal = 1;
origin = "{0, 20}";
target = "{0, 11}";
type = Stem;
}
);
layerId = "8A9476DE-11F4-4864-A7B4-14D9B7165FAE";
paths = (
{
closed = 1;
nodes = (
"143 77 LINE",
"182 326 LINE",
"460 326 LINE SMOOTH",
"476 326 OFFCURVE",
"486 335 OFFCURVE",
"489 351 CURVE SMOOTH",
"493 378 LINE SMOOTH",
"496 394 OFFCURVE",
"488 403 OFFCURVE",
"472 403 CURVE SMOOTH",
"194 403 LINE",
"229 624 LINE",
"528 624 LINE SMOOTH",
"544 624 OFFCURVE",
"555 632 OFFCURVE",
"557 649 CURVE SMOOTH",
"561 675 LINE SMOOTH",
"564 692 OFFCURVE",
"556 700 OFFCURVE",
"540 700 CURVE SMOOTH",
"181 700 LINE SMOOTH",
"165 700 OFFCURVE",
"155 691 OFFCURVE",
"152 675 CURVE SMOOTH",
"49 25 LINE SMOOTH",
"47 9 OFFCURVE",
"54 0 OFFCURVE",
"70 0 CURVE SMOOTH",
"451 0 LINE SMOOTH",
"467 0 OFFCURVE",
"478 9 OFFCURVE",
"480 25 CURVE SMOOTH",
"485 52 LINE SMOOTH",
"487 68 OFFCURVE",
"480 77 OFFCURVE",
"464 77 CURVE SMOOTH"
);
}
);
width = 575;
},
{
hints = (
{
horizontal = 1;
origin = "{0, 27}";
target = "{0, 0}";
type = Stem;
},
{
horizontal = 1;
origin = "{0, 1}";
target = "{0, 10}";
type = Stem;
},
{
horizontal = 1;
origin = "{0, 20}";
target = "{0, 11}";
type = Stem;
}
);
layerId = "C492240F-DFB2-48B7-8D1C-81E7E6E3599E";
paths = (
{
closed = 1;
nodes = (
"156 97 LINE",
"192 326 LINE",
"460 326 LINE",
"480 326 OFFCURVE",
"497 341 OFFCURVE",
"501 361 CURVE",
"505 388 LINE",
"508 408 OFFCURVE",
"496 423 OFFCURVE",
"475 423 CURVE",
"207 423 LINE",
"239 624 LINE",
"528 624 LINE",
"548 624 OFFCURVE",
"565 638 OFFCURVE",
"569 659 CURVE",
"573 685 LINE",
"576 706 OFFCURVE",
"563 720 OFFCURVE",
"543 720 CURVE",
"184 720 LINE",
"164 720 OFFCURVE",
"147 705 OFFCURVE",
"144 685 CURVE",
"41 35 LINE",
"38 15 OFFCURVE",
"50 0 OFFCURVE",
"70 0 CURVE",
"451 0 LINE",
"472 0 OFFCURVE",
"489 15 OFFCURVE",
"492 35 CURVE",
"496 62 LINE",
"499 82 OFFCURVE",
"487 97 OFFCURVE",
"467 97 CURVE"
);
}
);
width = 575;
}
);
unicode = 0045;
},
{
glyphname = F;
lastChange = "2016-06-09 18:35:33 +0000";
layers = (
{
hints = (
{
horizontal = 1;
place = "{0, 0}";
type = Stem;
},
{
origin = "{0, 4}";
target = "{0, 11}";
type = Stem;
},
{
horizontal = 1;
origin = "{0, 12}";
target = "{0, 21}";
type = Stem;
},
{
horizontal = 1;
origin = "{0, 0}";
target = "{0, 22}";
type = Stem;
},
{
horizontal = 1;
place = "{21.5, -21.5}";
type = Stem;
},
{
horizontal = 1;
origin = "{0, 12}";
target = "{0, 21}";
type = TTStem;
},
{
horizontal = 1;
origin = "{0, 0}";
target = "{0, 22}";
type = TTStem;
}
);
layerId = "A14B1AE3-86D5-4EA7-AE2F-7B4FA04DAB2E";
paths = (
{
closed = 1;
nodes = (
"110 700 LINE SMOOTH",
"94 700 OFFCURVE",
"85 691 OFFCURVE",
"85 675 CURVE SMOOTH",
"85 25 LINE SMOOTH",
"85 9 OFFCURVE",
"94 0 OFFCURVE",
"110 0 CURVE SMOOTH",
"145 0 LINE SMOOTH",
"162 0 OFFCURVE",
"170 9 OFFCURVE",
"170 25 CURVE SMOOTH",
"170 292 LINE",
"469 292 LINE SMOOTH",
"485 292 OFFCURVE",
"494 300 OFFCURVE",
"494 316 CURVE SMOOTH",
"494 343 LINE SMOOTH",
"494 359 OFFCURVE",
"485 368 OFFCURVE",
"469 368 CURVE SMOOTH",
"170 368 LINE",
"170 624 LINE",
"491 624 LINE SMOOTH",
"507 624 OFFCURVE",
"516 632 OFFCURVE",
"516 649 CURVE SMOOTH",
"516 675 LINE SMOOTH",
"516 692 OFFCURVE",
"507 700 OFFCURVE",
"491 700 CURVE SMOOTH"
);
}
);
width = 575;
},
{
hints = (
{
horizontal = 1;
place = "{21.5, -21.5}";
type = Stem;
},
{
horizontal = 1;
origin = "{0, 12}";
target = "{0, 21}";
type = TTStem;
},
{
horizontal = 1;
origin = "{0, 0}";
target = "{0, 22}";
type = TTStem;
}
);
layerId = "FB732A47-0020-4E5B-B7FA-72B1D79E8828";
paths = (
{
closed = 1;
nodes = (
"110 720 LINE",
"89.858 720 OFFCURVE",
"75 705.142 OFFCURVE",
"75 685 CURVE",
"75 35 LINE",
"75 14.858 OFFCURVE",
"89.858 0 OFFCURVE",
"110 0 CURVE",
"145 0 LINE",
"166.491 0 OFFCURVE",
"180 15.198 OFFCURVE",
"180 35 CURVE",
"180 292 LINE",
"469 292 LINE",
"488.802 292 OFFCURVE",
"504 305.509 OFFCURVE",
"504 326 CURVE",
"504 353 LINE",
"504 373.142 OFFCURVE",
"489.142 388 OFFCURVE",
"469 388 CURVE",
"180 388 LINE",
"180 624 LINE",
"491 624 LINE",
"510.802 624 OFFCURVE",
"526 637.509 OFFCURVE",
"526 659 CURVE",
"526 685 LINE",
"526 706.491 OFFCURVE",
"510.802 720 OFFCURVE",
"491 720 CURVE"
);
}
);
width = 575;
},
{
layerId = "8A9476DE-11F4-4864-A7B4-14D9B7165FAE";
paths = (
{
closed = 1;
nodes = (
"181 700 LINE",
"165 700 OFFCURVE",
"155 691 OFFCURVE",
"152 675 CURVE SMOOTH",
"49 25 LINE SMOOTH",
"47 9 OFFCURVE",
"54 0 OFFCURVE",
"70 0 CURVE SMOOTH",
"105 0 LINE SMOOTH",
"122 0 OFFCURVE",
"132 9 OFFCURVE",
"134 25 CURVE SMOOTH",
"177 292 LINE",
"476 292 LINE SMOOTH",
"492 292 OFFCURVE",
"502 300 OFFCURVE",
"504 316 CURVE SMOOTH",
"509 343 LINE SMOOTH",
"511 359 OFFCURVE",
"504 368 OFFCURVE",
"488 368 CURVE SMOOTH",
"189 368 LINE",
"229 624 LINE",
"550 624 LINE SMOOTH",
"566 624 OFFCURVE",
"577 632 OFFCURVE",
"579 649 CURVE SMOOTH",
"583 675 LINE SMOOTH",
"586 692 OFFCURVE",
"578 700 OFFCURVE",
"562 700 CURVE"
);
}
);
width = 575;
},
{
layerId = "C492240F-DFB2-48B7-8D1C-81E7E6E3599E";
paths = (
{
closed = 1;
nodes = (
"184 720 LINE",
"164 720 OFFCURVE",
"147 705 OFFCURVE",
"144 685 CURVE",
"41 35 LINE",
"38 15 OFFCURVE",
"50 0 OFFCURVE",
"70 0 CURVE",
"105 0 LINE",
"127 0 OFFCURVE",
"143 15 OFFCURVE",
"146 35 CURVE",
"187 292 LINE",
"476 292 LINE",
"495 292 OFFCURVE",
"513 306 OFFCURVE",
"516 326 CURVE",
"520 353 LINE",
"524 373 OFFCURVE",
"511 388 OFFCURVE",
"491 388 CURVE",
"202 388 LINE",
"239 624 LINE",
"550 624 LINE",
"570 624 OFFCURVE",
"587 638 OFFCURVE",
"591 659 CURVE",
"595 685 LINE",
"598 706 OFFCURVE",
"585 720 OFFCURVE",
"565 720 CURVE"
);
}
);
width = 575;
}
);
unicode = 0046;
},
{
glyphname = G;
lastChange = "2019-04-26 18:47:52 +0000";
layers = (
{
anchors = (
{
name = bottom;
position = "{328, 0}";
},
{
name = top;
position = "{288, 700}";
}
);
hints = (
{
horizontal = 1;
origin = "{0, 12}";
target = "{0, 39}";
type = Stem;
},
{
horizontal = 1;
origin = "{0, 0}";
target = "{0, 7}";
type = Stem;
},
{
horizontal = 1;
origin = "{0, 32}";
target = "{0, 19}";
type = Stem;
},
{
origin = "{0, 36}";
target = "{0, 15}";
type = Stem;
},
{
origin = "{0, 9}";
target = "{0, 45}";
type = Stem;
},
{
horizontal = 1;
origin = "{0, 39}";
target = "{0, 12}";
type = TTStem;
options = 4;
},
{
horizontal = 1;
origin = "{0, 7}";
target = "{0, 0}";
type = TTStem;
options = 4;
},
{
horizontal = 1;
origin = "{0, 32}";
target = "{0, 19}";
type = TTStem;
options = 4;
}
);
layerId = "A14B1AE3-86D5-4EA7-AE2F-7B4FA04DAB2E";
paths = (
{
closed = 1;
nodes = (
"343 399 LINE SMOOTH",
"327 399 OFFCURVE",
"318 390 OFFCURVE",
"318 373 CURVE SMOOTH",
"318 347 LINE SMOOTH",
"318 331 OFFCURVE",
"326 322 OFFCURVE",
"343 322 CURVE SMOOTH",
"415 322 LINE",
"415 80 LINE",
"386 72 OFFCURVE",
"360 68 OFFCURVE",
"338 68 CURVE SMOOTH",
"259 68 OFFCURVE",
"171 114 OFFCURVE",
"171 310 CURVE SMOOTH",
"171 390 LINE SMOOTH",
"171 586 OFFCURVE",
"259 632 OFFCURVE",
"338 632 CURVE SMOOTH",
"369 632 OFFCURVE",
"405 625 OFFCURVE",
"449 609 CURVE SMOOTH",
"464 603 OFFCURVE",
"475 608 OFFCURVE",
"481 623 CURVE SMOOTH",
"491 647 LINE SMOOTH",
"497 662 OFFCURVE",
"493 674 OFFCURVE",
"478 680 CURVE SMOOTH",
"431 700 OFFCURVE",
"385 710 OFFCURVE",
"340 710 CURVE SMOOTH",
"222 710 OFFCURVE",
"85 640 OFFCURVE",
"85 390 CURVE SMOOTH",
"85 310 LINE SMOOTH",
"85 60 OFFCURVE",
"222 -10 OFFCURVE",
"340 -10 CURVE SMOOTH",
"385 -10 OFFCURVE",
"432 0 OFFCURVE",
"481 21 CURVE SMOOTH",
"494 27 OFFCURVE",
"500 37 OFFCURVE",
"500 51 CURVE SMOOTH",
"500 374 LINE SMOOTH",
"500 390 OFFCURVE",
"491 399 OFFCURVE",
"475 399 CURVE SMOOTH"
);
}
);
width = 575;
},
{
anchors = (
{
name = bottom;
position = "{288, 0}";
},
{
name = top;
position = "{288, 700}";
}
);
hints = (
{
horizontal = 1;
origin = "{0, 39}";
target = "{0, 12}";
type = TTStem;
},
{
horizontal = 1;
origin = "{0, 7}";
target = "{0, 0}";
type = TTStem;
},
{
horizontal = 1;
origin = "{0, 32}";
target = "{0, 19}";
type = TTStem;
},
{
horizontal = 1;
origin = "{0, 12}";
target = "{0, 39}";
type = Stem;
},
{
horizontal = 1;
origin = "{0, 0}";
target = "{0, 7}";
type = Stem;
},
{
horizontal = 1;
origin = "{0, 32}";
target = "{0, 19}";
type = Stem;
},
{
origin = "{0, 36}";
target = "{0, 15}";
type = Stem;
},
{
origin = "{0, 9}";
target = "{0, 45}";
type = Stem;
}
);
layerId = "FB732A47-0020-4E5B-B7FA-72B1D79E8828";
paths = (
{
closed = 1;
nodes = (
"343 409 LINE SMOOTH",
"321 409 OFFCURVE",
"308 395 OFFCURVE",
"308 373 CURVE SMOOTH",
"308 347 LINE SMOOTH",
"308 325 OFFCURVE",
"321 312 OFFCURVE",
"343 312 CURVE SMOOTH",
"405 312 LINE",
"405 88 LINE",
"380 81 OFFCURVE",
"358 78 OFFCURVE",
"338 78 CURVE SMOOTH",
"235 78 OFFCURVE",
"181 158 OFFCURVE",
"181 310 CURVE SMOOTH",
"181 400 LINE SMOOTH",
"181 552 OFFCURVE",
"235 632 OFFCURVE",
"338 632 CURVE SMOOTH",
"369 632 OFFCURVE",
"404 625 OFFCURVE",
"446 610 CURVE SMOOTH",
"465 602 OFFCURVE",
"482 609 OFFCURVE",
"490 629 CURVE SMOOTH",
"500 653 LINE SMOOTH",
"508 674 OFFCURVE",
"501 691 OFFCURVE",
"482 699 CURVE SMOOTH",
"434 720 OFFCURVE",
"387 730 OFFCURVE",
"340 730 CURVE SMOOTH",
"174 730 OFFCURVE",
"75 608 OFFCURVE",
"75 400 CURVE SMOOTH",
"75 310 LINE SMOOTH",
"75 102 OFFCURVE",
"174 -20 OFFCURVE",
"340 -20 CURVE SMOOTH",
"387 -20 OFFCURVE",
"436 -9 OFFCURVE",
"485 12 CURVE SMOOTH",
"501 19 OFFCURVE",
"510 33 OFFCURVE",
"510 51 CURVE SMOOTH",
"510 374 LINE SMOOTH",
"510 395 OFFCURVE",
"496 409 OFFCURVE",
"475 409 CURVE SMOOTH"
);
}
);
width = 575;
},
{
anchors = (
{
name = bottom;
position = "{248, 0}";
},
{
name = top;
position = "{359, 700}";
}
);
hints = (
{
horizontal = 1;
origin = "{0, 12}";
target = "{0, 43}";
type = Stem;
},
{
horizontal = 1;
origin = "{0, 0}";
target = "{0, 7}";
type = Stem;
},
{
horizontal = 1;
origin = "{0, 34}";
target = "{0, 21}";
type = Stem;
}
);
layerId = "8A9476DE-11F4-4864-A7B4-14D9B7165FAE";
paths = (
{
closed = 1;
nodes = (
"365 389 LINE SMOOTH",
"349 389 OFFCURVE",
"339 380 OFFCURVE",
"336 363 CURVE SMOOTH",
"332 337 LINE SMOOTH",
"329 321 OFFCURVE",
"336 312 OFFCURVE",
"353 312 CURVE SMOOTH",
"425 312 LINE",
"386 70 LINE",
"356 62 OFFCURVE",
"330 58 OFFCURVE",
"308 58 CURVE SMOOTH",
"241 58 OFFCURVE",
"172 91 OFFCURVE",
"172 217 CURVE SMOOTH",
"172 253 OFFCURVE",
"176 286 OFFCURVE",
"193 390 CURVE SMOOTH",
"224 586 OFFCURVE",
"320 632 OFFCURVE",
"399 632 CURVE SMOOTH",
"430 632 OFFCURVE",
"464 625 OFFCURVE",
"506 609 CURVE SMOOTH",
"520 603 OFFCURVE",
"532 608 OFFCURVE",
"540 623 CURVE SMOOTH",
"554 647 LINE SMOOTH",
"562 662 OFFCURVE",
"560 674 OFFCURVE",
"546 680 CURVE SMOOTH",
"502 700 OFFCURVE",
"458 710 OFFCURVE",
"413 710 CURVE SMOOTH",
"295 710 OFFCURVE",
"147 640 OFFCURVE",
"107 390 CURVE SMOOTH",
"90 280 OFFCURVE",
"85 246 OFFCURVE",
"85 206 CURVE SMOOTH",
"85 33 OFFCURVE",
"194 -20 OFFCURVE",
"297 -20 CURVE SMOOTH",
"342 -20 OFFCURVE",
"391 -10 OFFCURVE",
"443 11 CURVE SMOOTH",
"457 17 OFFCURVE",
"465 27 OFFCURVE",
"467 41 CURVE SMOOTH",
"518 364 LINE SMOOTH",
"521 380 OFFCURVE",
"513 389 OFFCURVE",
"497 389 CURVE SMOOTH"
);
}
);
width = 575;
},
{
anchors = (
{
name = bottom;
position = "{247, 0}";
},
{
name = top;
position = "{358, 700}";
}
);
hints = (
{
horizontal = 1;
origin = "{0, 12}";
target = "{0, 43}";
type = Stem;
},
{
horizontal = 1;
origin = "{0, 0}";
target = "{0, 7}";
type = Stem;
},
{
horizontal = 1;
origin = "{0, 34}";
target = "{0, 21}";
type = Stem;
}
);
layerId = "C492240F-DFB2-48B7-8D1C-81E7E6E3599E";
paths = (
{
closed = 1;
nodes = (
"367 409 LINE SMOOTH",
"345 409 OFFCURVE",
"329 395 OFFCURVE",
"326 373 CURVE SMOOTH",
"322 347 LINE SMOOTH",
"318 325 OFFCURVE",
"329 312 OFFCURVE",
"351 312 CURVE SMOOTH",
"413 312 LINE",
"378 88 LINE",
"352 81 OFFCURVE",
"329 78 OFFCURVE",
"309 78 CURVE SMOOTH",
"225 78 OFFCURVE",
"182 131 OFFCURVE",
"182 228 CURVE SMOOTH",
"182 263 OFFCURVE",
"185 282 OFFCURVE",
"203 400 CURVE SMOOTH",
"227 552 OFFCURVE",
"294 632 OFFCURVE",
"397 632 CURVE SMOOTH",
"428 632 OFFCURVE",
"462 625 OFFCURVE",
"501 610 CURVE SMOOTH",
"519 602 OFFCURVE",
"537 609 OFFCURVE",
"548 629 CURVE SMOOTH",
"562 653 LINE SMOOTH",
"574 674 OFFCURVE",
"569 691 OFFCURVE",
"552 699 CURVE SMOOTH",
"507 720 OFFCURVE",
"461 730 OFFCURVE",
"414 730 CURVE SMOOTH",
"248 730 OFFCURVE",
"130 608 OFFCURVE",
"97 400 CURVE SMOOTH",
"81 296 OFFCURVE",
"76 264 OFFCURVE",
"76 218 CURVE SMOOTH",
"76 68 OFFCURVE",
"155 -20 OFFCURVE",
"296 -20 CURVE SMOOTH",
"343 -20 OFFCURVE",
"393 -9 OFFCURVE",
"446 12 CURVE SMOOTH",
"463 19 OFFCURVE",
"474 33 OFFCURVE",
"477 51 CURVE SMOOTH",
"528 374 LINE SMOOTH",
"531 395 OFFCURVE",
"520 409 OFFCURVE",
"499 409 CURVE SMOOTH"
);
}
);
width = 575;
},
{
anchors = (
{
name = bottom;
position = "{288, 0}";
},
{
name = top;
position = "{288, 700}";
}
);
associatedMasterId = "A14B1AE3-86D5-4EA7-AE2F-7B4FA04DAB2E";
layerId = "7CEC482E-CEEB-449C-87C9-6A1C6A72855B";
name = "Regular Jan 11 15, 19:29";
paths = (
{
closed = 1;
nodes = (
"85 330 LINE SMOOTH",
"85 178 OFFCURVE",
"100 -10 OFFCURVE",
"351 -10 CURVE SMOOTH",
"390 -10 OFFCURVE",
"439 -6 OFFCURVE",
"489 3 CURVE SMOOTH",
"504 5 OFFCURVE",
"512 14 OFFCURVE",
"512 30 CURVE SMOOTH",
"512 364 LINE SMOOTH",
"512 380 OFFCURVE",
"503 389 OFFCURVE",
"487 389 CURVE SMOOTH",
"355 389 LINE SMOOTH",
"339 389 OFFCURVE",
"330 380 OFFCURVE",
"330 363 CURVE SMOOTH",
"330 337 LINE SMOOTH",
"330 321 OFFCURVE",
"338 312 OFFCURVE",
"355 312 CURVE SMOOTH",
"427 312 LINE",
"427 72 LINE",
"385 68 OFFCURVE",
"372 67 OFFCURVE",
"351 67 CURVE SMOOTH",
"214 67 OFFCURVE",
"170 130 OFFCURVE",
"170 298 CURVE SMOOTH",
"170 403 LINE SMOOTH",
"170 520 OFFCURVE",
"179 634 OFFCURVE",
"351 634 CURVE SMOOTH",
"376 634 OFFCURVE",
"426 632 OFFCURVE",
"468 624 CURVE SMOOTH",
"484 621 OFFCURVE",
"494 627 OFFCURVE",
"498 643 CURVE SMOOTH",
"504 669 LINE SMOOTH",
"507 685 OFFCURVE",
"501 696 OFFCURVE",
"484 699 CURVE SMOOTH",
"438 708 OFFCURVE",
"384 710 OFFCURVE",
"351 710 CURVE SMOOTH",
"99 710 OFFCURVE",
"85 524 OFFCURVE",
"85 370 CURVE SMOOTH"
);
}
);
width = 575;
}
);
unicode = 0047;
},
{
glyphname = H;
lastChange = "2016-06-09 18:35:33 +0000";
layers = (
{
anchors = (
{
name = bottom;
position = "{288, 0}";
},
{
name = center;
position = "{288, 350}";
},
{
name = top;
position = "{288, 700}";
},
{
name = topleft;
position = "{20, 700}";
}
);
hints = (
{
horizontal = 1;
place = "{0, 0}";
type = Stem;
},
{
horizontal = 1;
place = "{0, 0}";
type = Stem;
},
{
horizontal = 1;
origin = "{0, 10}";
target = down;
type = TopGhost;
},
{
horizontal = 1;
origin = "{0, 22}";
target = "{0, 5}";
type = Stem;
},
{
origin = "{0, 13}";
target = "{0, 6}";
type = Stem;
},
{
origin = "{0, 3}";
target = "{0, 32}";
type = Stem;
},
{
horizontal = 1;
origin = "{0, 22}";
target = "{0, 5}";
type = Align;
},
{
horizontal = 1;
origin = "{0, 9}";
type = Anchor;
},
{
horizontal = 1;
origin = "{0, 0}";
type = Anchor;
},
{
horizontal = 1;
origin = "{0, 18}";
type = Anchor;
},
{
horizontal = 1;
origin = "{0, 27}";
type = Anchor;
}
);
layerId = "A14B1AE3-86D5-4EA7-AE2F-7B4FA04DAB2E";
paths = (
{
closed = 1;
nodes = (
"447 700 LINE SMOOTH",
"431 700 OFFCURVE",
"422 692 OFFCURVE",
"422 675 CURVE SMOOTH",
"422 410 LINE",
"153 410 LINE",
"153 675 LINE SMOOTH",
"153 692 OFFCURVE",
"145 700 OFFCURVE",
"128 700 CURVE SMOOTH",
"93 700 LINE SMOOTH",
"77 700 OFFCURVE",
"68 691 OFFCURVE",
"68 675 CURVE SMOOTH",
"68 25 LINE SMOOTH",
"68 9 OFFCURVE",
"77 0 OFFCURVE",
"93 0 CURVE SMOOTH",
"128 0 LINE SMOOTH",
"145 0 OFFCURVE",
"153 9 OFFCURVE",
"153 25 CURVE SMOOTH",
"153 333 LINE",
"422 333 LINE",
"422 25 LINE SMOOTH",
"422 9 OFFCURVE",
"431 0 OFFCURVE",
"447 0 CURVE SMOOTH",
"482 0 LINE SMOOTH",
"499 0 OFFCURVE",
"507 9 OFFCURVE",
"507 25 CURVE SMOOTH",
"507 675 LINE SMOOTH",
"507 692 OFFCURVE",
"498 700 OFFCURVE",
"482 700 CURVE SMOOTH"
);
}
);
width = 575;
},
{
anchors = (
{
name = bottom;
position = "{288, 0}";
},
{
name = center;
position = "{288, 350}";
},
{
name = top;
position = "{288, 700}";
},
{
name = topleft;
position = "{20, 720}";
}
);
hints = (
{
horizontal = 1;
place = "{21.5, -21.5}";
type = Stem;
},
{
horizontal = 1;
origin = "{0, 22}";
target = "{0, 5}";
type = TTStem;
},
{
horizontal = 1;
origin = "{0, 9}";
type = Anchor;
},
{
horizontal = 1;
origin = "{0, 35}";
type = Anchor;
},
{
horizontal = 1;
origin = "{0, 18}";
type = Anchor;
},
{
horizontal = 1;
origin = "{0, 28}";
type = Anchor;
}
);
layerId = "FB732A47-0020-4E5B-B7FA-72B1D79E8828";
paths = (
{
closed = 1;
nodes = (
"447 720 LINE",
"427.198 720 OFFCURVE",
"412 706.491 OFFCURVE",
"412 685 CURVE",
"412 430 LINE",
"163 430 LINE",
"163 685 LINE",
"163 706.142 OFFCURVE",
"149.142 720 OFFCURVE",
"128 720 CURVE",
"93 720 LINE",
"72.858 720 OFFCURVE",
"58 705.142 OFFCURVE",
"58 685 CURVE",
"58 35 LINE",
"58 14.858 OFFCURVE",
"72.858 0 OFFCURVE",
"93 0 CURVE",
"128 0 LINE",
"149.491 0 OFFCURVE",
"163 15.198 OFFCURVE",
"163 35 CURVE",
"163 333 LINE",
"412 333 LINE",
"412 35 LINE",
"412 14.858 OFFCURVE",
"426.858 0 OFFCURVE",
"447 0 CURVE",
"482 0 LINE",
"503.491 0 OFFCURVE",
"517 15.198 OFFCURVE",
"517 35 CURVE",
"517 685 LINE",
"517 706.491 OFFCURVE",
"501.802 720 OFFCURVE",
"482 720 CURVE"
);
}
);
width = 575;
},
{
anchors = (
{
name = bottom;
position = "{248, 0}";
},
{
name = center;
position = "{304, 350}";
},
{
name = top;
position = "{359, 700}";
},
{
name = topleft;
position = "{91, 700}";
}
);
layerId = "8A9476DE-11F4-4864-A7B4-14D9B7165FAE";
paths = (
{
closed = 1;
nodes = (
"518 700 LINE SMOOTH",
"502 700 OFFCURVE",
"492 692 OFFCURVE",
"489 675 CURVE SMOOTH",
"447 410 LINE",
"178 410 LINE",
"220 675 LINE SMOOTH",
"223 692 OFFCURVE",
"216 700 OFFCURVE",
"199 700 CURVE SMOOTH",
"164 700 LINE SMOOTH",
"148 700 OFFCURVE",
"138 691 OFFCURVE",
"135 675 CURVE SMOOTH",
"32 25 LINE",
"30 9 OFFCURVE",
"37 0 OFFCURVE",
"53 0 CURVE SMOOTH",
"88 0 LINE SMOOTH",
"105 0 OFFCURVE",
"115 9 OFFCURVE",
"117 25 CURVE SMOOTH",
"166 333 LINE",
"435 333 LINE",
"386 25 LINE SMOOTH",
"384 9 OFFCURVE",
"391 0 OFFCURVE",
"407 0 CURVE SMOOTH",
"442 0 LINE SMOOTH",
"459 0 OFFCURVE",
"469 9 OFFCURVE",
"471 25 CURVE SMOOTH",
"574 675 LINE SMOOTH",
"577 692 OFFCURVE",
"569 700 OFFCURVE",
"553 700 CURVE SMOOTH"
);
}
);
width = 575;
},
{
anchors = (
{
name = bottom;
position = "{247, 0}";
},
{
name = center;
position = "{304, 360}";
},
{
name = top;
position = "{361, 720}";
},
{
name = topleft;
position = "{93, 720}";
}
);
layerId = "C492240F-DFB2-48B7-8D1C-81E7E6E3599E";
paths = (
{
closed = 1;
nodes = (
"521 720 LINE",
"502 720 OFFCURVE",
"484 706 OFFCURVE",
"481 685 CURVE",
"441 430 LINE",
"192 430 LINE",
"232 685 LINE",
"235 706 OFFCURVE",
"224 720 OFFCURVE",
"202 720 CURVE",
"167 720 LINE",
"147 720 OFFCURVE",
"130 705 OFFCURVE",
"127 685 CURVE",
"24 35 LINE",
"21 15 OFFCURVE",
"33 0 OFFCURVE",
"53 0 CURVE",
"88 0 LINE",
"110 0 OFFCURVE",
"126 15 OFFCURVE",
"129 35 CURVE",
"176 333 LINE",
"425 333 LINE",
"378 35 LINE",
"375 15 OFFCURVE",
"387 0 OFFCURVE",
"407 0 CURVE",
"442 0 LINE",
"464 0 OFFCURVE",
"480 15 OFFCURVE",
"483 35 CURVE",
"586 685 LINE",
"589 706 OFFCURVE",
"576 720 OFFCURVE",
"556 720 CURVE"
);
}
);
width = 575;
}
);
unicode = 0048;
},
{
glyphname = I;
lastChange = "2016-06-09 18:35:33 +0000";
layers = (
{
anchors = (
{
name = bottom;
position = "{288, 0}";
},
{
name = ogonek;
position = "{518, 5}";
},
{
name = top;
position = "{288, 700}";
},
{
name = topleft;
position = "{20, 700}";
}
);
hints = (
{
horizontal = 1;
place = "{0, 7699}";
type = Stem;
},
{
horizontal = 1;
origin = "{0, 0}";
target = "{0, 7}";
type = TTStem;
}
);
layerId = "A14B1AE3-86D5-4EA7-AE2F-7B4FA04DAB2E";
paths = (
{
closed = 1;
nodes = (
"120 700 LINE SMOOTH",
"104 700 OFFCURVE",
"95 692 OFFCURVE",
"95 675 CURVE SMOOTH",
"95 649 LINE SMOOTH",
"95 633 OFFCURVE",
"104 624 OFFCURVE",
"120 624 CURVE SMOOTH",
"245 624 LINE",
"245 77 LINE",
"110 77 LINE SMOOTH",
"94 77 OFFCURVE",
"85 68 OFFCURVE",
"85 52 CURVE SMOOTH",
"85 25 LINE SMOOTH",
"85 9 OFFCURVE",
"94 0 OFFCURVE",
"110 0 CURVE SMOOTH",
"465 0 LINE SMOOTH",
"482 0 OFFCURVE",
"490 9 OFFCURVE",
"490 25 CURVE SMOOTH",
"490 52 LINE SMOOTH",
"490 68 OFFCURVE",
"482 77 OFFCURVE",
"465 77 CURVE SMOOTH",
"330 77 LINE",
"330 624 LINE",
"455 624 LINE SMOOTH",
"471 624 OFFCURVE",
"480 632 OFFCURVE",
"480 649 CURVE SMOOTH",
"480 675 LINE SMOOTH",
"480 692 OFFCURVE",
"471 700 OFFCURVE",
"455 700 CURVE SMOOTH"
);
}
);
width = 575;
},
{
anchors = (
{
name = bottom;
position = "{288, 0}";
},
{
name = ogonek;
position = "{518, 5}";
},
{
name = top;
position = "{288, 700}";
},
{
name = topleft;
position = "{20, 720}";
}
);
hints = (
{
horizontal = 1;
place = "{0, 9699}";
type = Stem;
},
{
horizontal = 1;
origin = "{0, 0}";
target = "{0, 7}";
type = TTStem;
},
{
horizontal = 1;
origin = "{0, 18}";
target = "{0, 26}";
type = Align;
}
);
layerId = "FB732A47-0020-4E5B-B7FA-72B1D79E8828";
paths = (
{
closed = 1;
nodes = (
"120 720 LINE",
"100.198 720 OFFCURVE",
"85 706.491 OFFCURVE",
"85 685 CURVE",
"85 659 LINE",
"85 638.858 OFFCURVE",
"99.858 624 OFFCURVE",
"120 624 CURVE",
"235 624 LINE",
"235 97 LINE",
"110 97 LINE",
"89.858 97 OFFCURVE",
"75 82.142 OFFCURVE",
"75 62 CURVE",
"75 35 LINE",
"75 14.858 OFFCURVE",
"89.858 0 OFFCURVE",
"110 0 CURVE",
"465 0 LINE",
"486.491 0 OFFCURVE",
"500 15.198 OFFCURVE",
"500 35 CURVE",
"500 62 LINE",
"500 81.802 OFFCURVE",
"486.491 97 OFFCURVE",
"465 97 CURVE",
"340 97 LINE",
"340 624 LINE",
"455 624 LINE",
"474.802 624 OFFCURVE",
"490 637.509 OFFCURVE",
"490 659 CURVE",
"490 685 LINE",
"490 706.491 OFFCURVE",
"474.802 720 OFFCURVE",
"455 720 CURVE"
);
}
);
width = 575;
},
{
anchors = (
{
name = bottom;
position = "{248, 0}";
},
{
name = ogonek;
position = "{477, 10}";
},
{
name = top;
position = "{359, 700}";
},
{
name = topleft;
position = "{91, 700}";
}
);
layerId = "8A9476DE-11F4-4864-A7B4-14D9B7165FAE";
paths = (
{
closed = 1;
nodes = (
"191 700 LINE SMOOTH",
"175 700 OFFCURVE",
"165 692 OFFCURVE",
"162 675 CURVE SMOOTH",
"158 649 LINE SMOOTH",
"156 633 OFFCURVE",
"163 624 OFFCURVE",
"179 624 CURVE SMOOTH",
"304 624 LINE",
"218 77 LINE",
"83 77 LINE SMOOTH",
"67 77 OFFCURVE",
"56 68 OFFCURVE",
"54 52 CURVE SMOOTH",
"49 25 LINE SMOOTH",
"47 9 OFFCURVE",
"54 0 OFFCURVE",
"70 0 CURVE SMOOTH",
"425 0 LINE SMOOTH",
"442 0 OFFCURVE",
"452 9 OFFCURVE",
"454 25 CURVE SMOOTH",
"459 52 LINE SMOOTH",
"461 68 OFFCURVE",
"455 77 OFFCURVE",
"438 77 CURVE SMOOTH",
"303 77 LINE",
"389 624 LINE",
"514 624 LINE SMOOTH",
"530 624 OFFCURVE",
"541 632 OFFCURVE",
"543 649 CURVE SMOOTH",
"547 675 LINE SMOOTH",
"550 692 OFFCURVE",
"542 700 OFFCURVE",
"526 700 CURVE SMOOTH"
);
}
);
width = 575;
},
{
anchors = (
{
name = bottom;
position = "{247, 0}";
},
{
name = ogonek;
position = "{476, 10}";
},
{
name = top;
position = "{361, 720}";
},
{
name = topleft;
position = "{93, 720}";
}
);
layerId = "C492240F-DFB2-48B7-8D1C-81E7E6E3599E";
paths = (
{
closed = 1;
nodes = (
"194 720 LINE",
"175 720 OFFCURVE",
"157 706 OFFCURVE",
"154 685 CURVE",
"150 659 LINE",
"147 639 OFFCURVE",
"159 624 OFFCURVE",
"179 624 CURVE",
"294 624 LINE",
"211 97 LINE",
"86 97 LINE",
"66 97 OFFCURVE",
"48 82 OFFCURVE",
"45 62 CURVE",
"41 35 LINE",
"38 15 OFFCURVE",
"50 0 OFFCURVE",
"70 0 CURVE",
"425 0 LINE",
"447 0 OFFCURVE",
"463 15 OFFCURVE",
"466 35 CURVE",
"470 62 LINE",
"473 82 OFFCURVE",
"462 97 OFFCURVE",
"441 97 CURVE",
"316 97 LINE",
"399 624 LINE",
"514 624 LINE",
"534 624 OFFCURVE",
"551 638 OFFCURVE",
"555 659 CURVE",
"559 685 LINE",
"562 706 OFFCURVE",
"549 720 OFFCURVE",
"529 720 CURVE"
);
}
);
width = 575;
}
);
unicode = 0049;
},
{
glyphname = IJ;
lastChange = "2016-06-09 18:35:33 +0000";
layers = (
{
hints = (
{
horizontal = 1;
place = "{0, 7699}";
type = Stem;
},
{
horizontal = 1;
origin = "{0, 0}";
target = "{0, 7}";
type = TTStem;
},
{
horizontal = 1;
origin = "{1, 0}";
target = "{1, 8}";
type = Align;
},
{
horizontal = 1;
origin = "{0, 18}";
target = "{0, 26}";
type = Align;
},
{
horizontal = 1;
origin = "{1, 19}";
target = "{1, 12}";
type = Align;
}
);
layerId = "A14B1AE3-86D5-4EA7-AE2F-7B4FA04DAB2E";
paths = (
{
closed = 1;
nodes = (
"90 700 LINE SMOOTH",
"74 700 OFFCURVE",
"65 692 OFFCURVE",
"65 675 CURVE SMOOTH",
"65 649 LINE SMOOTH",
"65 633 OFFCURVE",
"74 624 OFFCURVE",
"90 624 CURVE SMOOTH",
"115 624 LINE",
"115 77 LINE",
"80 77 LINE SMOOTH",
"64 77 OFFCURVE",
"55 68 OFFCURVE",
"55 52 CURVE SMOOTH",
"55 25 LINE SMOOTH",
"55 9 OFFCURVE",
"64 0 OFFCURVE",
"80 0 CURVE SMOOTH",
"235 0 LINE SMOOTH",
"252 0 OFFCURVE",
"260 9 OFFCURVE",
"260 25 CURVE SMOOTH",
"260 52 LINE SMOOTH",
"260 68 OFFCURVE",
"252 77 OFFCURVE",
"235 77 CURVE SMOOTH",
"200 77 LINE",
"200 624 LINE",
"225 624 LINE SMOOTH",
"241 624 OFFCURVE",
"250 632 OFFCURVE",
"250 649 CURVE SMOOTH",
"250 675 LINE SMOOTH",
"250 692 OFFCURVE",
"241 700 OFFCURVE",
"225 700 CURVE SMOOTH"
);
},
{
closed = 1;
nodes = (
"352 700 LINE SMOOTH",
"336 700 OFFCURVE",
"327 691 OFFCURVE",
"327 675 CURVE SMOOTH",
"327 649 LINE SMOOTH",
"327 632 OFFCURVE",
"336 624 OFFCURVE",
"352 624 CURVE SMOOTH",
"405 624 LINE",
"405 125 LINE SMOOTH",
"405 86 OFFCURVE",
"377 77 OFFCURVE",
"340 77 CURVE SMOOTH",
"324 77 OFFCURVE",
"315 68 OFFCURVE",
"315 52 CURVE SMOOTH",
"315 25 LINE SMOOTH",
"315 9 OFFCURVE",
"324 1 OFFCURVE",
"341 1 CURVE SMOOTH",
"437 1 OFFCURVE",
"490 24 OFFCURVE",
"490 125 CURVE SMOOTH",
"490 675 LINE SMOOTH",
"490 692 OFFCURVE",
"482 700 OFFCURVE",
"465 700 CURVE SMOOTH"
);
}
);
width = 575;
},
{
hints = (
{
horizontal = 1;
place = "{0, 9699}";
type = Stem;
},
{
horizontal = 1;
origin = "{0, 0}";
target = "{0, 7}";
type = TTStem;
},
{
horizontal = 1;
origin = "{1, 0}";
target = "{1, 7}";
type = TTStem;
},
{
horizontal = 1;
origin = "{0, 17}";
target = "{0, 9}";
type = TTStem;
},
{
horizontal = 1;
origin = "{1, 19}";
target = "{1, 12}";
type = TTStem;
}
);
layerId = "FB732A47-0020-4E5B-B7FA-72B1D79E8828";
paths = (
{
closed = 1;
nodes = (
"90 720 LINE",
"70.198 720 OFFCURVE",
"55 706.491 OFFCURVE",
"55 685 CURVE",
"55 659 LINE",
"55 638.858 OFFCURVE",
"69.858 624 OFFCURVE",
"90 624 CURVE",
"105 624 LINE",
"105 97 LINE",
"80 97 LINE",
"59.858 97 OFFCURVE",
"45 82.142 OFFCURVE",
"45 62 CURVE",
"45 35 LINE",
"45 14.858 OFFCURVE",
"59.858 0 OFFCURVE",
"80 0 CURVE",
"235 0 LINE",
"256.491 0 OFFCURVE",
"270 15.198 OFFCURVE",
"270 35 CURVE",
"270 62 LINE",
"270 81.802 OFFCURVE",
"256.491 97 OFFCURVE",
"235 97 CURVE",
"210 97 LINE",
"210 624 LINE",
"225 624 LINE",
"244.802 624 OFFCURVE",
"260 637.509 OFFCURVE",
"260 659 CURVE",
"260 685 LINE",
"260 706.491 OFFCURVE",
"244.802 720 OFFCURVE",
"225 720 CURVE"
);
},
{
closed = 1;
nodes = (
"352 720 LINE",
"331.858 720 OFFCURVE",
"317 705.142 OFFCURVE",
"317 685 CURVE",
"317 659 LINE",
"317 637.509 OFFCURVE",
"332.198 624 OFFCURVE",
"352 624 CURVE",
"395 624 LINE",
"395 135 LINE",
"395 103.29 OFFCURVE",
"375.432 97 OFFCURVE",
"340 97 CURVE",
"319.858 97 OFFCURVE",
"305 82.142 OFFCURVE",
"305 62 CURVE",
"305 35 LINE",
"305 14.509 OFFCURVE",
"320.198 1 OFFCURVE",
"341 1 CURVE",
"439.076 1 OFFCURVE",
"500 27.439 OFFCURVE",
"500 135 CURVE",
"500 685 LINE",
"500 706.142 OFFCURVE",
"486.142 720 OFFCURVE",
"465 720 CURVE"
);
}
);
width = 575;
},
{
layerId = "8A9476DE-11F4-4864-A7B4-14D9B7165FAE";
paths = (
{
closed = 1;
nodes = (
"161 700 LINE SMOOTH",
"145 700 OFFCURVE",
"135 692 OFFCURVE",
"132 675 CURVE SMOOTH",
"128 649 LINE SMOOTH",
"126 633 OFFCURVE",
"133 624 OFFCURVE",
"149 624 CURVE SMOOTH",
"174 624 LINE",
"88 77 LINE",
"53 77 LINE SMOOTH",
"37 77 OFFCURVE",
"26 68 OFFCURVE",
"24 52 CURVE SMOOTH",
"19 25 LINE SMOOTH",
"17 9 OFFCURVE",
"24 0 OFFCURVE",
"40 0 CURVE SMOOTH",
"195 0 LINE SMOOTH",
"212 0 OFFCURVE",
"222 9 OFFCURVE",
"224 25 CURVE SMOOTH",
"229 52 LINE SMOOTH",
"231 68 OFFCURVE",
"225 77 OFFCURVE",
"208 77 CURVE SMOOTH",
"173 77 LINE",
"259 624 LINE",
"284 624 LINE SMOOTH",
"300 624 OFFCURVE",
"311 632 OFFCURVE",
"313 649 CURVE SMOOTH",
"317 675 LINE SMOOTH",
"320 692 OFFCURVE",
"312 700 OFFCURVE",
"296 700 CURVE SMOOTH"
);
},
{
closed = 1;
nodes = (
"423 700 LINE SMOOTH",
"407 700 OFFCURVE",
"397 691 OFFCURVE",
"394 675 CURVE SMOOTH",
"390 649 LINE SMOOTH",
"388 632 OFFCURVE",
"395 624 OFFCURVE",
"411 624 CURVE SMOOTH",
"464 624 LINE",
"385 125 LINE SMOOTH",
"379 86 OFFCURVE",
"350 77 OFFCURVE",
"313 77 CURVE SMOOTH",
"297 77 OFFCURVE",
"286 68 OFFCURVE",
"284 52 CURVE SMOOTH",
"279 25 LINE SMOOTH",
"277 9 OFFCURVE",
"285 1 OFFCURVE",
"302 1 CURVE SMOOTH",
"398 1 OFFCURVE",
"454 24 OFFCURVE",
"470 125 CURVE SMOOTH",
"557 675 LINE SMOOTH",
"560 692 OFFCURVE",
"553 700 OFFCURVE",
"536 700 CURVE SMOOTH"
);
}
);
width = 575;
},
{
layerId = "C492240F-DFB2-48B7-8D1C-81E7E6E3599E";
paths = (
{
closed = 1;
nodes = (
"164 720 LINE",
"145 720 OFFCURVE",
"127 706 OFFCURVE",
"124 685 CURVE",
"120 659 LINE",
"117 639 OFFCURVE",
"129 624 OFFCURVE",
"149 624 CURVE",
"164 624 LINE",
"81 97 LINE",
"56 97 LINE",
"36 97 OFFCURVE",
"18 82 OFFCURVE",
"15 62 CURVE",
"11 35 LINE",
"8 15 OFFCURVE",
"20 0 OFFCURVE",
"40 0 CURVE",
"195 0 LINE",
"217 0 OFFCURVE",
"233 15 OFFCURVE",
"236 35 CURVE",
"240 62 LINE",
"243 82 OFFCURVE",
"232 97 OFFCURVE",
"211 97 CURVE",
"186 97 LINE",
"269 624 LINE",
"284 624 LINE",
"304 624 OFFCURVE",
"321 638 OFFCURVE",
"325 659 CURVE",
"329 685 LINE",
"332 706 OFFCURVE",
"319 720 OFFCURVE",
"299 720 CURVE"
);
},
{
closed = 1;
nodes = (
"426 720 LINE",
"406 720 OFFCURVE",
"389 705 OFFCURVE",
"386 685 CURVE",
"382 659 LINE",
"378 638 OFFCURVE",
"391 624 OFFCURVE",
"411 624 CURVE",
"454 624 LINE",
"377 135 LINE",
"372 103 OFFCURVE",
"351 97 OFFCURVE",
"316 97 CURVE",
"296 97 OFFCURVE",
"278 82 OFFCURVE",
"275 62 CURVE",
"271 35 LINE",
"268 15 OFFCURVE",
"281 1 OFFCURVE",
"302 1 CURVE",
"400 1 OFFCURVE",
"465 27 OFFCURVE",
"482 135 CURVE",
"569 685 LINE",
"572 706 OFFCURVE",
"561 720 OFFCURVE",
"539 720 CURVE"
);
}
);
width = 575;
}
);
unicode = 0132;
},
{
glyphname = J;
lastChange = "2022-09-08 15:36:41 +0000";
layers = (
{
anchors = (
{
name = top;
position = "{288, 700}";
}
);
hints = (
{
horizontal = 1;
origin = "{0, 0}";
target = "{0, 7}";
type = TTStem;
},
{
horizontal = 1;
origin = "{0, 25}";
target = "{0, 12}";
type = Align;
},
{
horizontal = 1;
origin = "{0, 28}";
target = "{0, 9}";
type = TTStem;
options = 4;
},
{
horizontal = 1;
origin = "{0, 25}";
target = "{0, 12}";
type = Stem;
},
{
horizontal = 1;
origin = "{0, 0}";
target = "{0, 7}";
type = Stem;
},
{
origin = "{0, 9}";
target = "{0, 28}";
type = Stem;
}
);
layerId = "A14B1AE3-86D5-4EA7-AE2F-7B4FA04DAB2E";
paths = (
{
closed = 1;
nodes = (
"185 700 LINE SMOOTH",
"169 700 OFFCURVE",
"160 691 OFFCURVE",
"160 675 CURVE SMOOTH",
"160 647 LINE SMOOTH",
"160 631 OFFCURVE",
"169 622 OFFCURVE",
"185 622 CURVE SMOOTH",
"404 622 LINE",
"404 270 LINE SMOOTH",
"404 114 OFFCURVE",
"316 68 OFFCURVE",
"237 68 CURVE SMOOTH",
"206 68 OFFCURVE",
"170 75 OFFCURVE",
"126 91 CURVE SMOOTH",
"111 97 OFFCURVE",
"100 92 OFFCURVE",
"94 77 CURVE SMOOTH",
"84 53 LINE SMOOTH",
"78 38 OFFCURVE",
"82 26 OFFCURVE",
"97 20 CURVE SMOOTH",
"144 0 OFFCURVE",
"196 -10 OFFCURVE",
"243 -10 CURVE SMOOTH",
"368 -10 OFFCURVE",
"490 60 OFFCURVE",
"490 270 CURVE SMOOTH",
"490 675 LINE SMOOTH",
"490 691 OFFCURVE",
"481 700 OFFCURVE",
"465 700 CURVE SMOOTH"
);
}
);
width = 575;
},
{
anchors = (
{
name = top;
position = "{288, 700}";
}
);
hints = (
{
horizontal = 1;
origin = "{0, 0}";
target = "{0, 7}";
type = TTStem;
},
{
horizontal = 1;
origin = "{0, 25}";
target = "{0, 12}";
type = TTStem;
},
{
horizontal = 1;
origin = "{0, 25}";
target = "{0, 12}";
type = Stem;
},
{
horizontal = 1;
origin = "{0, 0}";
target = "{0, 7}";
type = Stem;
},
{
origin = "{0, 9}";
target = "{0, 28}";
type = Stem;
}
);
layerId = "FB732A47-0020-4E5B-B7FA-72B1D79E8828";
paths = (
{
closed = 1;
nodes = (
"185 720 LINE",
"164.858 720 OFFCURVE",
"150 705.142 OFFCURVE",
"150 685 CURVE",
"150 657 LINE",
"150 636.858 OFFCURVE",
"164.858 622 OFFCURVE",
"185 622 CURVE",
"394 622 LINE",
"394 280 LINE",
"394 131.335 OFFCURVE",
"330.89 88 OFFCURVE",
"247 88 CURVE",
"206.963 88 OFFCURVE",
"172.679 94.666 OFFCURVE",
"129.417 110.398 CURVE",
"110.749 117.871 OFFCURVE",
"92.207 109.442 OFFCURVE",
"84.715 90.714 CURVE",
"74.769 66.846 LINE",
"67.355 48.313 OFFCURVE",
"73.98 28.438 OFFCURVE",
"93.286 20.715 CURVE",
"141.065 0.381 OFFCURVE",
"195.047 -10 OFFCURVE",
"247 -10 CURVE",
"375.763 -10 OFFCURVE",
"500 64.33 OFFCURVE",
"500 280 CURVE",
"500 685 LINE",
"500 705.142 OFFCURVE",
"485.142 720 OFFCURVE",
"465 720 CURVE"
);
}
);
width = 575;
},
{
anchors = (
{
name = bottom;
position = "{248, 0}";
},
{
name = top;
position = "{359, 700}";
}
);
background = {
paths = (
{
closed = 1;
nodes = (
"256 700 LINE SMOOTH",
"240 700 OFFCURVE",
"230 691 OFFCURVE",
"227 675 CURVE SMOOTH",
"223 647 LINE SMOOTH",
"220 631 OFFCURVE",
"228 622 OFFCURVE",
"244 622 CURVE SMOOTH",
"463 622 LINE",
"407 270 LINE SMOOTH",
"382 114 OFFCURVE",
"287 68 OFFCURVE",
"208 68 CURVE SMOOTH",
"177 68 OFFCURVE",
"142 75 OFFCURVE",
"101 91 CURVE SMOOTH",
"87 97 OFFCURVE",
"75 92 OFFCURVE",
"67 77 CURVE SMOOTH",
"53 53 LINE SMOOTH",
"44 38 OFFCURVE",
"47 26 OFFCURVE",
"61 20 CURVE SMOOTH",
"104 0 OFFCURVE",
"155 -10 OFFCURVE",
"202 -10 CURVE SMOOTH",
"327 -10 OFFCURVE",
"460 60 OFFCURVE",
"493 270 CURVE SMOOTH",
"557 675 LINE SMOOTH",
"560 691 OFFCURVE",
"552 700 OFFCURVE",
"536 700 CURVE SMOOTH"
);
}
);
};
layerId = "8A9476DE-11F4-4864-A7B4-14D9B7165FAE";
paths = (
{
closed = 1;
nodes = (
"268 700 LINE SMOOTH",
"252 700 OFFCURVE",
"242 691 OFFCURVE",
"239 675 CURVE SMOOTH",
"235 649 LINE SMOOTH",
"233 632 OFFCURVE",
"240 624 OFFCURVE",
"256 624 CURVE SMOOTH",
"464 624 LINE",
"409 275 LINE SMOOTH",
"390 153 OFFCURVE",
"332 67 OFFCURVE",
"176 67 CURVE SMOOTH",
"155 67 OFFCURVE",
"112 69 OFFCURVE",
"67 78 CURVE SMOOTH",
"51 81 OFFCURVE",
"39 75 OFFCURVE",
"33 59 CURVE SMOOTH",
"22 33 LINE SMOOTH",
"15 17 OFFCURVE",
"20 6 OFFCURVE",
"36 3 CURVE SMOOTH",
"88 -8 OFFCURVE",
"134 -10 OFFCURVE",
"164 -10 CURVE SMOOTH",
"328 -10 OFFCURVE",
"459 52 OFFCURVE",
"494 275 CURVE SMOOTH",
"557 675 LINE SMOOTH",
"560 692 OFFCURVE",
"553 700 OFFCURVE",
"536 700 CURVE SMOOTH"
);
}
);
width = 575;
},
{
anchors = (
{
name = bottom;
position = "{247, 0}";
},
{
name = top;
position = "{361, 720}";
}
);
layerId = "C492240F-DFB2-48B7-8D1C-81E7E6E3599E";
paths = (
{
closed = 1;
nodes = (
"270 720 LINE SMOOTH",
"249 720 OFFCURVE",
"235 707 OFFCURVE",
"231 687 CURVE SMOOTH",
"227 660 LINE SMOOTH",
"224 637 OFFCURVE",
"236 624 OFFCURVE",
"258 624 CURVE SMOOTH",
"454 624 LINE",
"401 287 LINE SMOOTH",
"382 167 OFFCURVE",
"329 87 OFFCURVE",
"178 87 CURVE SMOOTH",
"157 87 OFFCURVE",
"115 89 OFFCURVE",
"71 98 CURVE SMOOTH",
"51 102 OFFCURVE",
"33 93 OFFCURVE",
"26 73 CURVE SMOOTH",
"15 47 LINE SMOOTH",
"5 25 OFFCURVE",
"13 7 OFFCURVE",
"36 3 CURVE SMOOTH",
"89 -8 OFFCURVE",
"136 -10 OFFCURVE",
"166 -10 CURVE SMOOTH",
"333 -10 OFFCURVE",
"470 54 OFFCURVE",
"506 283 CURVE SMOOTH",
"569 683 LINE SMOOTH",
"573 707 OFFCURVE",
"561 720 OFFCURVE",
"538 720 CURVE SMOOTH"
);
}
);
width = 575;
},
{
anchors = (
{
name = top;
position = "{288, 700}";
}
);
associatedMasterId = "A14B1AE3-86D5-4EA7-AE2F-7B4FA04DAB2E";
layerId = "C7C84F2E-726A-4BD5-A5A1-A57EA4026C0F";
name = "Regular Dec 25 14, 15:59";
paths = (
{
closed = 1;
nodes = (
"147 700 LINE SMOOTH",
"131 700 OFFCURVE",
"122 691 OFFCURVE",
"122 675 CURVE SMOOTH",
"122 649 LINE SMOOTH",
"122 632 OFFCURVE",
"131 624 OFFCURVE",
"147 624 CURVE SMOOTH",
"405 624 LINE",
"405 275 LINE SMOOTH",
"405 153 OFFCURVE",
"361 67 OFFCURVE",
"205 67 CURVE SMOOTH",
"184 67 OFFCURVE",
"141 69 OFFCURVE",
"94 78 CURVE SMOOTH",
"78 81 OFFCURVE",
"67 75 OFFCURVE",
"63 59 CURVE SMOOTH",
"56 33 LINE SMOOTH",
"52 17 OFFCURVE",
"59 6 OFFCURVE",
"75 3 CURVE SMOOTH",
"129 -8 OFFCURVE",
"175 -10 OFFCURVE",
"205 -10 CURVE SMOOTH",
"369 -10 OFFCURVE",
"490 52 OFFCURVE",
"490 275 CURVE SMOOTH",
"490 675 LINE SMOOTH",
"490 692 OFFCURVE",
"482 700 OFFCURVE",
"465 700 CURVE SMOOTH"
);
}
);
width = 575;
},
{
anchors = (
{
name = top;
position = "{288, 700}";
}
);
associatedMasterId = "A14B1AE3-86D5-4EA7-AE2F-7B4FA04DAB2E";
layerId = "5C26ABEB-5643-41C4-BFF0-DFF59DAD40C9";
name = "Regular Dec 30 14, 23:58";
paths = (
{
closed = 1;
nodes = (
"293 700 LINE SMOOTH",
"277 700 OFFCURVE",
"268 692 OFFCURVE",
"268 675 CURVE SMOOTH",
"268 649 LINE SMOOTH",
"268 633 OFFCURVE",
"277 624 OFFCURVE",
"293 624 CURVE SMOOTH",
"405 624 LINE",
"405 203 LINE SMOOTH",
"405 121 OFFCURVE",
"370 67 OFFCURVE",
"288 67 CURVE SMOOTH",
"206 67 OFFCURVE",
"170 120 OFFCURVE",
"170 203 CURVE SMOOTH",
"170 220 OFFCURVE",
"161 228 OFFCURVE",
"145 228 CURVE SMOOTH",
"110 228 LINE SMOOTH",
"94 228 OFFCURVE",
"85 219 OFFCURVE",
"85 203 CURVE SMOOTH",
"85 67 OFFCURVE",
"153 -10 OFFCURVE",
"288 -10 CURVE SMOOTH",
"422 -10 OFFCURVE",
"490 66 OFFCURVE",
"490 203 CURVE SMOOTH",
"490 675 LINE SMOOTH",
"490 692 OFFCURVE",
"482 700 OFFCURVE",
"465 700 CURVE SMOOTH"
);
}
);
width = 575;
},
{
anchors = (
{
name = top;
position = "{288, 700}";
}
);
associatedMasterId = "A14B1AE3-86D5-4EA7-AE2F-7B4FA04DAB2E";
layerId = "602CC3B6-424E-4E97-A2AB-9F9C879DF274";
name = "Regular Jan 11 15, 19:32";
paths = (
{
closed = 1;
nodes = (
"165 700 LINE SMOOTH",
"149 700 OFFCURVE",
"140 691 OFFCURVE",
"140 675 CURVE SMOOTH",
"140 649 LINE SMOOTH",
"140 632 OFFCURVE",
"149 624 OFFCURVE",
"165 624 CURVE SMOOTH",
"405 624 LINE",
"405 275 LINE SMOOTH",
"405 153 OFFCURVE",
"361 67 OFFCURVE",
"205 67 CURVE SMOOTH",
"184 67 OFFCURVE",
"141 69 OFFCURVE",
"94 78 CURVE SMOOTH",
"78 81 OFFCURVE",
"67 75 OFFCURVE",
"63 59 CURVE SMOOTH",
"56 33 LINE SMOOTH",
"52 17 OFFCURVE",
"59 6 OFFCURVE",
"75 3 CURVE SMOOTH",
"129 -8 OFFCURVE",
"175 -10 OFFCURVE",
"205 -10 CURVE SMOOTH",
"369 -10 OFFCURVE",
"490 52 OFFCURVE",
"490 275 CURVE SMOOTH",
"490 675 LINE SMOOTH",
"490 692 OFFCURVE",
"482 700 OFFCURVE",
"465 700 CURVE SMOOTH"
);
}
);
width = 575;
}
);
unicode = 004A;
},
{
glyphname = K;
lastChange = "2016-06-09 18:35:33 +0000";
layers = (
{
anchors = (
{
name = bottom;
position = "{288, 0}";
},
{
name = top;
position = "{288, 700}";
}
);
hints = (
{
horizontal = 1;
origin = "{0, 26}";
target = up;
type = BottomGhost;
},
{
horizontal = 1;
origin = "{0, 19}";
target = down;
type = TopGhost;
},
{
origin = "{0, 23}";
target = "{0, 14}";
type = Stem;
},
{
horizontal = 1;
origin = "{0, 9}";
type = Anchor;
},
{
horizontal = 1;
origin = "{0, 3}";
type = Anchor;
},
{
horizontal = 1;
origin = "{0, 27}";
type = Anchor;
},
{
horizontal = 1;
origin = "{0, 19}";
type = Anchor;
},
{
horizontal = 1;
origin = "{0, 4}";
target = "{0, 13}";
type = Diagonal;
},
{
horizontal = 1;
origin = "{0, 4}";
target = "{0, 32}";
type = Diagonal;
}
);
layerId = "A14B1AE3-86D5-4EA7-AE2F-7B4FA04DAB2E";
paths = (
{
closed = 1;
nodes = (
"495 0 LINE SMOOTH",
"516 0 OFFCURVE",
"523 14 OFFCURVE",
"510 31 CURVE SMOOTH",
"263 360 LINE",
"495 670 LINE SMOOTH",
"508 687 OFFCURVE",
"501 700 OFFCURVE",
"480 700 CURVE SMOOTH",
"427 700 LINE SMOOTH",
"414 700 OFFCURVE",
"405 696 OFFCURVE",
"397 685 CURVE SMOOTH",
"192 399 LINE",
"170 399 LINE",
"170 675 LINE SMOOTH",
"170 692 OFFCURVE",
"162 700 OFFCURVE",
"145 700 CURVE SMOOTH",
"110 700 LINE SMOOTH",
"94 700 OFFCURVE",
"85 691 OFFCURVE",
"85 675 CURVE SMOOTH",
"85 25 LINE SMOOTH",
"85 9 OFFCURVE",
"94 0 OFFCURVE",
"110 0 CURVE SMOOTH",
"145 0 LINE SMOOTH",
"162 0 OFFCURVE",
"170 9 OFFCURVE",
"170 25 CURVE SMOOTH",
"170 323 LINE",
"191 323 LINE",
"413 16 LINE",
"420 5 OFFCURVE",
"429 0 OFFCURVE",
"443 0 CURVE SMOOTH"
);
}
);
width = 575;
},
{
anchors = (
{
name = bottom;
position = "{150, 0}";
},
{
name = top;
position = "{150, 700}";
}
);
hints = (
{
horizontal = 1;
place = "{21.5, -21.5}";
type = Stem;
},
{
horizontal = 1;
origin = "{0, 14}";
type = Anchor;
},
{
horizontal = 1;
origin = "{0, 5}";
type = Anchor;
},
{
horizontal = 1;
origin = "{0, 22}";
type = Anchor;
},
{
horizontal = 1;
origin = "{0, 32}";
type = Anchor;
}
);
layerId = "FB732A47-0020-4E5B-B7FA-72B1D79E8828";
paths = (
{
closed = 1;
nodes = (
"275 370 LINE",
"503 674 LINE SMOOTH",
"520 696 OFFCURVE",
"507 720 OFFCURVE",
"480 720 CURVE SMOOTH",
"427 720 LINE SMOOTH",
"412 720 OFFCURVE",
"398 714 OFFCURVE",
"389 701 CURVE SMOOTH",
"187 419 LINE",
"180 419 LINE",
"180 685 LINE SMOOTH",
"180 706 OFFCURVE",
"166 720 OFFCURVE",
"145 720 CURVE SMOOTH",
"110 720 LINE SMOOTH",
"90 720 OFFCURVE",
"75 705 OFFCURVE",
"75 685 CURVE SMOOTH",
"75 35 LINE SMOOTH",
"75 15 OFFCURVE",
"90 0 OFFCURVE",
"110 0 CURVE SMOOTH",
"145 0 LINE SMOOTH",
"166 0 OFFCURVE",
"180 15 OFFCURVE",
"180 35 CURVE SMOOTH",
"180 323 LINE",
"186 323 LINE",
"405 20 LINE",
"413 7 OFFCURVE",
"427 0 OFFCURVE",
"443 0 CURVE SMOOTH",
"495 0 LINE SMOOTH",
"522 0 OFFCURVE",
"535 25 OFFCURVE",
"518 47 CURVE SMOOTH"
);
}
);
width = 575;
},
{
anchors = (
{
name = bottom;
position = "{288, 0}";
},
{
name = top;
position = "{288, 700}";
}
);
associatedMasterId = "A14B1AE3-86D5-4EA7-AE2F-7B4FA04DAB2E";
hints = (
{
horizontal = 1;
place = "{0, 0}";
type = Stem;
},
{
horizontal = 1;
place = "{0, 0}";
type = Stem;
},
{
place = "{0, 0}";
type = Stem;
},
{
place = "{0, 0}";
type = Stem;
}
);
layerId = "BB43E745-9A80-48D3-8D14-E72876A0B727";
name = "Regular Dec 28 13, 16:32";
paths = (
{
closed = 1;
nodes = (
"110 700 LINE SMOOTH",
"94 700 OFFCURVE",
"85 691 OFFCURVE",
"85 675 CURVE SMOOTH",
"85 25 LINE SMOOTH",
"85 9 OFFCURVE",
"94 0 OFFCURVE",
"110 0 CURVE SMOOTH",
"145 0 LINE SMOOTH",
"162 0 OFFCURVE",
"170 9 OFFCURVE",
"170 25 CURVE SMOOTH",
"170 307 LINE",
"409 61 LINE SMOOTH",
"425 46 OFFCURVE",
"433 35 OFFCURVE",
"440 18 CURVE SMOOTH",
"444 6 OFFCURVE",
"451 0 OFFCURVE",
"466 0 CURVE SMOOTH",
"503 0 LINE SMOOTH",
"520 0 OFFCURVE",
"530 10 OFFCURVE",
"527 26 CURVE SMOOTH",
"518 64 OFFCURVE",
"499 86 OFFCURVE",
"469 115 CURVE SMOOTH",
"240 339 LINE",
"234 344 OFFCURVE",
"230 349 OFFCURVE",
"229 357 CURVE",
"229 364 OFFCURVE",
"233 370 OFFCURVE",
"239 375 CURVE SMOOTH",
"468 584 LINE SMOOTH",
"500 613 OFFCURVE",
"523 639 OFFCURVE",
"528 681 CURVE SMOOTH",
"530 692 OFFCURVE",
"527 699 OFFCURVE",
"516 700 CURVE",
"467 700 LINE SMOOTH",
"452 700 OFFCURVE",
"445 693 OFFCURVE",
"439 679 CURVE SMOOTH",
"434 665 OFFCURVE",
"424 653 OFFCURVE",
"410 640 CURVE SMOOTH",
"170 408 LINE",
"170 675 LINE SMOOTH",
"170 692 OFFCURVE",
"162 700 OFFCURVE",
"145 700 CURVE SMOOTH"
);
}
);
width = 575;
},
{
anchors = (
{
name = bottom;
position = "{288, 0}";
},
{
name = top;
position = "{288, 700}";
}
);
associatedMasterId = "A14B1AE3-86D5-4EA7-AE2F-7B4FA04DAB2E";
hints = (
{
horizontal = 1;
place = "{700, -10}";
type = Stem;
},
{
horizontal = 1;
place = "{0, 10.5}";
type = Stem;
},
{
place = "{85, 85}";
type = Stem;
},
{
place = "{0, 0}";
type = Stem;
}
);
layerId = "77622695-0762-4F07-B24C-0AFBFE246664";
name = "Regular Dec 28 13, 19:48";
paths = (
{
closed = 1;
nodes = (
"264 364 LINE",
"438 538 LINE SMOOTH",
"494 594 OFFCURVE",
"524 642 OFFCURVE",
"524 675 CURVE SMOOTH",
"524 691 OFFCURVE",
"515 700 OFFCURVE",
"499 700 CURVE SMOOTH",
"464 700 LINE SMOOTH",
"448 700 OFFCURVE",
"439 691 OFFCURVE",
"439 675 CURVE SMOOTH",
"439 654 OFFCURVE",
"420 623 OFFCURVE",
"384 587 CURVE SMOOTH",
"170 373 LINE",
"170 675 LINE SMOOTH",
"170 692 OFFCURVE",
"162 700 OFFCURVE",
"145 700 CURVE SMOOTH",
"110 700 LINE SMOOTH",
"94 700 OFFCURVE",
"85 691 OFFCURVE",
"85 675 CURVE SMOOTH",
"85 25 LINE SMOOTH",
"85 9 OFFCURVE",
"94 0 OFFCURVE",
"110 0 CURVE SMOOTH",
"145 0 LINE SMOOTH",
"162 0 OFFCURVE",
"170 9 OFFCURVE",
"170 25 CURVE SMOOTH",
"170 355 LINE",
"384 147 LINE SMOOTH",
"419 112 OFFCURVE",
"439 80 OFFCURVE",
"439 57 CURVE SMOOTH",
"439 25 LINE SMOOTH",
"439 9 OFFCURVE",
"448 0 OFFCURVE",
"464 0 CURVE SMOOTH",
"499 0 LINE SMOOTH",
"516 0 OFFCURVE",
"524 9 OFFCURVE",
"524 25 CURVE SMOOTH",
"524 57 LINE SMOOTH",
"524 92 OFFCURVE",
"494 141 OFFCURVE",
"438 196 CURVE SMOOTH"
);
},
{
closed = 1;
nodes = (
"132 326 LINE",
"241 326 LINE",
"241 403 LINE",
"132 403 LINE"
);
}
);
width = 575;
},
{
anchors = (
{
name = bottom;
position = "{288, 0}";
},
{
name = top;
position = "{288, 700}";
}
);
associatedMasterId = "A14B1AE3-86D5-4EA7-AE2F-7B4FA04DAB2E";
hints = (
{
horizontal = 1;
place = "{700, -10}";
type = Stem;
},
{
horizontal = 1;
place = "{0, 10.5}";
type = Stem;
},
{
place = "{85, 85}";
type = Stem;
},
{
place = "{0, 0}";
type = Stem;
},
{
horizontal = 1;
place = "{0, 0}";
type = Stem;
},
{
place = "{457, 83}";
type = Stem;
}
);
layerId = "905583CC-05CE-4F1B-B3CC-B3D83841DFB9";
name = "Regular Dec 28 13, 21:13";
paths = (
{
closed = 1;
nodes = (
"110 700 LINE SMOOTH",
"94 700 OFFCURVE",
"85 691 OFFCURVE",
"85 675 CURVE SMOOTH",
"85 25 LINE SMOOTH",
"85 9 OFFCURVE",
"94 0 OFFCURVE",
"110 0 CURVE SMOOTH",
"145 0 LINE SMOOTH",
"162 0 OFFCURVE",
"170 9 OFFCURVE",
"170 25 CURVE SMOOTH",
"170 675 LINE SMOOTH",
"170 692 OFFCURVE",
"162 700 OFFCURVE",
"145 700 CURVE SMOOTH"
);
},
{
closed = 1;
nodes = (
"188 360 LINE",
"497 669 LINE SMOOTH",
"513 685 OFFCURVE",
"507 700 OFFCURVE",
"484 700 CURVE SMOOTH",
"426 700 LINE SMOOTH",
"413 700 OFFCURVE",
"404 696 OFFCURVE",
"395 687 CURVE SMOOTH",
"107 399 LINE",
"85 399 LINE",
"85 323 LINE",
"106 323 LINE",
"415 13 LINE SMOOTH",
"424 4 OFFCURVE",
"433 0 OFFCURVE",
"446 0 CURVE SMOOTH",
"504 0 LINE SMOOTH",
"527 0 OFFCURVE",
"533 15 OFFCURVE",
"517 31 CURVE SMOOTH"
);
}
);
width = 575;
},
{
layerId = "8A9476DE-11F4-4864-A7B4-14D9B7165FAE";
paths = (
{
closed = 1;
nodes = (
"455 0 LINE SMOOTH",
"476 0 OFFCURVE",
"486 14 OFFCURVE",
"475 31 CURVE SMOOTH",
"280 360 LINE",
"562 670 LINE SMOOTH",
"577 687 OFFCURVE",
"572 700 OFFCURVE",
"551 700 CURVE SMOOTH",
"498 700 LINE SMOOTH",
"485 700 OFFCURVE",
"476 696 OFFCURVE",
"466 685 CURVE SMOOTH",
"216 399 LINE",
"194 399 LINE",
"237 675 LINE SMOOTH",
"240 692 OFFCURVE",
"233 700 OFFCURVE",
"216 700 CURVE SMOOTH",
"181 700 LINE SMOOTH",
"165 700 OFFCURVE",
"155 691 OFFCURVE",
"152 675 CURVE SMOOTH",
"49 25 LINE SMOOTH",
"47 9 OFFCURVE",
"54 0 OFFCURVE",
"70 0 CURVE SMOOTH",
"105 0 LINE SMOOTH",
"122 0 OFFCURVE",
"132 9 OFFCURVE",
"134 25 CURVE SMOOTH",
"182 323 LINE",
"203 323 LINE",
"376 16 LINE SMOOTH",
"381 5 OFFCURVE",
"389 0 OFFCURVE",
"403 0 CURVE SMOOTH"
);
}
);
width = 575;
},
{
layerId = "C492240F-DFB2-48B7-8D1C-81E7E6E3599E";
paths = (
{
closed = 1;
nodes = (
"455 0 LINE",
"483 0 OFFCURVE",
"499 25 OFFCURVE",
"486 47 CURVE",
"295 370 LINE",
"570 674 LINE",
"591 696 OFFCURVE",
"581 720 OFFCURVE",
"554 720 CURVE",
"501 720 LINE",
"486 720 OFFCURVE",
"472 714 OFFCURVE",
"460 701 CURVE",
"214 419 LINE",
"207 419 LINE",
"249 685 LINE",
"252 706 OFFCURVE",
"241 720 OFFCURVE",
"219 720 CURVE",
"184 720 LINE",
"164 720 OFFCURVE",
"147 705 OFFCURVE",
"144 685 CURVE",
"41 35 LINE",
"38 15 OFFCURVE",
"50 0 OFFCURVE",
"70 0 CURVE",
"105 0 LINE",
"127 0 OFFCURVE",
"143 15 OFFCURVE",
"146 35 CURVE",
"192 323 LINE",
"197 323 LINE",
"368 20 LINE",
"368 21 LINE",
"375 7 OFFCURVE",
"387 0 OFFCURVE",
"403 0 CURVE"
);
}
);
width = 575;
}
);
unicode = 004B;
},
{
glyphname = L;
lastChange = "2016-06-09 18:35:33 +0000";
layers = (
{
anchors = (
{
name = bottom;
position = "{288, 0}";
},
{
name = top;
position = "{288, 700}";
}
);
hints = (
{
horizontal = 1;
origin = "{0, 5}";
target = down;
type = TopGhost;
},
{
origin = "{0, 8}";
target = "{0, 1}";
type = Stem;
},
{
horizontal = 1;
origin = "{0, 12}";
target = "{0, 0}";
type = Stem;
},
{
horizontal = 1;
origin = "{0, 4}";
type = Anchor;
},
{
horizontal = 1;
origin = "{0, 12}";
target = "{0, 0}";
type = Align;
}
);
layerId = "A14B1AE3-86D5-4EA7-AE2F-7B4FA04DAB2E";
paths = (
{
closed = 1;
nodes = (
"170 77 LINE",
"170 675 LINE SMOOTH",
"170 692 OFFCURVE",
"162 700 OFFCURVE",
"145 700 CURVE SMOOTH",
"110 700 LINE SMOOTH",
"94 700 OFFCURVE",
"85 691 OFFCURVE",
"85 675 CURVE SMOOTH",
"85 25 LINE SMOOTH",
"85 9 OFFCURVE",
"94 0 OFFCURVE",
"110 0 CURVE SMOOTH",
"529 0 LINE SMOOTH",
"545 0 OFFCURVE",
"554 9 OFFCURVE",
"554 25 CURVE SMOOTH",
"554 52 LINE SMOOTH",
"554 68 OFFCURVE",
"545 77 OFFCURVE",
"529 77 CURVE SMOOTH"
);
}
);
width = 575;
},
{
anchors = (
{
name = bottom;
position = "{288, 0}";
},
{
name = top;
position = "{288, 700}";
}
);
hints = (
{
horizontal = 1;
place = "{0, 9699}";
type = Stem;
},
{
horizontal = 1;
origin = "{0, 4}";
type = Anchor;
},
{
horizontal = 1;
origin = "{0, 12}";
target = "{0, 0}";
type = Align;
}
);
layerId = "FB732A47-0020-4E5B-B7FA-72B1D79E8828";
paths = (
{
closed = 1;
nodes = (
"180 97 LINE",
"180 685 LINE",
"180 706.142 OFFCURVE",
"166.142 720 OFFCURVE",
"145 720 CURVE",
"110 720 LINE",
"89.858 720 OFFCURVE",
"75 705.142 OFFCURVE",
"75 685 CURVE",
"75 35 LINE",
"75 14.858 OFFCURVE",
"89.858 0 OFFCURVE",
"110 0 CURVE",
"529 0 LINE",
"549.142 0 OFFCURVE",
"564 14.858 OFFCURVE",
"564 35 CURVE",
"564 62 LINE",
"564 82.142 OFFCURVE",
"549.142 97 OFFCURVE",
"529 97 CURVE"
);
}
);
width = 575;
},
{
anchors = (
{
name = bottom;
position = "{288, 0}";
},
{
name = top;
position = "{288, 700}";
}
);
associatedMasterId = "FB732A47-0020-4E5B-B7FA-72B1D79E8828";
layerId = "7E84CF2B-3B14-49B2-BE45-5830B0EF0584";
name = "Bold Nov 25 14, 07:41";
paths = (
{
closed = 1;
nodes = (
"220 77 LINE",
"220 675 LINE SMOOTH",
"220 692 OFFCURVE",
"212 700 OFFCURVE",
"195 700 CURVE SMOOTH",
"110 700 LINE SMOOTH",
"94 700 OFFCURVE",
"85 691 OFFCURVE",
"85 675 CURVE SMOOTH",
"85 25 LINE SMOOTH",
"85 9 OFFCURVE",
"94 0 OFFCURVE",
"110 0 CURVE SMOOTH",
"529 0 LINE SMOOTH",
"545 0 OFFCURVE",
"554 9 OFFCURVE",
"554 25 CURVE SMOOTH",
"554 52 LINE SMOOTH",
"554 68 OFFCURVE",
"545 77 OFFCURVE",
"529 77 CURVE SMOOTH"
);
}
);
width = 575;
},
{
layerId = "8A9476DE-11F4-4864-A7B4-14D9B7165FAE";
paths = (
{
closed = 1;
nodes = (
"143 77 LINE",
"237 675 LINE SMOOTH",
"240 692 OFFCURVE",
"233 700 OFFCURVE",
"216 700 CURVE SMOOTH",
"181 700 LINE SMOOTH",
"165 700 OFFCURVE",
"155 691 OFFCURVE",
"152 675 CURVE SMOOTH",
"49 25 LINE SMOOTH",
"47 9 OFFCURVE",
"54 0 OFFCURVE",
"70 0 CURVE SMOOTH",
"489 0 LINE SMOOTH",
"505 0 OFFCURVE",
"516 9 OFFCURVE",
"518 25 CURVE SMOOTH",
"523 52 LINE SMOOTH",
"525 68 OFFCURVE",
"518 77 OFFCURVE",
"502 77 CURVE SMOOTH"
);
}
);
width = 575;
},
{
layerId = "C492240F-DFB2-48B7-8D1C-81E7E6E3599E";
paths = (
{
closed = 1;
nodes = (
"156 97 LINE",
"249 685 LINE",
"252 706 OFFCURVE",
"241 720 OFFCURVE",
"219 720 CURVE",
"184 720 LINE",
"164 720 OFFCURVE",
"147 705 OFFCURVE",
"144 685 CURVE",
"41 35 LINE",
"38 15 OFFCURVE",
"50 0 OFFCURVE",
"70 0 CURVE",
"489 0 LINE",
"510 0 OFFCURVE",
"527 15 OFFCURVE",
"530 35 CURVE",
"534 62 LINE",
"537 82 OFFCURVE",
"525 97 OFFCURVE",
"505 97 CURVE"
);
}
);
width = 575;
}
);
unicode = 004C;
},
{
glyphname = Lslash;
lastChange = "2016-06-09 18:35:33 +0000";
layers = (
{
anchors = (
{
name = bottom;
position = "{288, 0}";
},
{
name = top;
position = "{288, 700}";
}
);
hints = (
{
horizontal = 1;
origin = "{0, 15}";
target = down;
type = TopGhost;
},
{
origin = "{0, 18}";
target = "{0, 11}";
type = Stem;
},
{
horizontal = 1;
origin = "{0, 32}";
target = "{0, 0}";
type = Stem;
},
{
horizontal = 1;
origin = "{0, 14}";
type = Anchor;
},
{
horizontal = 1;
origin = "{0, 32}";
target = "{0, 0}";
type = Align;
}
);
layerId = "A14B1AE3-86D5-4EA7-AE2F-7B4FA04DAB2E";
paths = (
{
closed = 1;
nodes = (
"170 77 LINE",
"170 343 LINE",
"307 446 LINE SMOOTH",
"319 455 OFFCURVE",
"321 471 OFFCURVE",
"311 484 CURVE SMOOTH",
"292 507 LINE SMOOTH",
"284 517 OFFCURVE",
"269 520 OFFCURVE",
"258 512 CURVE SMOOTH",
"170 446 LINE",
"170 675 LINE SMOOTH",
"170 692 OFFCURVE",
"162 700 OFFCURVE",
"145 700 CURVE SMOOTH",
"110 700 LINE SMOOTH",
"94 700 OFFCURVE",
"85 691 OFFCURVE",
"85 675 CURVE SMOOTH",
"85 382 LINE",
"19 332 LINE SMOOTH",
"7 323 OFFCURVE",
"4 306 OFFCURVE",
"14 294 CURVE SMOOTH",
"34 271 LINE",
"42 261 OFFCURVE",
"57 259 OFFCURVE",
"68 267 CURVE SMOOTH",
"85 280 LINE",
"85 25 LINE SMOOTH",
"85 9 OFFCURVE",
"94 0 OFFCURVE",
"110 0 CURVE SMOOTH",
"529 0 LINE SMOOTH",
"545 0 OFFCURVE",
"554 9 OFFCURVE",
"554 25 CURVE SMOOTH",
"554 52 LINE SMOOTH",
"554 68 OFFCURVE",
"545 77 OFFCURVE",
"529 77 CURVE SMOOTH"
);
}
);
width = 575;
},
{
components = (
{
name = L;
}
);
layerId = "FB732A47-0020-4E5B-B7FA-72B1D79E8828";
paths = (
{
closed = 1;
nodes = (
"19 332 LINE SMOOTH",
"7 323 OFFCURVE",
"4 306 OFFCURVE",
"14 294 CURVE SMOOTH",
"34 271 LINE SMOOTH",
"42 261 OFFCURVE",
"57 259 OFFCURVE",
"68 267 CURVE SMOOTH",
"307 446 LINE SMOOTH",
"319 455 OFFCURVE",
"321 471 OFFCURVE",
"311 484 CURVE SMOOTH",
"292 507 LINE SMOOTH",
"284 517 OFFCURVE",
"269 520 OFFCURVE",
"258 512 CURVE SMOOTH"
);
}
);
width = 575;
},
{
components = (
{
name = L;
}
);
layerId = "8A9476DE-11F4-4864-A7B4-14D9B7165FAE";
paths = (
{
closed = 1;
nodes = (
"32 332 LINE SMOOTH",
"19 323 OFFCURVE",
"13 306 OFFCURVE",
"21 294 CURVE SMOOTH",
"37 271 LINE SMOOTH",
"44 261 OFFCURVE",
"58 259 OFFCURVE",
"71 267 CURVE SMOOTH",
"338 446 LINE SMOOTH",
"351 455 OFFCURVE",
"356 471 OFFCURVE",
"348 484 CURVE SMOOTH",
"333 507 LINE SMOOTH",
"326 517 OFFCURVE",
"312 520 OFFCURVE",
"299 512 CURVE SMOOTH"
);
}
);
width = 575;
},
{
components = (
{
name = L;
}
);
layerId = "C492240F-DFB2-48B7-8D1C-81E7E6E3599E";
paths = (
{
closed = 1;
nodes = (
"32 332 LINE SMOOTH",
"19 323 OFFCURVE",
"13 306 OFFCURVE",
"21 294 CURVE SMOOTH",
"37 271 LINE SMOOTH",
"44 261 OFFCURVE",
"58 259 OFFCURVE",
"71 267 CURVE SMOOTH",
"338 446 LINE SMOOTH",
"351 455 OFFCURVE",
"356 471 OFFCURVE",
"348 484 CURVE SMOOTH",
"333 507 LINE SMOOTH",
"326 517 OFFCURVE",
"312 520 OFFCURVE",
"299 512 CURVE SMOOTH"
);
}
);
width = 575;
}
);
unicode = 0141;
},
{
glyphname = M;
lastChange = "2016-06-09 18:35:33 +0000";
layers = (
{
background = {
paths = (
{
closed = 1;
nodes = (
"426 705 LINE SMOOTH",
"412 705 OFFCURVE",
"403 699 OFFCURVE",
"397 687 CURVE SMOOTH",
"288 469 LINE",
"179 687 LINE SMOOTH",
"173 699 OFFCURVE",
"164 705 OFFCURVE",
"150 705 CURVE SMOOTH",
"78 705 LINE SMOOTH",
"60 705 OFFCURVE",
"51 696 OFFCURVE",
"51 680 CURVE SMOOTH",
"51 26 LINE SMOOTH",
"51 11 OFFCURVE",
"62 0 OFFCURVE",
"77 0 CURVE SMOOTH",
"111 0 LINE SMOOTH",
"126 0 OFFCURVE",
"136 11 OFFCURVE",
"136 26 CURVE SMOOTH",
"136 275 OFFCURVE",
"134 541 OFFCURVE",
"131 615 CURVE",
"245 388 LINE SMOOTH",
"251 375 OFFCURVE",
"260 370 OFFCURVE",
"274 370 CURVE SMOOTH",
"301 370 LINE SMOOTH",
"315 370 OFFCURVE",
"325 375 OFFCURVE",
"331 388 CURVE SMOOTH",
"444 615 LINE",
"441 541 OFFCURVE",
"439 275 OFFCURVE",
"439 26 CURVE SMOOTH",
"439 11 OFFCURVE",
"450 0 OFFCURVE",
"465 0 CURVE SMOOTH",
"499 0 LINE SMOOTH",
"514 0 OFFCURVE",
"524 11 OFFCURVE",
"524 26 CURVE SMOOTH",
"524 680 LINE SMOOTH",
"524 696 OFFCURVE",
"515 705 OFFCURVE",
"498 705 CURVE SMOOTH"
);
}
);
};
hints = (
{
horizontal = 1;
place = "{21.5, -21.5}";
type = Stem;
},
{
horizontal = 1;
place = "{704.99, -20.48}";
type = Stem;
},
{
place = "{50.99, 73.99}";
type = Stem;
},
{
place = "{450.99, 74}";
type = Stem;
},
{
horizontal = 1;
origin = "{0, 11}";
type = Anchor;
},
{
horizontal = 1;
origin = "{0, 3}";
type = Anchor;
},
{
horizontal = 1;
origin = "{0, 20}";
type = Anchor;
},
{
horizontal = 1;
origin = "{0, 37}";
type = Anchor;
}
);
layerId = "A14B1AE3-86D5-4EA7-AE2F-7B4FA04DAB2E";
paths = (
{
closed = 1;
nodes = (
"525 696 OFFCURVE",
"516 705 OFFCURVE",
"498 705 CURVE SMOOTH",
"482 705 LINE SMOOTH",
"454 705 OFFCURVE",
"435 694 OFFCURVE",
"423 669 CURVE SMOOTH",
"288 399 LINE",
"153 669 LINE SMOOTH",
"141 694 OFFCURVE",
"122 705 OFFCURVE",
"94 705 CURVE SMOOTH",
"78 705 LINE SMOOTH",
"60 705 OFFCURVE",
"51 696 OFFCURVE",
"51 680 CURVE SMOOTH",
"31 26 LINE SMOOTH",
"31 11 OFFCURVE",
"42 0 OFFCURVE",
"57 0 CURVE SMOOTH",
"91 0 LINE SMOOTH",
"106 0 OFFCURVE",
"115 11 OFFCURVE",
"116 26 CURVE SMOOTH",
"134 540 LINE",
"245 318 LINE SMOOTH",
"251 305 OFFCURVE",
"260 300 OFFCURVE",
"274 300 CURVE SMOOTH",
"302 300 LINE SMOOTH",
"316 300 OFFCURVE",
"325 305 OFFCURVE",
"331 318 CURVE SMOOTH",
"442 540 LINE",
"460 26 LINE SMOOTH",
"461 11 OFFCURVE",
"470 0 OFFCURVE",
"485 0 CURVE SMOOTH",
"519 0 LINE SMOOTH",
"534 0 OFFCURVE",
"545 11 OFFCURVE",
"545 26 CURVE",
"525 680 LINE"
);
}
);
width = 575;
},
{
hints = (
{
horizontal = 1;
place = "{21.5, -21.5}";
type = Stem;
},
{
horizontal = 1;
place = "{724.99, -20.48}";
type = Stem;
},
{
place = "{40.99, 93.5}";
type = Stem;
},
{
place = "{441.49, 93.5}";
type = Stem;
},
{
horizontal = 1;
origin = "{0, 11}";
type = Anchor;
},
{
horizontal = 1;
origin = "{0, 20}";
type = Anchor;
}
);
layerId = "FB732A47-0020-4E5B-B7FA-72B1D79E8828";
paths = (
{
closed = 1;
nodes = (
"535 712 OFFCURVE",
"521 725 OFFCURVE",
"498 725 CURVE SMOOTH",
"482 725 LINE SMOOTH",
"450 725 OFFCURVE",
"427 711 OFFCURVE",
"414 683 CURVE SMOOTH",
"288 431 LINE",
"162 683 LINE SMOOTH",
"149 711 OFFCURVE",
"126 725 OFFCURVE",
"94 725 CURVE SMOOTH",
"78 725 LINE SMOOTH",
"55 725 OFFCURVE",
"41 712 OFFCURVE",
"41 690 CURVE SMOOTH",
"21 36 LINE SMOOTH",
"21 16 OFFCURVE",
"37 0 OFFCURVE",
"57 0 CURVE SMOOTH",
"91 0 LINE SMOOTH",
"111 0 OFFCURVE",
"125 14 OFFCURVE",
"126 35 CURVE SMOOTH",
"143 540 LINE",
"236 354 LINE SMOOTH",
"243 338 OFFCURVE",
"256 330 OFFCURVE",
"274 330 CURVE SMOOTH",
"302 330 LINE SMOOTH",
"320 330 OFFCURVE",
"333 338 OFFCURVE",
"340 354 CURVE SMOOTH",
"433 540 LINE",
"450 36 LINE SMOOTH",
"451 14 OFFCURVE",
"465 0 OFFCURVE",
"485 0 CURVE SMOOTH",
"519 0 LINE SMOOTH",
"539 0 OFFCURVE",
"555 16 OFFCURVE",
"555 36 CURVE",
"535 690 LINE"
);
}
);
width = 575;
},
{
associatedMasterId = "A14B1AE3-86D5-4EA7-AE2F-7B4FA04DAB2E";
hints = (
{
horizontal = 1;
place = "{0, 0}";
type = Stem;
},
{
horizontal = 1;
place = "{0, 0}";
type = Stem;
},
{
place = "{0, 0}";
type = Stem;
},
{
place = "{0, 0}";
type = Stem;
},
{
horizontal = 1;
place = "{0, 0}";
type = Stem;
}
);
layerId = "3C5773F5-2E87-4C67-91B0-3B6CC869A9AF";
name = "Regular Jan 21 14, 20:24";
paths = (
{
closed = 1;
nodes = (
"496 705 LINE SMOOTH",
"482 705 OFFCURVE",
"473 700 OFFCURVE",
"467 687 CURVE SMOOTH",
"313 380 LINE SMOOTH",
"307 368 OFFCURVE",
"301 359 OFFCURVE",
"288 359 CURVE SMOOTH",
"275 359 OFFCURVE",
"268 368 OFFCURVE",
"262 380 CURVE SMOOTH",
"109 687 LINE SMOOTH",
"103 700 OFFCURVE",
"93 705 OFFCURVE",
"79 705 CURVE SMOOTH",
"78 705 LINE SMOOTH",
"60 705 OFFCURVE",
"51 696 OFFCURVE",
"51 680 CURVE SMOOTH",
"51 26 LINE SMOOTH",
"51 11 OFFCURVE",
"62 0 OFFCURVE",
"77 0 CURVE SMOOTH",
"111 0 LINE SMOOTH",
"126 0 OFFCURVE",
"136 11 OFFCURVE",
"136 26 CURVE SMOOTH",
"136 275 OFFCURVE",
"134 401 OFFCURVE",
"131 475 CURVE",
"194 350 LINE SMOOTH",
"215 307 OFFCURVE",
"240 271 OFFCURVE",
"288 271 CURVE SMOOTH",
"336 271 OFFCURVE",
"360 307 OFFCURVE",
"382 350 CURVE SMOOTH",
"444 475 LINE",
"441 401 OFFCURVE",
"439 275 OFFCURVE",
"439 26 CURVE SMOOTH",
"439 11 OFFCURVE",
"450 0 OFFCURVE",
"465 0 CURVE SMOOTH",
"499 0 LINE SMOOTH",
"514 0 OFFCURVE",
"524 11 OFFCURVE",
"524 26 CURVE SMOOTH",
"524 680 LINE SMOOTH",
"524 696 OFFCURVE",
"515 705 OFFCURVE",
"498 705 CURVE SMOOTH"
);
}
);
width = 575;
},
{
associatedMasterId = "FB732A47-0020-4E5B-B7FA-72B1D79E8828";
layerId = "A2BBEF38-7A14-4F66-A923-37756C42EB97";
name = "Bold Aug 24 14, 22:49";
paths = (
{
closed = 1;
nodes = (
"524 680 LINE SMOOTH",
"524 696 OFFCURVE",
"515 705 OFFCURVE",
"498 705 CURVE SMOOTH",
"462 705 OFFCURVE",
"447 700 OFFCURVE",
"432 669 CURVE SMOOTH",
"313 430 LINE SMOOTH",
"308 419 OFFCURVE",
"301 409 OFFCURVE",
"288 409 CURVE SMOOTH",
"275 409 OFFCURVE",
"268 419 OFFCURVE",
"262 430 CURVE SMOOTH",
"144 667 LINE SMOOTH",
"129 696 OFFCURVE",
"115 705 OFFCURVE",
"78 705 CURVE SMOOTH",
"60 705 OFFCURVE",
"51 696 OFFCURVE",
"51 680 CURVE SMOOTH",
"51 25 LINE SMOOTH",
"51 9 OFFCURVE",
"60 0 OFFCURVE",
"76 0 CURVE SMOOTH",
"161 0 LINE SMOOTH",
"178 0 OFFCURVE",
"186 7 OFFCURVE",
"186 20 CURVE SMOOTH",
"186 289 OFFCURVE",
"185 407 OFFCURVE",
"182 424 CURVE",
"194 400 LINE SMOOTH",
"215 357 OFFCURVE",
"240 321 OFFCURVE",
"288 321 CURVE SMOOTH",
"336 321 OFFCURVE",
"361 357 OFFCURVE",
"382 400 CURVE SMOOTH",
"394 425 LINE",
"391 408 OFFCURVE",
"389 290 OFFCURVE",
"389 20 CURVE SMOOTH",
"389 7 OFFCURVE",
"398 0 OFFCURVE",
"414 0 CURVE SMOOTH",
"499 0 LINE SMOOTH",
"516 0 OFFCURVE",
"524 9 OFFCURVE",
"524 25 CURVE SMOOTH"
);
}
);
width = 575;
},
{
layerId = "8A9476DE-11F4-4864-A7B4-14D9B7165FAE";
paths = (
{
closed = 1;
nodes = (
"596 696 OFFCURVE",
"588 705 OFFCURVE",
"570 705 CURVE SMOOTH",
"554 705 LINE SMOOTH",
"526 705 OFFCURVE",
"505 694 OFFCURVE",
"489 669 CURVE SMOOTH",
"312 399 LINE",
"219 669 LINE SMOOTH",
"211 694 OFFCURVE",
"194 705 OFFCURVE",
"166 705 CURVE SMOOTH",
"150 705 LINE SMOOTH",
"132 705 OFFCURVE",
"122 696 OFFCURVE",
"119 680 CURVE SMOOTH",
"-4 26 LINE SMOOTH",
"-7 11 OFFCURVE",
"2 0 OFFCURVE",
"17 0 CURVE SMOOTH",
"51 0 LINE SMOOTH",
"66 0 OFFCURVE",
"77 11 OFFCURVE",
"81 26 CURVE SMOOTH",
"180 540 LINE",
"256 318 LINE SMOOTH",
"260 305 OFFCURVE",
"268 300 OFFCURVE",
"282 300 CURVE SMOOTH",
"310 300 LINE SMOOTH",
"324 300 OFFCURVE",
"334 305 OFFCURVE",
"342 318 CURVE SMOOTH",
"488 540 LINE",
"425 26 LINE SMOOTH",
"423 11 OFFCURVE",
"430 0 OFFCURVE",
"445 0 CURVE SMOOTH",
"479 0 LINE SMOOTH",
"494 0 OFFCURVE",
"507 11 OFFCURVE",
"510 26 CURVE",
"593 680 LINE"
);
}
);
width = 575;
},
{
layerId = "C492240F-DFB2-48B7-8D1C-81E7E6E3599E";
paths = (
{
closed = 1;
nodes = (
"607 712 OFFCURVE",
"595 725 OFFCURVE",
"572 725 CURVE SMOOTH",
"556 725 LINE SMOOTH",
"524 725 OFFCURVE",
"498 711 OFFCURVE",
"481 683 CURVE SMOOTH",
"315 431 LINE",
"229 683 LINE SMOOTH",
"220 711 OFFCURVE",
"200 725 OFFCURVE",
"168 725 CURVE SMOOTH",
"152 725 LINE SMOOTH",
"129 725 OFFCURVE",
"113 712 OFFCURVE",
"109 690 CURVE SMOOTH",
"-14 36 LINE SMOOTH",
"-18 16 OFFCURVE",
"-4 0 OFFCURVE",
"16 0 CURVE SMOOTH",
"50 0 LINE SMOOTH",
"70 0 OFFCURVE",
"86 14 OFFCURVE",
"90 35 CURVE SMOOTH",
"187 540 LINE",
"251 354 LINE SMOOTH",
"255 338 OFFCURVE",
"267 330 OFFCURVE",
"285 330 CURVE SMOOTH",
"313 330 LINE SMOOTH",
"331 330 OFFCURVE",
"345 338 OFFCURVE",
"355 354 CURVE SMOOTH",
"477 540 LINE",
"415 36 LINE SMOOTH",
"412 14 OFFCURVE",
"424 0 OFFCURVE",
"444 0 CURVE SMOOTH",
"478 0 LINE SMOOTH",
"498 0 OFFCURVE",
"516 16 OFFCURVE",
"520 36 CURVE",
"603 690 LINE"
);
}
);
width = 575;
},
{
associatedMasterId = "A14B1AE3-86D5-4EA7-AE2F-7B4FA04DAB2E";
hints = (
{
horizontal = 1;
origin = "{0, 16}";
target = up;
type = BottomGhost;
},
{
horizontal = 1;
origin = "{0, 9}";
target = down;
type = TopGhost;
},
{
origin = "{0, 13}";
target = "{0, 20}";
type = Stem;
},
{
origin = "{0, 35}";
target = "{0, 42}";
type = Stem;
}
);
layerId = "2EA24EB4-50B4-4827-810B-A0FEEBF5D559";
name = "Regular Jan 31 15, 15:08";
paths = (
{
closed = 1;
nodes = (
"476 705 LINE SMOOTH",
"462 705 OFFCURVE",
"453 700 OFFCURVE",
"447 687 CURVE SMOOTH",
"288 369 LINE",
"129 687 LINE SMOOTH",
"123 700 OFFCURVE",
"113 705 OFFCURVE",
"99 705 CURVE SMOOTH",
"78 705 LINE SMOOTH",
"60 705 OFFCURVE",
"51 696 OFFCURVE",
"51 680 CURVE SMOOTH",
"51 26 LINE SMOOTH",
"51 11 OFFCURVE",
"62 0 OFFCURVE",
"77 0 CURVE SMOOTH",
"111 0 LINE SMOOTH",
"126 0 OFFCURVE",
"136 11 OFFCURVE",
"136 26 CURVE SMOOTH",
"136 275 OFFCURVE",
"134 441 OFFCURVE",
"131 515 CURVE",
"245 288 LINE SMOOTH",
"251 275 OFFCURVE",
"260 270 OFFCURVE",
"274 270 CURVE SMOOTH",
"301 270 LINE SMOOTH",
"315 270 OFFCURVE",
"325 275 OFFCURVE",
"331 288 CURVE SMOOTH",
"444 515 LINE",
"441 441 OFFCURVE",
"439 275 OFFCURVE",
"439 26 CURVE SMOOTH",
"439 11 OFFCURVE",
"450 0 OFFCURVE",
"465 0 CURVE SMOOTH",
"499 0 LINE SMOOTH",
"514 0 OFFCURVE",
"524 11 OFFCURVE",
"524 26 CURVE SMOOTH",
"524 680 LINE SMOOTH",
"524 696 OFFCURVE",
"515 705 OFFCURVE",
"498 705 CURVE SMOOTH"
);
}
);
width = 575;
},
{
associatedMasterId = "A14B1AE3-86D5-4EA7-AE2F-7B4FA04DAB2E";
layerId = "EB323E44-F49D-48EC-8547-54FFD746B90A";
name = "Regular Jan 31 15, 16:43";
paths = (
{
closed = 1;
nodes = (
"288 490 LINE",
"208 650 LINE SMOOTH",
"188 690 OFFCURVE",
"154 710 OFFCURVE",
"123 710 CURVE SMOOTH",
"85 710 OFFCURVE",
"51 680 OFFCURVE",
"51 620 CURVE SMOOTH",
"51 26 LINE SMOOTH",
"51 11 OFFCURVE",
"62 0 OFFCURVE",
"77 0 CURVE SMOOTH",
"111 0 LINE SMOOTH",
"126 0 OFFCURVE",
"136 11 OFFCURVE",
"136 26 CURVE SMOOTH",
"136 625 LINE",
"254 389 LINE",
"264 371 OFFCURVE",
"276 361 OFFCURVE",
"288 361 CURVE SMOOTH",
"300 361 OFFCURVE",
"313 371 OFFCURVE",
"322 389 CURVE SMOOTH",
"440 625 LINE",
"440 26 LINE SMOOTH",
"440 11 OFFCURVE",
"450 0 OFFCURVE",
"465 0 CURVE SMOOTH",
"499 0 LINE SMOOTH",
"514 0 OFFCURVE",
"525 11 OFFCURVE",
"525 26 CURVE SMOOTH",
"525 620 LINE SMOOTH",
"525 680 OFFCURVE",
"491 710 OFFCURVE",
"453 710 CURVE SMOOTH",
"422 710 OFFCURVE",
"388 690 OFFCURVE",
"368 650 CURVE SMOOTH"
);
}
);
width = 575;
},
{
associatedMasterId = "A14B1AE3-86D5-4EA7-AE2F-7B4FA04DAB2E";
layerId = "A56985D8-C1BA-48B2-AB33-FFA73D380421";
name = "Regular Jan 31 15, 16:55";
paths = (
{
closed = 1;
nodes = (
"288 380 LINE",
"224 636 LINE SMOOTH",
"213 680 OFFCURVE",
"180 708 OFFCURVE",
"140 708 CURVE SMOOTH",
"85 708 OFFCURVE",
"51 673 OFFCURVE",
"51 616 CURVE SMOOTH",
"51 26 LINE SMOOTH",
"51 11 OFFCURVE",
"62 0 OFFCURVE",
"77 0 CURVE SMOOTH",
"111 0 LINE SMOOTH",
"126 0 OFFCURVE",
"136 11 OFFCURVE",
"136 26 CURVE SMOOTH",
"136 640 LINE",
"195 403 LINE SMOOTH",
"210 343 OFFCURVE",
"241 313 OFFCURVE",
"288 313 CURVE SMOOTH",
"335 313 OFFCURVE",
"365 343 OFFCURVE",
"380 403 CURVE SMOOTH",
"439 640 LINE",
"439 26 LINE SMOOTH",
"439 11 OFFCURVE",
"449 0 OFFCURVE",
"464 0 CURVE SMOOTH",
"498 0 LINE SMOOTH",
"513 0 OFFCURVE",
"524 11 OFFCURVE",
"524 26 CURVE SMOOTH",
"524 616 LINE SMOOTH",
"524 673 OFFCURVE",
"490 708 OFFCURVE",
"435 708 CURVE SMOOTH",
"395 708 OFFCURVE",
"362 680 OFFCURVE",
"351 636 CURVE SMOOTH"
);
}
);
width = 575;
},
{
associatedMasterId = "A14B1AE3-86D5-4EA7-AE2F-7B4FA04DAB2E";
layerId = "082AF3A6-D95C-4BD2-A0FA-DBCB18FFEC4C";
name = "Regular Feb 2 15, 09:14";
paths = (
{
closed = 1;
nodes = (
"295 417 LINE SMOOTH",
"293 410 OFFCURVE",
"290 407 OFFCURVE",
"287 407 CURVE SMOOTH",
"284 407 OFFCURVE",
"281 410 OFFCURVE",
"279 417 CURVE SMOOTH",
"224 636 LINE SMOOTH",
"213 680 OFFCURVE",
"180 708 OFFCURVE",
"140 708 CURVE SMOOTH",
"85 708 OFFCURVE",
"51 673 OFFCURVE",
"51 616 CURVE SMOOTH",
"51 26 LINE SMOOTH",
"51 11 OFFCURVE",
"62 0 OFFCURVE",
"77 0 CURVE SMOOTH",
"111 0 LINE SMOOTH",
"126 0 OFFCURVE",
"136 11 OFFCURVE",
"136 26 CURVE SMOOTH",
"136 500 LINE SMOOTH",
"136 542 OFFCURVE",
"135 595 OFFCURVE",
"132 638 CURVE",
"131 646 OFFCURVE",
"134 650 OFFCURVE",
"138 650 CURVE SMOOTH",
"141 650 OFFCURVE",
"144 647 OFFCURVE",
"145 641 CURVE",
"195 433 LINE SMOOTH",
"213 359 OFFCURVE",
"240 329 OFFCURVE",
"287 329 CURVE SMOOTH",
"334 329 OFFCURVE",
"361 359 OFFCURVE",
"379 433 CURVE SMOOTH",
"429 641 LINE",
"430 647 OFFCURVE",
"433 650 OFFCURVE",
"436 650 CURVE SMOOTH",
"440 650 OFFCURVE",
"443 646 OFFCURVE",
"442 638 CURVE",
"439 595 OFFCURVE",
"438 542 OFFCURVE",
"438 500 CURVE SMOOTH",
"438 26 LINE SMOOTH",
"438 11 OFFCURVE",
"448 0 OFFCURVE",
"463 0 CURVE SMOOTH",
"497 0 LINE SMOOTH",
"512 0 OFFCURVE",
"523 11 OFFCURVE",
"523 26 CURVE SMOOTH",
"523 616 LINE SMOOTH",
"523 673 OFFCURVE",
"489 708 OFFCURVE",
"434 708 CURVE SMOOTH",
"394 708 OFFCURVE",
"361 680 OFFCURVE",
"350 636 CURVE SMOOTH"
);
}
);
width = 575;
},
{
associatedMasterId = "A14B1AE3-86D5-4EA7-AE2F-7B4FA04DAB2E";
layerId = "5E2DFA9B-14D0-4C2A-B11F-3284B54DC3B5";
name = "Regular Feb 5 15, 13:38";
paths = (
{
closed = 1;
nodes = (
"476 705 LINE SMOOTH",
"462 705 OFFCURVE",
"453 700 OFFCURVE",
"447 687 CURVE SMOOTH",
"288 369 LINE",
"129 687 LINE SMOOTH",
"123 700 OFFCURVE",
"113 705 OFFCURVE",
"99 705 CURVE SMOOTH",
"78 705 LINE SMOOTH",
"60 705 OFFCURVE",
"51 696 OFFCURVE",
"51 680 CURVE SMOOTH",
"51 26 LINE SMOOTH",
"51 11 OFFCURVE",
"62 0 OFFCURVE",
"77 0 CURVE SMOOTH",
"111 0 LINE SMOOTH",
"126 0 OFFCURVE",
"136 11 OFFCURVE",
"136 26 CURVE SMOOTH",
"136 275 OFFCURVE",
"134 441 OFFCURVE",
"131 515 CURVE",
"245 288 LINE SMOOTH",
"251 275 OFFCURVE",
"260 270 OFFCURVE",
"274 270 CURVE SMOOTH",
"301 270 LINE SMOOTH",
"315 270 OFFCURVE",
"325 275 OFFCURVE",
"331 288 CURVE SMOOTH",
"444 515 LINE",
"441 441 OFFCURVE",
"439 275 OFFCURVE",
"439 26 CURVE SMOOTH",
"439 11 OFFCURVE",
"450 0 OFFCURVE",
"465 0 CURVE SMOOTH",
"499 0 LINE SMOOTH",
"514 0 OFFCURVE",
"524 11 OFFCURVE",
"524 26 CURVE SMOOTH",
"524 680 LINE SMOOTH",
"524 696 OFFCURVE",
"515 705 OFFCURVE",
"498 705 CURVE SMOOTH"
);
}
);
width = 575;
},
{
associatedMasterId = "A14B1AE3-86D5-4EA7-AE2F-7B4FA04DAB2E";
layerId = "B30BAD2B-414C-4C65-9DC3-75FB651E5E82";
name = "Regular Feb 6 15, 10:36";
paths = (
{
closed = 1;
nodes = (
"465 700 LINE SMOOTH",
"397 700 OFFCURVE",
"356 673 OFFCURVE",
"343 620 CURVE SMOOTH",
"287.5 398.421 LINE",
"232 620 LINE SMOOTH",
"219 673 OFFCURVE",
"178 700 OFFCURVE",
"110 700 CURVE SMOOTH",
"77 700 LINE SMOOTH",
"59 700 OFFCURVE",
"50 696 OFFCURVE",
"50 680 CURVE SMOOTH",
"50 26 LINE SMOOTH",
"50 11 OFFCURVE",
"61 0 OFFCURVE",
"76 0 CURVE SMOOTH",
"110 0 LINE SMOOTH",
"125 0 OFFCURVE",
"135 11 OFFCURVE",
"135 26 CURVE SMOOTH",
"135 643 LINE",
"145 642 OFFCURVE",
"152 636 OFFCURVE",
"154 627 CURVE SMOOTH",
"249.377 246.216 LINE",
"325.623 246.216 LINE",
"421 627 LINE SMOOTH",
"423 636 OFFCURVE",
"430 642 OFFCURVE",
"440 643 CURVE",
"440 26 LINE SMOOTH",
"440 11 OFFCURVE",
"450 0 OFFCURVE",
"465 0 CURVE SMOOTH",
"499 0 LINE SMOOTH",
"514 0 OFFCURVE",
"525 11 OFFCURVE",
"525 26 CURVE SMOOTH",
"525 680 LINE SMOOTH",
"525 696 OFFCURVE",
"516 700 OFFCURVE",
"498 700 CURVE SMOOTH"
);
}
);
width = 575;
},
{
associatedMasterId = "A14B1AE3-86D5-4EA7-AE2F-7B4FA04DAB2E";
layerId = "0AD06BAF-C611-4CEA-BEF3-3A0EDE20C261";
name = "Regular Feb 11 15, 21:00";
paths = (
{
closed = 1;
nodes = (
"380 700 OFFCURVE",
"342 673 OFFCURVE",
"333 620 CURVE SMOOTH",
"289 358 LINE",
"242 620 LINE SMOOTH",
"232 673 OFFCURVE",
"194 700 OFFCURVE",
"130 700 CURVE SMOOTH",
"94 700 LINE SMOOTH",
"78 700 OFFCURVE",
"69 692 OFFCURVE",
"68 676 CURVE SMOOTH",
"23 26 LINE SMOOTH",
"22 9 OFFCURVE",
"30 0 OFFCURVE",
"46 0 CURVE SMOOTH",
"86 0 LINE SMOOTH",
"102 0 OFFCURVE",
"111 8 OFFCURVE",
"112 24 CURVE SMOOTH",
"145 643 LINE",
"155 642 OFFCURVE",
"162 637 OFFCURVE",
"164 627 CURVE SMOOTH",
"244 258 LINE SMOOTH",
"247 243 OFFCURVE",
"256 236 OFFCURVE",
"271 236 CURVE SMOOTH",
"304 236 LINE SMOOTH",
"319 236 OFFCURVE",
"328 243 OFFCURVE",
"331 258 CURVE SMOOTH",
"411 627 LINE SMOOTH",
"413 637 OFFCURVE",
"420 642 OFFCURVE",
"430 643 CURVE",
"463 24 LINE SMOOTH",
"464 8 OFFCURVE",
"473 0 OFFCURVE",
"489 0 CURVE SMOOTH",
"529 0 LINE SMOOTH",
"545 0 OFFCURVE",
"553 9 OFFCURVE",
"552 26 CURVE SMOOTH",
"507 676 LINE SMOOTH",
"506 692 OFFCURVE",
"497 700 OFFCURVE",
"481 700 CURVE SMOOTH",
"445 700 LINE SMOOTH"
);
}
);
width = 575;
},
{
associatedMasterId = "A14B1AE3-86D5-4EA7-AE2F-7B4FA04DAB2E";
layerId = "A4899836-4005-496A-9CF3-9FFB2CD77A27";
name = "Regular Feb 23 15, 17:40";
paths = (
{
closed = 1;
nodes = (
"438 700 LINE SMOOTH",
"366 700 OFFCURVE",
"339 670 OFFCURVE",
"331 610 CURVE SMOOTH",
"305 412 LINE SMOOTH",
"304 404 OFFCURVE",
"298 400 OFFCURVE",
"288 400 CURVE SMOOTH",
"278 400 OFFCURVE",
"272 404 OFFCURVE",
"271 412 CURVE SMOOTH",
"245 610 LINE SMOOTH",
"237 670 OFFCURVE",
"210 700 OFFCURVE",
"138 700 CURVE SMOOTH",
"80 700 LINE SMOOTH",
"62 700 OFFCURVE",
"53 696 OFFCURVE",
"53 680 CURVE SMOOTH",
"53 26 LINE SMOOTH",
"53 11 OFFCURVE",
"64 0 OFFCURVE",
"79 0 CURVE SMOOTH",
"113 0 LINE SMOOTH",
"128 0 OFFCURVE",
"138 11 OFFCURVE",
"138 26 CURVE SMOOTH",
"138 643 LINE",
"158 641 OFFCURVE",
"170 632 OFFCURVE",
"172 617 CURVE SMOOTH",
"201 402 LINE SMOOTH",
"208 347 OFFCURVE",
"234 325 OFFCURVE",
"288 325 CURVE SMOOTH",
"342 325 OFFCURVE",
"368 347 OFFCURVE",
"375 402 CURVE SMOOTH",
"404 617 LINE SMOOTH",
"406 632 OFFCURVE",
"418 641 OFFCURVE",
"438 643 CURVE",
"438 26 LINE SMOOTH",
"438 11 OFFCURVE",
"448 0 OFFCURVE",
"463 0 CURVE SMOOTH",
"497 0 LINE SMOOTH",
"512 0 OFFCURVE",
"523 11 OFFCURVE",
"523 26 CURVE SMOOTH",
"523 680 LINE SMOOTH",
"523 696 OFFCURVE",
"514 700 OFFCURVE",
"496 700 CURVE SMOOTH"
);
}
);
width = 575;
}
);
unicode = 004D;
},
{
glyphname = N;
lastChange = "2019-04-26 18:58:37 +0000";
layers = (
{
background = {
paths = (
{
closed = 1;
nodes = (
"262 380 LINE",
"109 687 LINE SMOOTH",
"103 700 OFFCURVE",
"93 705 OFFCURVE",
"79 705 CURVE SMOOTH",
"78 705 LINE SMOOTH",
"60 705 OFFCURVE",
"51 696 OFFCURVE",
"51 680 CURVE SMOOTH",
"51 26 LINE SMOOTH",
"51 11 OFFCURVE",
"62 0 OFFCURVE",
"77 0 CURVE SMOOTH",
"111 0 LINE SMOOTH",
"126 0 OFFCURVE",
"136 11 OFFCURVE",
"136 26 CURVE SMOOTH",
"136 275 OFFCURVE",
"134 401 OFFCURVE",
"131 475 CURVE",
"194 350 LINE"
);
},
{
closed = 1;
nodes = (
"299 121 LINE",
"373 158 LINE",
"262 380 LINE",
"188 343 LINE"
);
}
);
};
hints = (
{
horizontal = 1;
place = "{21.5, -21.5}";
type = Stem;
},
{
horizontal = 1;
place = "{699.99, -20.48}";
type = Stem;
},
{
origin = "{0, 13}";
target = "{0, 20}";
type = Stem;
},
{
origin = "{0, 4}";
target = "{0, 29}";
type = Stem;
},
{
horizontal = 1;
origin = "{0, 16}";
type = Anchor;
options = 4;
},
{
horizontal = 1;
origin = "{0, 9}";
type = Anchor;
options = 4;
}
);
layerId = "A14B1AE3-86D5-4EA7-AE2F-7B4FA04DAB2E";
paths = (
{
closed = 1;
nodes = (
"446 700 LINE SMOOTH",
"431 700 OFFCURVE",
"421 689 OFFCURVE",
"421 674 CURVE SMOOTH",
"421 169 LINE",
"171 669 LINE SMOOTH",
"159 694 OFFCURVE",
"140 700 OFFCURVE",
"112 700 CURVE SMOOTH",
"96 700 LINE SMOOTH",
"78 700 OFFCURVE",
"69 691 OFFCURVE",
"69 675 CURVE SMOOTH",
"69 26 LINE SMOOTH",
"69 11 OFFCURVE",
"80 0 OFFCURVE",
"95 0 CURVE SMOOTH",
"129 0 LINE SMOOTH",
"144 0 OFFCURVE",
"154 11 OFFCURVE",
"154 26 CURVE SMOOTH",
"154 527 LINE",
"404 36 LINE SMOOTH",
"417 11 OFFCURVE",
"435 0 OFFCURVE",
"463 0 CURVE SMOOTH",
"479 0 LINE SMOOTH",
"497 0 OFFCURVE",
"506 9 OFFCURVE",
"506 25 CURVE SMOOTH",
"506 674 LINE SMOOTH",
"506 689 OFFCURVE",
"495 700 OFFCURVE",
"480 700 CURVE SMOOTH"
);
}
);
width = 575;
},
{
anchors = (
{
name = bottom;
position = "{288, 0}";
},
{
name = top;
position = "{288, 700}";
}
);
hints = (
{
horizontal = 1;
origin = "{0, 8}";
type = Anchor;
},
{
horizontal = 1;
origin = "{0, 17}";
type = Anchor;
}
);
layerId = "FB732A47-0020-4E5B-B7FA-72B1D79E8828";
paths = (
{
closed = 1;
nodes = (
"446 725 LINE SMOOTH",
"426 725 OFFCURVE",
"411 710 OFFCURVE",
"411 689 CURVE SMOOTH",
"411 201 LINE",
"180 683 LINE SMOOTH",
"166 711 OFFCURVE",
"144 725 OFFCURVE",
"112 725 CURVE SMOOTH",
"96 725 LINE SMOOTH",
"73 725 OFFCURVE",
"59 712 OFFCURVE",
"59 690 CURVE SMOOTH",
"59 36 LINE SMOOTH",
"59 16 OFFCURVE",
"75 0 OFFCURVE",
"95 0 CURVE SMOOTH",
"129 0 LINE SMOOTH",
"149 0 OFFCURVE",
"164 15 OFFCURVE",
"164 36 CURVE SMOOTH",
"164 515 LINE",
"395 41 LINE SMOOTH",
"409 13 OFFCURVE",
"432 0 OFFCURVE",
"463 0 CURVE SMOOTH",
"479 0 LINE SMOOTH",
"502 0 OFFCURVE",
"516 13 OFFCURVE",
"516 35 CURVE SMOOTH",
"516 689 LINE SMOOTH",
"516 709 OFFCURVE",
"500 725 OFFCURVE",
"480 725 CURVE SMOOTH"
);
}
);
width = 575;
},
{
anchors = (
{
name = bottom;
position = "{288, 0}";
},
{
name = top;
position = "{288, 700}";
}
);
associatedMasterId = "A14B1AE3-86D5-4EA7-AE2F-7B4FA04DAB2E";
hints = (
{
place = "{0, 0}";
type = Stem;
},
{
place = "{0, 0}";
type = Stem;
},
{
horizontal = 1;
place = "{0, 0}";
type = Stem;
},
{
horizontal = 1;
place = "{0, 0}";
type = Stem;
}
);
layerId = "F0EBB4F6-73C6-4D6A-BC8F-F61F7E337B55";
name = "Regular Dec 27 13, 23:18";
paths = (
{
closed = 1;
nodes = (
"447 700 LINE SMOOTH",
"431 700 OFFCURVE",
"422 691 OFFCURVE",
"422 675 CURVE SMOOTH",
"422 497 OFFCURVE",
"423 330 OFFCURVE",
"427 166 CURVE",
"160 658 LINE",
"142 691 OFFCURVE",
"130 705 OFFCURVE",
"88 705 CURVE SMOOTH",
"75 705 OFFCURVE",
"68 697 OFFCURVE",
"68 680 CURVE SMOOTH",
"68 25 LINE SMOOTH",
"68 9 OFFCURVE",
"77 0 OFFCURVE",
"93 0 CURVE SMOOTH",
"128 0 LINE SMOOTH",
"144 0 OFFCURVE",
"153 9 OFFCURVE",
"153 25 CURVE SMOOTH",
"153 199 OFFCURVE",
"152 362 OFFCURVE",
"149 522 CURVE",
"415 30 LINE",
"433 -2 OFFCURVE",
"447 -5 OFFCURVE",
"487 -5 CURVE SMOOTH",
"500 -5 OFFCURVE",
"507 4 OFFCURVE",
"507 20 CURVE SMOOTH",
"507 675 LINE SMOOTH",
"507 691 OFFCURVE",
"499 700 OFFCURVE",
"482 700 CURVE SMOOTH"
);
}
);
width = 575;
},
{
anchors = (
{
name = bottom;
position = "{288, 0}";
},
{
name = top;
position = "{288, 700}";
}
);
associatedMasterId = "A14B1AE3-86D5-4EA7-AE2F-7B4FA04DAB2E";
hints = (
{
horizontal = 1;
place = "{0, 0}";
type = Stem;
},
{
horizontal = 1;
place = "{0, 0}";
type = Stem;
}
);
layerId = "67F167FA-5880-4C8B-BA68-0A5BF5460C80";
name = "Regular Jan 6 14, 22:39";
paths = (
{
closed = 1;
nodes = (
"434 700 LINE SMOOTH",
"418 700 OFFCURVE",
"409 693 OFFCURVE",
"409 680 CURVE SMOOTH",
"409 521 OFFCURVE",
"415 342 OFFCURVE",
"424 176 CURVE",
"178 669 LINE SMOOTH",
"166 692 OFFCURVE",
"149 705 OFFCURVE",
"131 705 CURVE SMOOTH",
"108 705 LINE SMOOTH",
"90 705 OFFCURVE",
"81 696 OFFCURVE",
"81 680 CURVE SMOOTH",
"81 25 LINE SMOOTH",
"81 9 OFFCURVE",
"90 0 OFFCURVE",
"106 0 CURVE SMOOTH",
"141 0 LINE SMOOTH",
"157 0 OFFCURVE",
"166 7 OFFCURVE",
"166 20 CURVE SMOOTH",
"166 235 OFFCURVE",
"163 414 OFFCURVE",
"156 525 CURVE",
"398 32 LINE",
"408 8 OFFCURVE",
"426 -5 OFFCURVE",
"444 -5 CURVE SMOOTH",
"468 -5 LINE SMOOTH",
"485 -5 OFFCURVE",
"494 4 OFFCURVE",
"494 20 CURVE SMOOTH",
"494 675 LINE SMOOTH",
"494 691 OFFCURVE",
"486 700 OFFCURVE",
"469 700 CURVE SMOOTH"
);
}
);
width = 575;
},
{
anchors = (
{
name = bottom;
position = "{288, 0}";
},
{
name = top;
position = "{288, 700}";
}
);
associatedMasterId = "FB732A47-0020-4E5B-B7FA-72B1D79E8828";
layerId = "4CAC610D-985A-4C82-87C5-939BAFE27CC4";
name = "Bold Aug 24 14, 22:51";
paths = (
{
closed = 1;
nodes = (
"507 675 LINE SMOOTH",
"507 691 OFFCURVE",
"499 700 OFFCURVE",
"482 700 CURVE SMOOTH",
"397 700 LINE SMOOTH",
"381 700 OFFCURVE",
"372 691 OFFCURVE",
"372 675 CURVE SMOOTH",
"372 443 OFFCURVE",
"374 323 OFFCURVE",
"377 266 CURVE",
"160 658 LINE SMOOTH",
"142 692 OFFCURVE",
"130 705 OFFCURVE",
"88 705 CURVE SMOOTH",
"75 705 OFFCURVE",
"68 697 OFFCURVE",
"68 680 CURVE SMOOTH",
"68 25 LINE SMOOTH",
"68 9 OFFCURVE",
"77 0 OFFCURVE",
"93 0 CURVE SMOOTH",
"178 0 LINE SMOOTH",
"194 0 OFFCURVE",
"203 9 OFFCURVE",
"203 25 CURVE SMOOTH",
"203 291 OFFCURVE",
"202 352 OFFCURVE",
"199 422 CURVE",
"415 30 LINE SMOOTH",
"433 -2 OFFCURVE",
"447 -5 OFFCURVE",
"487 -5 CURVE SMOOTH",
"500 -5 OFFCURVE",
"507 4 OFFCURVE",
"507 20 CURVE SMOOTH"
);
}
);
width = 575;
},
{
layerId = "8A9476DE-11F4-4864-A7B4-14D9B7165FAE";
paths = (
{
closed = 1;
nodes = (
"518 705 LINE SMOOTH",
"503 705 OFFCURVE",
"491 694 OFFCURVE",
"489 679 CURVE SMOOTH",
"408 169 LINE",
"237 669 LINE SMOOTH",
"229 694 OFFCURVE",
"212 705 OFFCURVE",
"184 705 CURVE SMOOTH",
"168 705 LINE SMOOTH",
"150 705 OFFCURVE",
"140 696 OFFCURVE",
"137 680 CURVE SMOOTH",
"34 26 LINE SMOOTH",
"31 11 OFFCURVE",
"40 0 OFFCURVE",
"55 0 CURVE SMOOTH",
"89 0 LINE SMOOTH",
"104 0 OFFCURVE",
"116 11 OFFCURVE",
"119 26 CURVE SMOOTH",
"198 527 LINE",
"370 36 LINE SMOOTH",
"379 11 OFFCURVE",
"395 0 OFFCURVE",
"423 0 CURVE SMOOTH",
"439 0 LINE SMOOTH",
"457 0 OFFCURVE",
"468 9 OFFCURVE",
"470 25 CURVE SMOOTH",
"574 679 LINE SMOOTH",
"576 694 OFFCURVE",
"567 705 OFFCURVE",
"552 705 CURVE SMOOTH"
);
}
);
width = 575;
},
{
layerId = "C492240F-DFB2-48B7-8D1C-81E7E6E3599E";
paths = (
{
closed = 1;
nodes = (
"520 725 LINE SMOOTH",
"500 725 OFFCURVE",
"482 710 OFFCURVE",
"479 689 CURVE SMOOTH",
"402 201 LINE",
"247 683 LINE SMOOTH",
"237 711 OFFCURVE",
"218 725 OFFCURVE",
"186 725 CURVE SMOOTH",
"170 725 LINE SMOOTH",
"147 725 OFFCURVE",
"131 712 OFFCURVE",
"127 690 CURVE SMOOTH",
"24 36 LINE SMOOTH",
"20 16 OFFCURVE",
"34 0 OFFCURVE",
"54 0 CURVE SMOOTH",
"88 0 LINE SMOOTH",
"108 0 OFFCURVE",
"125 15 OFFCURVE",
"129 36 CURVE SMOOTH",
"204 515 LINE",
"360 41 LINE SMOOTH",
"370 13 OFFCURVE",
"391 0 OFFCURVE",
"422 0 CURVE SMOOTH",
"438 0 LINE SMOOTH",
"461 0 OFFCURVE",
"477 13 OFFCURVE",
"480 35 CURVE SMOOTH",
"584 689 LINE SMOOTH",
"587 709 OFFCURVE",
"574 725 OFFCURVE",
"554 725 CURVE SMOOTH"
);
}
);
width = 575;
},
{
anchors = (
{
name = bottom;
position = "{288, 0}";
},
{
name = top;
position = "{288, 700}";
}
);
associatedMasterId = "A14B1AE3-86D5-4EA7-AE2F-7B4FA04DAB2E";
background = {
paths = (
{
closed = 1;
nodes = (
"262 380 LINE",
"109 687 LINE SMOOTH",
"103 700 OFFCURVE",
"93 705 OFFCURVE",
"79 705 CURVE SMOOTH",
"78 705 LINE SMOOTH",
"60 705 OFFCURVE",
"51 696 OFFCURVE",
"51 680 CURVE SMOOTH",
"51 26 LINE SMOOTH",
"51 11 OFFCURVE",
"62 0 OFFCURVE",
"77 0 CURVE SMOOTH",
"111 0 LINE SMOOTH",
"126 0 OFFCURVE",
"136 11 OFFCURVE",
"136 26 CURVE SMOOTH",
"136 275 OFFCURVE",
"134 401 OFFCURVE",
"131 475 CURVE",
"194 350 LINE"
);
},
{
closed = 1;
nodes = (
"299 121 LINE",
"373 158 LINE",
"262 380 LINE",
"188 343 LINE"
);
}
);
};
hints = (
{
horizontal = 1;
origin = "{0, 11}";
target = down;
type = TopGhost;
},
{
horizontal = 1;
origin = "{0, 19}";
target = up;
type = BottomGhost;
},
{
origin = "{0, 15}";
target = "{0, 22}";
type = Stem;
},
{
origin = "{0, 3}";
target = "{0, 34}";
type = Stem;
}
);
layerId = "507F80E5-A4DE-4B16-B13A-DA2F8D7CD793";
name = "Regular Jan 31 15, 16:21";
paths = (
{
closed = 1;
nodes = (
"451 700 LINE SMOOTH",
"436 700 OFFCURVE",
"425 690 OFFCURVE",
"425 675 CURVE SMOOTH",
"425 435.347 OFFCURVE",
"427.454 241.493 OFFCURVE",
"430.881 156.308 CURVE",
"166 687 LINE SMOOTH",
"160 700 OFFCURVE",
"150 705 OFFCURVE",
"136 705 CURVE SMOOTH",
"92 705 LINE SMOOTH",
"74 705 OFFCURVE",
"65 696 OFFCURVE",
"65 680 CURVE SMOOTH",
"65 26 LINE SMOOTH",
"65 11 OFFCURVE",
"76 0 OFFCURVE",
"91 0 CURVE SMOOTH",
"125 0 LINE SMOOTH",
"140 0 OFFCURVE",
"150 11 OFFCURVE",
"150 26 CURVE SMOOTH",
"150 250.393 OFFCURVE",
"148.237 424.539 OFFCURVE",
"143.883 544.303 CURVE",
"410 13 LINE SMOOTH",
"416 1 OFFCURVE",
"425 -5 OFFCURVE",
"439 -5 CURVE SMOOTH",
"484 -5 LINE SMOOTH",
"501 -5 OFFCURVE",
"510 4 OFFCURVE",
"510 20 CURVE SMOOTH",
"510 675 LINE SMOOTH",
"510 690 OFFCURVE",
"500 700 OFFCURVE",
"485 700 CURVE SMOOTH"
);
}
);
width = 575;
},
{
associatedMasterId = "A14B1AE3-86D5-4EA7-AE2F-7B4FA04DAB2E";
background = {
paths = (
{
closed = 1;
nodes = (
"262 380 LINE",
"109 687 LINE SMOOTH",
"103 700 OFFCURVE",
"93 705 OFFCURVE",
"79 705 CURVE SMOOTH",
"78 705 LINE SMOOTH",
"60 705 OFFCURVE",
"51 696 OFFCURVE",
"51 680 CURVE SMOOTH",
"51 26 LINE SMOOTH",
"51 11 OFFCURVE",
"62 0 OFFCURVE",
"77 0 CURVE SMOOTH",
"111 0 LINE SMOOTH",
"126 0 OFFCURVE",
"136 11 OFFCURVE",
"136 26 CURVE SMOOTH",
"136 275 OFFCURVE",
"134 401 OFFCURVE",
"131 475 CURVE",
"194 350 LINE"
);
},
{
closed = 1;
nodes = (
"299 121 LINE",
"373 158 LINE",
"262 380 LINE",
"188 343 LINE"
);
}
);
};
hints = (
{
horizontal = 1;
place = "{705, -20}";
target = down;
type = TopGhost;
},
{
horizontal = 1;
place = "{0, 21}";
target = up;
type = BottomGhost;
}
);
layerId = "1C087210-05CC-4AAB-BE68-E2418F99B060";
name = "Regular Feb 2 15, 09:16";
paths = (
{
closed = 1;
nodes = (
"449 704 LINE SMOOTH",
"434 704 OFFCURVE",
"424 693 OFFCURVE",
"424 678 CURVE SMOOTH",
"424 83 LINE SMOOTH",
"424 67 OFFCURVE",
"419 59 OFFCURVE",
"414 59 CURVE SMOOTH",
"409 59 OFFCURVE",
"403 66 OFFCURVE",
"399 81 CURVE SMOOTH",
"260 636 LINE SMOOTH",
"248 683 OFFCURVE",
"205 706 OFFCURVE",
"163 706 CURVE SMOOTH",
"115 706 OFFCURVE",
"68 676 OFFCURVE",
"68 616 CURVE SMOOTH",
"68 26 LINE SMOOTH",
"68 11 OFFCURVE",
"79 0 OFFCURVE",
"94 0 CURVE SMOOTH",
"128 0 LINE SMOOTH",
"143 0 OFFCURVE",
"153 11 OFFCURVE",
"153 26 CURVE SMOOTH",
"153 617 LINE SMOOTH",
"153 633 OFFCURVE",
"158 641 OFFCURVE",
"163 641 CURVE SMOOTH",
"168 641 OFFCURVE",
"174 634 OFFCURVE",
"178 619 CURVE SMOOTH",
"317 64 LINE SMOOTH",
"329 17 OFFCURVE",
"372 -6 OFFCURVE",
"414 -6 CURVE SMOOTH",
"462 -6 OFFCURVE",
"509 24 OFFCURVE",
"509 84 CURVE SMOOTH",
"509 678 LINE SMOOTH",
"509 693 OFFCURVE",
"498 704 OFFCURVE",
"483 704 CURVE SMOOTH"
);
}
);
width = 575;
},
{
associatedMasterId = "A14B1AE3-86D5-4EA7-AE2F-7B4FA04DAB2E";
background = {
paths = (
{
closed = 1;
nodes = (
"262 380 LINE",
"109 687 LINE SMOOTH",
"103 700 OFFCURVE",
"93 705 OFFCURVE",
"79 705 CURVE SMOOTH",
"78 705 LINE SMOOTH",
"60 705 OFFCURVE",
"51 696 OFFCURVE",
"51 680 CURVE SMOOTH",
"51 26 LINE SMOOTH",
"51 11 OFFCURVE",
"62 0 OFFCURVE",
"77 0 CURVE SMOOTH",
"111 0 LINE SMOOTH",
"126 0 OFFCURVE",
"136 11 OFFCURVE",
"136 26 CURVE SMOOTH",
"136 275 OFFCURVE",
"134 401 OFFCURVE",
"131 475 CURVE",
"194 350 LINE"
);
},
{
closed = 1;
nodes = (
"299 121 LINE",
"373 158 LINE",
"262 380 LINE",
"188 343 LINE"
);
}
);
};
hints = (
{
horizontal = 1;
place = "{705, -20}";
target = down;
type = TopGhost;
},
{
horizontal = 1;
place = "{0, 21}";
target = up;
type = BottomGhost;
}
);
layerId = "09553BCB-41CE-4D1B-8811-D9B2AE168AC0";
name = "Regular Feb 5 15, 12:02";
paths = (
{
closed = 1;
nodes = (
"451 700 LINE SMOOTH",
"436 700 OFFCURVE",
"425 690 OFFCURVE",
"425 675 CURVE SMOOTH",
"425 435.347 OFFCURVE",
"427.454 241.493 OFFCURVE",
"430.881 156.308 CURVE",
"166 687 LINE SMOOTH",
"160 700 OFFCURVE",
"150 705 OFFCURVE",
"136 705 CURVE SMOOTH",
"92 705 LINE SMOOTH",
"74 705 OFFCURVE",
"65 696 OFFCURVE",
"65 680 CURVE SMOOTH",
"65 26 LINE SMOOTH",
"65 11 OFFCURVE",
"76 0 OFFCURVE",
"91 0 CURVE SMOOTH",
"125 0 LINE SMOOTH",
"140 0 OFFCURVE",
"150 11 OFFCURVE",
"150 26 CURVE SMOOTH",
"150 250.393 OFFCURVE",
"148.237 424.539 OFFCURVE",
"143.883 544.303 CURVE",
"410 13 LINE SMOOTH",
"416 1 OFFCURVE",
"425 -5 OFFCURVE",
"439 -5 CURVE SMOOTH",
"484 -5 LINE SMOOTH",
"501 -5 OFFCURVE",
"510 4 OFFCURVE",
"510 20 CURVE SMOOTH",
"510 675 LINE SMOOTH",
"510 690 OFFCURVE",
"500 700 OFFCURVE",
"485 700 CURVE SMOOTH"
);
}
);
width = 575;
},
{
associatedMasterId = "A14B1AE3-86D5-4EA7-AE2F-7B4FA04DAB2E";
background = {
paths = (
{
closed = 1;
nodes = (
"262 380 LINE",
"109 687 LINE SMOOTH",
"103 700 OFFCURVE",
"93 705 OFFCURVE",
"79 705 CURVE SMOOTH",
"78 705 LINE SMOOTH",
"60 705 OFFCURVE",
"51 696 OFFCURVE",
"51 680 CURVE SMOOTH",
"51 26 LINE SMOOTH",
"51 11 OFFCURVE",
"62 0 OFFCURVE",
"77 0 CURVE SMOOTH",
"111 0 LINE SMOOTH",
"126 0 OFFCURVE",
"136 11 OFFCURVE",
"136 26 CURVE SMOOTH",
"136 275 OFFCURVE",
"134 401 OFFCURVE",
"131 475 CURVE",
"194 350 LINE"
);
},
{
closed = 1;
nodes = (
"299 121 LINE",
"373 158 LINE",
"262 380 LINE",
"188 343 LINE"
);
}
);
};
hints = (
{
horizontal = 1;
place = "{705, -20}";
target = down;
type = TopGhost;
},
{
horizontal = 1;
place = "{0, 21}";
target = up;
type = BottomGhost;
}
);
layerId = "00E36F9D-9C43-40A3-BA78-9F11A0AD36F8";
name = "Regular Jun 9 15, 16:51";
paths = (
{
closed = 1;
nodes = (
"457 700 LINE SMOOTH",
"442 700 OFFCURVE",
"432 689 OFFCURVE",
"432 674 CURVE SMOOTH",
"432 57 LINE",
"414 59 OFFCURVE",
"402 67 OFFCURVE",
"398 83 CURVE SMOOTH",
"266 610 LINE SMOOTH",
"252 667 OFFCURVE",
"208 700 OFFCURVE",
"144 700 CURVE SMOOTH",
"86 700 LINE SMOOTH",
"68 700 OFFCURVE",
"59 696 OFFCURVE",
"59 680 CURVE SMOOTH",
"59 26 LINE SMOOTH",
"59 11 OFFCURVE",
"70 0 OFFCURVE",
"85 0 CURVE SMOOTH",
"119 0 LINE SMOOTH",
"134 0 OFFCURVE",
"144 11 OFFCURVE",
"144 26 CURVE SMOOTH",
"144 643 LINE",
"162 641 OFFCURVE",
"174 633 OFFCURVE",
"178 617 CURVE SMOOTH",
"310 90 LINE SMOOTH",
"324 33 OFFCURVE",
"368 0 OFFCURVE",
"432 0 CURVE SMOOTH",
"490 0 LINE SMOOTH",
"508 0 OFFCURVE",
"517 4 OFFCURVE",
"517 20 CURVE SMOOTH",
"517 674 LINE SMOOTH",
"517 689 OFFCURVE",
"506 700 OFFCURVE",
"491 700 CURVE SMOOTH"
);
}
);
width = 575;
}
);
unicode = 004E;
},
{
glyphname = O;
lastChange = "2016-06-09 18:35:33 +0000";
layers = (
{
anchors = (
{
name = top;
position = "{288, 700}";
}
);
hints = (
{
horizontal = 1;
origin = "{0, 6}";
target = "{1, 13}";
type = TTStem;
options = 4;
},
{
horizontal = 1;
origin = "{0, 13}";
target = "{1, 6}";
type = TTStem;
options = 4;
},
{
horizontal = 1;
origin = "{0, 6}";
target = "{1, 13}";
type = Stem;
},
{
horizontal = 1;
origin = "{0, 13}";
target = "{1, 6}";
type = Stem;
},
{
origin = "{0, 3}";
target = "{1, 2}";
type = Stem;
},
{
origin = "{1, 10}";
target = "{0, 9}";
type = Stem;
},
{
horizontal = 1;
origin = "{0, 6}";
target = "{1, 13}";
type = TTStem;
},
{
horizontal = 1;
origin = "{0, 13}";
target = "{1, 6}";
type = TTStem;
}
);
layerId = "A14B1AE3-86D5-4EA7-AE2F-7B4FA04DAB2E";
paths = (
{
closed = 1;
nodes = (
"170 710 OFFCURVE",
"85 624 OFFCURVE",
"85 457 CURVE SMOOTH",
"85 243 LINE SMOOTH",
"85 76 OFFCURVE",
"170 -10 OFFCURVE",
"288 -10 CURVE SMOOTH",
"406 -10 OFFCURVE",
"490 78 OFFCURVE",
"490 243 CURVE SMOOTH",
"490 457 LINE SMOOTH",
"490 622 OFFCURVE",
"406 710 OFFCURVE",
"288 710 CURVE SMOOTH"
);
},
{
closed = 1;
nodes = (
"223 66 OFFCURVE",
"170 131 OFFCURVE",
"170 243 CURVE SMOOTH",
"170 457 LINE SMOOTH",
"170 569 OFFCURVE",
"223 634 OFFCURVE",
"288 634 CURVE SMOOTH",
"353 634 OFFCURVE",
"405 569 OFFCURVE",
"405 457 CURVE SMOOTH",
"405 243 LINE SMOOTH",
"405 131 OFFCURVE",
"353 66 OFFCURVE",
"288 66 CURVE SMOOTH"
);
}
);
width = 575;
},
{
anchors = (
{
name = top;
position = "{288, 700}";
}
);
hints = (
{
horizontal = 1;
origin = "{0, 3}";
target = "{1, 3}";
type = TTStem;
},
{
horizontal = 1;
origin = "{0, 10}";
target = "{1, 10}";
type = TTStem;
}
);
layerId = "FB732A47-0020-4E5B-B7FA-72B1D79E8828";
paths = (
{
closed = 1;
nodes = (
"75 253 LINE",
"75 106 OFFCURVE",
"138 -10 OFFCURVE",
"288 -10 CURVE",
"435 -10 OFFCURVE",
"500 104 OFFCURVE",
"500 253 CURVE",
"500 467 LINE",
"500 615 OFFCURVE",
"437 730 OFFCURVE",
"288 730 CURVE",
"140 730 OFFCURVE",
"75 617 OFFCURVE",
"75 467 CURVE"
);
},
{
closed = 1;
nodes = (
"395 253 LINE",
"395 163 OFFCURVE",
"372 87 OFFCURVE",
"288 87 CURVE",
"203 87 OFFCURVE",
"180 163 OFFCURVE",
"180 253 CURVE",
"180 467 LINE",
"180 557 OFFCURVE",
"203 634 OFFCURVE",
"288 634 CURVE",
"372 634 OFFCURVE",
"395 558 OFFCURVE",
"395 467 CURVE"
);
}
);
width = 575;
},
{
layerId = "8A9476DE-11F4-4864-A7B4-14D9B7165FAE";
paths = (
{
closed = 1;
nodes = (
"238 710 OFFCURVE",
"144 624 OFFCURVE",
"118 457 CURVE SMOOTH",
"84 246 OFFCURVE",
"77 214 OFFCURVE",
"79 162 CURVE SMOOTH",
"84 48 OFFCURVE",
"155 -10 OFFCURVE",
"252 -10 CURVE SMOOTH",
"370 -10 OFFCURVE",
"463 78 OFFCURVE",
"489 243 CURVE SMOOTH",
"522 456 OFFCURVE",
"528 480 OFFCURVE",
"528 519 CURVE SMOOTH",
"528 644 OFFCURVE",
"458 710 OFFCURVE",
"356 710 CURVE SMOOTH"
);
},
{
closed = 1;
nodes = (
"214 66 OFFCURVE",
"173 104 OFFCURVE",
"166 172 CURVE SMOOTH",
"162 215 OFFCURVE",
"168 237 OFFCURVE",
"203 457 CURVE SMOOTH",
"221 569 OFFCURVE",
"279 634 OFFCURVE",
"344 634 CURVE SMOOTH",
"399 634 OFFCURVE",
"442 587 OFFCURVE",
"442 503 CURVE SMOOTH",
"442 475 OFFCURVE",
"436 443 OFFCURVE",
"404 243 CURVE SMOOTH",
"386 131 OFFCURVE",
"329 66 OFFCURVE",
"264 66 CURVE SMOOTH"
);
}
);
width = 575;
},
{
layerId = "C492240F-DFB2-48B7-8D1C-81E7E6E3599E";
paths = (
{
closed = 1;
nodes = (
"230 730 OFFCURVE",
"134 630 OFFCURVE",
"108 467 CURVE SMOOTH",
"74 253 LINE SMOOTH",
"48 90 OFFCURVE",
"113 -10 OFFCURVE",
"245 -10 CURVE SMOOTH",
"376 -10 OFFCURVE",
"473 91 OFFCURVE",
"499 253 CURVE SMOOTH",
"533 467 LINE SMOOTH",
"558 629 OFFCURVE",
"493 730 OFFCURVE",
"362 730 CURVE SMOOTH"
);
},
{
closed = 1;
nodes = (
"196 86 OFFCURVE",
"163 153 OFFCURVE",
"179 253 CURVE SMOOTH",
"213 467 LINE SMOOTH",
"229 567 OFFCURVE",
"283 634 OFFCURVE",
"347 634 CURVE SMOOTH",
"410 634 OFFCURVE",
"444 567 OFFCURVE",
"428 467 CURVE SMOOTH",
"394 253 LINE SMOOTH",
"378 153 OFFCURVE",
"323 86 OFFCURVE",
"260 86 CURVE SMOOTH"
);
}
);
width = 575;
}
);
unicode = 004F;
},
{
glyphname = Oslash;
lastChange = "2016-06-09 18:35:33 +0000";
layers = (
{
anchors = (
{
name = top;
position = "{288, 700}";
}
);
hints = (
{
horizontal = 1;
origin = "{0, 26}";
target = "{2, 3}";
type = TTStem;
options = 4;
},
{
horizontal = 1;
origin = "{0, 7}";
target = "{1, 3}";
type = TTStem;
options = 4;
},
{
horizontal = 1;
origin = "{0, 26}";
target = "{2, 3}";
type = Stem;
},
{
horizontal = 1;
origin = "{0, 7}";
target = "{1, 3}";
type = Stem;
},
{
origin = "{0, 11}";
target = "{1, 10}";
type = Stem;
},
{
origin = "{2, 0}";
target = "{0, 29}";
type = Stem;
},
{
horizontal = 1;
origin = "{0, 26}";
target = "{2, 3}";
type = TTStem;
},
{
horizontal = 1;
origin = "{0, 7}";
target = "{1, 3}";
type = TTStem;
},
{
horizontal = 1;
place = "{90, 0}";
type = Stem;
},
{
horizontal = 1;
place = "{90, 0}";
type = Stem;
}
);
layerId = "A14B1AE3-86D5-4EA7-AE2F-7B4FA04DAB2E";
paths = (
{
closed = 1;
nodes = (
"488 783 LINE SMOOTH",
"474 790 OFFCURVE",
"462 786 OFFCURVE",
"455 772 CURVE SMOOTH",
"405 672 LINE",
"373 697 OFFCURVE",
"333 710 OFFCURVE",
"288 710 CURVE SMOOTH",
"170 710 OFFCURVE",
"85 624 OFFCURVE",
"85 457 CURVE SMOOTH",
"85 243 LINE SMOOTH",
"85 183 OFFCURVE",
"96 133 OFFCURVE",
"116 94 CURVE",
"42 -54 LINE SMOOTH",
"35 -68 OFFCURVE",
"39 -80 OFFCURVE",
"53 -87 CURVE SMOOTH",
"85 -103 LINE SMOOTH",
"99 -110 OFFCURVE",
"111 -106 OFFCURVE",
"118 -92 CURVE SMOOTH",
"176 23 LINE",
"207 1 OFFCURVE",
"245 -10 OFFCURVE",
"288 -10 CURVE SMOOTH",
"406 -10 OFFCURVE",
"490 78 OFFCURVE",
"490 243 CURVE SMOOTH",
"490 457 LINE SMOOTH",
"490 513 OFFCURVE",
"480 560 OFFCURVE",
"463 598 CURVE",
"531 734 LINE SMOOTH",
"538 748 OFFCURVE",
"534 760 OFFCURVE",
"520 767 CURVE SMOOTH"
);
},
{
closed = 1;
nodes = (
"170 457 LINE SMOOTH",
"170 569 OFFCURVE",
"223 634 OFFCURVE",
"288 634 CURVE SMOOTH",
"318 634 OFFCURVE",
"345 620 OFFCURVE",
"366 594 CURVE",
"172 206 LINE",
"171 218 OFFCURVE",
"170 230 OFFCURVE",
"170 243 CURVE SMOOTH"
);
},
{
closed = 1;
nodes = (
"405 243 LINE SMOOTH",
"405 131 OFFCURVE",
"353 66 OFFCURVE",
"288 66 CURVE SMOOTH",
"260 66 OFFCURVE",
"234 78 OFFCURVE",
"214 100 CURVE",
"404 480 LINE",
"405 473 OFFCURVE",
"405 465 OFFCURVE",
"405 457 CURVE SMOOTH"
);
}
);
width = 575;
},
{
components = (
{
name = O;
},
{
name = slash;
transform = "{1, 0, 0, 1, 0, 90}";
}
);
layerId = "FB732A47-0020-4E5B-B7FA-72B1D79E8828";
width = 575;
},
{
components = (
{
name = O;
},
{
name = slash;
transform = "{1, 0, 0, 1, 0, 90}";
}
);
layerId = "8A9476DE-11F4-4864-A7B4-14D9B7165FAE";
width = 575;
},
{
components = (
{
name = O;
},
{
name = slash;
transform = "{1, 0, 0, 1, 0, 90}";
}
);
layerId = "C492240F-DFB2-48B7-8D1C-81E7E6E3599E";
width = 575;
}
);
unicode = 00D8;
},
{
glyphname = OE;
lastChange = "2016-06-09 18:35:33 +0000";
layers = (
{
hints = (
{
horizontal = 1;
origin = "{0, 20}";
target = "{1, 7}";
type = Align;
},
{
horizontal = 1;
origin = "{0, 27}";
target = "{1, 0}";
type = Align;
},
{
horizontal = 1;
origin = "{0, 1}";
target = "{0, 10}";
type = Align;
}
);
layerId = "A14B1AE3-86D5-4EA7-AE2F-7B4FA04DAB2E";
paths = (
{
closed = 1;
nodes = (
"373 77 LINE",
"373 326 LINE",
"475 326 LINE SMOOTH",
"491 326 OFFCURVE",
"500 335 OFFCURVE",
"500 351 CURVE SMOOTH",
"500 378 LINE SMOOTH",
"500 394 OFFCURVE",
"491 403 OFFCURVE",
"475 403 CURVE SMOOTH",
"373 403 LINE",
"373 624 LINE",
"482 624 LINE SMOOTH",
"498 624 OFFCURVE",
"507 632 OFFCURVE",
"507 649 CURVE SMOOTH",
"507 675 LINE SMOOTH",
"507 692 OFFCURVE",
"498 700 OFFCURVE",
"482 700 CURVE SMOOTH",
"288 700 LINE SMOOTH",
"146 700 OFFCURVE",
"85 594 OFFCURVE",
"85 447 CURVE SMOOTH",
"85 253 LINE SMOOTH",
"85 109 OFFCURVE",
"144 0 OFFCURVE",
"288 0 CURVE SMOOTH",
"493 0 LINE SMOOTH",
"510 0 OFFCURVE",
"518 9 OFFCURVE",
"518 25 CURVE SMOOTH",
"518 52 LINE SMOOTH",
"518 68 OFFCURVE",
"510 77 OFFCURVE",
"493 77 CURVE SMOOTH"
);
},
{
closed = 1;
nodes = (
"288 77 LINE",
"196 77 OFFCURVE",
"170 161 OFFCURVE",
"170 253 CURVE SMOOTH",
"170 447 LINE SMOOTH",
"170 539 OFFCURVE",
"196 624 OFFCURVE",
"288 624 CURVE"
);
}
);
width = 575;
},
{
hints = (
{
horizontal = 1;
place = "{0, 9699}";
type = Stem;
},
{
horizontal = 1;
origin = "{0, 1}";
target = "{0, 10}";
type = TTStem;
},
{
horizontal = 1;
origin = "{0, 20}";
target = "{1, 7}";
type = TTStem;
},
{
horizontal = 1;
origin = "{0, 27}";
target = "{0, 0}";
type = Align;
}
);
layerId = "FB732A47-0020-4E5B-B7FA-72B1D79E8828";
paths = (
{
closed = 1;
nodes = (
"383 97 LINE",
"383 326 LINE",
"475 326 LINE",
"495.142 326 OFFCURVE",
"510 340.858 OFFCURVE",
"510 361 CURVE",
"510 388 LINE",
"510 408.142 OFFCURVE",
"495.142 423 OFFCURVE",
"475 423 CURVE",
"383 423 LINE",
"383 624 LINE",
"482 624 LINE",
"501.802 624 OFFCURVE",
"517 637.509 OFFCURVE",
"517 659 CURVE",
"517 685 LINE",
"517 706.491 OFFCURVE",
"501.802 720 OFFCURVE",
"482 720 CURVE",
"288 720 LINE",
"140.217 720 OFFCURVE",
"75 606.672 OFFCURVE",
"75 457 CURVE",
"75 263 LINE",
"75 116.467 OFFCURVE",
"138.042 0 OFFCURVE",
"288 0 CURVE",
"493 0 LINE",
"514.491 0 OFFCURVE",
"528 15.198 OFFCURVE",
"528 35 CURVE",
"528 62 LINE",
"528 81.802 OFFCURVE",
"514.491 97 OFFCURVE",
"493 97 CURVE"
);
},
{
closed = 1;
nodes = (
"278 97.369 LINE",
"201.557 103.158 OFFCURVE",
"180 176.228 OFFCURVE",
"180 263 CURVE",
"180 457 LINE",
"180 543.788 OFFCURVE",
"201.58 617.761 OFFCURVE",
"278 623.626 CURVE"
);
}
);
width = 575;
},
{
layerId = "8A9476DE-11F4-4864-A7B4-14D9B7165FAE";
paths = (
{
closed = 1;
nodes = (
"346 77 LINE",
"385 326 LINE",
"487 326 LINE SMOOTH",
"503 326 OFFCURVE",
"513 335 OFFCURVE",
"516 351 CURVE SMOOTH",
"520 378 LINE SMOOTH",
"523 394 OFFCURVE",
"515 403 OFFCURVE",
"499 403 CURVE SMOOTH",
"397 403 LINE",
"432 624 LINE",
"541 624 LINE SMOOTH",
"557 624 OFFCURVE",
"568 632 OFFCURVE",
"570 649 CURVE SMOOTH",
"574 675 LINE SMOOTH",
"577 692 OFFCURVE",
"569 700 OFFCURVE",
"553 700 CURVE SMOOTH",
"359 700 LINE SMOOTH",
"217 700 OFFCURVE",
"139 594 OFFCURVE",
"116 447 CURVE SMOOTH",
"85 256 OFFCURVE",
"79 223 OFFCURVE",
"79 185 CURVE SMOOTH",
"79 76 OFFCURVE",
"128 0 OFFCURVE",
"248 0 CURVE SMOOTH",
"453 0 LINE SMOOTH",
"470 0 OFFCURVE",
"480 9 OFFCURVE",
"482 25 CURVE SMOOTH",
"487 52 LINE SMOOTH",
"489 68 OFFCURVE",
"483 77 OFFCURVE",
"466 77 CURVE SMOOTH"
);
},
{
closed = 1;
nodes = (
"261 77 LINE",
"189 77 OFFCURVE",
"165 129 OFFCURVE",
"165 196 CURVE SMOOTH",
"165 227 OFFCURVE",
"169 248 OFFCURVE",
"201 447 CURVE SMOOTH",
"216 539 OFFCURVE",
"255 624 OFFCURVE",
"347 624 CURVE"
);
}
);
width = 575;
},
{
layerId = "C492240F-DFB2-48B7-8D1C-81E7E6E3599E";
paths = (
{
closed = 1;
nodes = (
"359 97 LINE",
"395 326 LINE",
"487 326 LINE",
"507 326 OFFCURVE",
"524 341 OFFCURVE",
"528 361 CURVE",
"532 388 LINE",
"535 408 OFFCURVE",
"523 423 OFFCURVE",
"502 423 CURVE",
"410 423 LINE",
"442 624 LINE",
"541 624 LINE",
"561 624 OFFCURVE",
"578 638 OFFCURVE",
"582 659 CURVE",
"586 685 LINE",
"589 706 OFFCURVE",
"576 720 OFFCURVE",
"556 720 CURVE",
"362 720 LINE",
"215 720 OFFCURVE",
"131 607 OFFCURVE",
"108 457 CURVE",
"77 265 OFFCURVE",
"71 233 OFFCURVE",
"71 194 CURVE SMOOTH",
"71 81 OFFCURVE",
"123 0 OFFCURVE",
"248 0 CURVE",
"453 0 LINE",
"475 0 OFFCURVE",
"491 15 OFFCURVE",
"494 35 CURVE",
"498 62 LINE",
"501 82 OFFCURVE",
"490 97 OFFCURVE",
"469 97 CURVE"
);
},
{
closed = 1;
nodes = (
"254 97 LINE",
"196 102 OFFCURVE",
"177 145 OFFCURVE",
"177 203 CURVE SMOOTH",
"177 238 OFFCURVE",
"181 256 OFFCURVE",
"213 457 CURVE",
"227 544 OFFCURVE",
"260 618 OFFCURVE",
"337 624 CURVE"
);
}
);
width = 575;
}
);
unicode = 0152;
},
{
glyphname = P;
lastChange = "2016-06-09 18:35:33 +0000";
layers = (
{
hints = (
{
horizontal = 1;
origin = "{0, 8}";
target = up;
type = BottomGhost;
},
{
horizontal = 1;
origin = "{0, 12}";
target = "{1, 0}";
type = Stem;
},
{
horizontal = 1;
origin = "{0, 19}";
target = "{1, 2}";
type = Stem;
},
{
origin = "{1, 5}";
target = "{0, 16}";
type = Stem;
},
{
origin = "{0, 4}";
target = "{0, 11}";
type = Stem;
},
{
horizontal = 1;
place = "{21.5, -21.5}";
type = Stem;
},
{
horizontal = 1;
origin = "{0, 12}";
target = "{1, 0}";
type = TTStem;
},
{
horizontal = 1;
origin = "{0, 0}";
target = "{1, 1}";
type = TTStem;
},
{
horizontal = 1;
origin = "{0, 8}";
type = Anchor;
}
);
layerId = "A14B1AE3-86D5-4EA7-AE2F-7B4FA04DAB2E";
paths = (
{
closed = 1;
nodes = (
"110 700 LINE SMOOTH",
"94 700 OFFCURVE",
"85 691 OFFCURVE",
"85 675 CURVE SMOOTH",
"85 25 LINE SMOOTH",
"85 9 OFFCURVE",
"94 0 OFFCURVE",
"110 0 CURVE SMOOTH",
"145 0 LINE SMOOTH",
"162 0 OFFCURVE",
"170 9 OFFCURVE",
"170 25 CURVE SMOOTH",
"170 260 LINE",
"245 260 LINE SMOOTH",
"425 260 OFFCURVE",
"517 361 OFFCURVE",
"517 480 CURVE SMOOTH",
"517 596 OFFCURVE",
"427 700 OFFCURVE",
"245 700 CURVE SMOOTH"
);
},
{
closed = 1;
nodes = (
"170 336 LINE",
"170 624 LINE",
"245 624 LINE SMOOTH",
"372 624 OFFCURVE",
"432 556 OFFCURVE",
"432 480 CURVE SMOOTH",
"432 404 OFFCURVE",
"373 336 OFFCURVE",
"245 336 CURVE SMOOTH"
);
}
);
width = 575;
},
{
hints = (
{
horizontal = 1;
place = "{21.5, -21.5}";
type = Stem;
},
{
horizontal = 1;
origin = "{0, 12}";
target = "{1, 0}";
type = TTStem;
},
{
horizontal = 1;
origin = "{0, 0}";
target = "{1, 1}";
type = TTStem;
},
{
horizontal = 1;
origin = "{0, 8}";
type = Anchor;
}
);
layerId = "FB732A47-0020-4E5B-B7FA-72B1D79E8828";
paths = (
{
closed = 1;
nodes = (
"110 720 LINE SMOOTH",
"89 720 OFFCURVE",
"75 706 OFFCURVE",
"75 685 CURVE SMOOTH",
"75 35 LINE SMOOTH",
"75 14 OFFCURVE",
"89 0 OFFCURVE",
"110 0 CURVE SMOOTH",
"145 0 LINE SMOOTH",
"167 0 OFFCURVE",
"180 13 OFFCURVE",
"180 35 CURVE SMOOTH",
"180 260 LINE",
"245 260 LINE SMOOTH",
"415 260 OFFCURVE",
"527 352 OFFCURVE",
"527 490 CURVE SMOOTH",
"527 627 OFFCURVE",
"414 720 OFFCURVE",
"245 720 CURVE SMOOTH"
);
},
{
closed = 1;
nodes = (
"180 356 LINE",
"180 624 LINE",
"245 624 LINE SMOOTH",
"353 624 OFFCURVE",
"422 571 OFFCURVE",
"422 490 CURVE SMOOTH",
"422 408 OFFCURVE",
"354 356 OFFCURVE",
"245 356 CURVE SMOOTH"
);
}
);
width = 575;
},
{
layerId = "8A9476DE-11F4-4864-A7B4-14D9B7165FAE";
paths = (
{
closed = 1;
nodes = (
"181 700 LINE SMOOTH",
"165 700 OFFCURVE",
"155 691 OFFCURVE",
"152 675 CURVE SMOOTH",
"49 25 LINE SMOOTH",
"47 9 OFFCURVE",
"54 0 OFFCURVE",
"70 0 CURVE SMOOTH",
"105 0 LINE SMOOTH",
"122 0 OFFCURVE",
"132 9 OFFCURVE",
"134 25 CURVE SMOOTH",
"172 260 LINE",
"247 260 LINE SMOOTH",
"418 260 OFFCURVE",
"556 360 OFFCURVE",
"556 508 CURVE SMOOTH",
"556 616 OFFCURVE",
"480 700 OFFCURVE",
"316 700 CURVE SMOOTH"
);
},
{
closed = 1;
nodes = (
"184 336 LINE",
"229 624 LINE",
"304 624 LINE SMOOTH",
"419 624 OFFCURVE",
"470 569 OFFCURVE",
"470 495 CURVE SMOOTH",
"470 402 OFFCURVE",
"379 336 OFFCURVE",
"259 336 CURVE SMOOTH"
);
}
);
width = 575;
},
{
layerId = "C492240F-DFB2-48B7-8D1C-81E7E6E3599E";
paths = (
{
closed = 1;
nodes = (
"183 720 LINE SMOOTH",
"162 720 OFFCURVE",
"146 706 OFFCURVE",
"142 685 CURVE SMOOTH",
"39 35 LINE SMOOTH",
"36 14 OFFCURVE",
"48 0 OFFCURVE",
"69 0 CURVE SMOOTH",
"104 0 LINE SMOOTH",
"126 0 OFFCURVE",
"141 13 OFFCURVE",
"144 35 CURVE SMOOTH",
"180 260 LINE",
"245 260 LINE SMOOTH",
"421 260 OFFCURVE",
"566 364 OFFCURVE",
"566 520 CURVE SMOOTH",
"566 644 OFFCURVE",
"471 720 OFFCURVE",
"318 720 CURVE SMOOTH"
);
},
{
closed = 1;
nodes = (
"195 356 LINE",
"238 624 LINE",
"303 624 LINE SMOOTH",
"401 624 OFFCURVE",
"460 580 OFFCURVE",
"460 504 CURVE SMOOTH",
"460 416 OFFCURVE",
"372 356 OFFCURVE",
"260 356 CURVE SMOOTH"
);
}
);
width = 575;
}
);
unicode = 0050;
},
{
glyphname = Thorn;
lastChange = "2016-06-09 18:35:33 +0000";
layers = (
{
layerId = "FB732A47-0020-4E5B-B7FA-72B1D79E8828";
paths = (
{
closed = 1;
nodes = (
"180 685 LINE",
"180 706.474 OFFCURVE",
"166.474 720 OFFCURVE",
"145 720 CURVE SMOOTH",
"110 720 LINE SMOOTH",
"88.526 720 OFFCURVE",
"75 706.474 OFFCURVE",
"75 685 CURVE SMOOTH",
"75 35 LINE SMOOTH",
"75 13.526 OFFCURVE",
"88.526 0 OFFCURVE",
"110 0 CURVE SMOOTH",
"145 0 LINE SMOOTH",
"166.474 0 OFFCURVE",
"180 13.526 OFFCURVE",
"180 35 CURVE SMOOTH",
"180 124.956 LINE",
"213.368 121.828 OFFCURVE",
"240.809 121 OFFCURVE",
"259 121 CURVE SMOOTH",
"430.036 121 OFFCURVE",
"500 199.838 OFFCURVE",
"500 392 CURVE SMOOTH",
"500 583.238 OFFCURVE",
"429.84 662 OFFCURVE",
"259 662 CURVE SMOOTH",
"239.125 662 OFFCURVE",
"211.697 661.181 OFFCURVE",
"180 658.096 CURVE"
);
},
{
closed = 1;
nodes = (
"180 562.694 LINE",
"214.411 565 OFFCURVE",
"242.456 565 OFFCURVE",
"259 565 CURVE SMOOTH",
"362.662 565 OFFCURVE",
"395 524.225 OFFCURVE",
"395 392 CURVE SMOOTH",
"395 259.091 OFFCURVE",
"362.594 218 OFFCURVE",
"259 218 CURVE SMOOTH",
"240.831 218 OFFCURVE",
"212.81 218.828 OFFCURVE",
"180 221.255 CURVE"
);
}
);
width = 575;
},
{
hints = (
{
horizontal = 1;
place = "{21.5, -21.5}";
type = Stem;
},
{
horizontal = 1;
origin = "{0, 19}";
target = "{1, 9}";
type = TTStem;
},
{
horizontal = 1;
origin = "{1, 3}";
target = "{0, 25}";
type = TTStem;
},
{
horizontal = 1;
place = "{699.99, -20.48}";
type = Stem;
}
);
layerId = "A14B1AE3-86D5-4EA7-AE2F-7B4FA04DAB2E";
paths = (
{
closed = 1;
nodes = (
"170 675 LINE SMOOTH",
"170 691 OFFCURVE",
"161 700 OFFCURVE",
"145 700 CURVE SMOOTH",
"110 700 LINE SMOOTH",
"94 700 OFFCURVE",
"85 691 OFFCURVE",
"85 675 CURVE SMOOTH",
"85 25 LINE SMOOTH",
"85 9 OFFCURVE",
"94 0 OFFCURVE",
"110 0 CURVE SMOOTH",
"145 0 LINE SMOOTH",
"161 0 OFFCURVE",
"170 9 OFFCURVE",
"170 25 CURVE SMOOTH",
"170 126 LINE",
"208 122 OFFCURVE",
"239 121 OFFCURVE",
"259 121 CURVE SMOOTH",
"426 121 OFFCURVE",
"490 197 OFFCURVE",
"490 382 CURVE SMOOTH",
"490 567 OFFCURVE",
"425 642 OFFCURVE",
"259 642 CURVE SMOOTH",
"237 642 OFFCURVE",
"206 641 OFFCURVE",
"170 637 CURVE"
);
},
{
closed = 1;
nodes = (
"170 562 LINE",
"209 565 OFFCURVE",
"241 565 OFFCURVE",
"259 565 CURVE SMOOTH",
"373 565 OFFCURVE",
"405 514 OFFCURVE",
"405 382 CURVE SMOOTH",
"405 247 OFFCURVE",
"371 198 OFFCURVE",
"259 198 CURVE SMOOTH",
"239 198 OFFCURVE",
"207 199 OFFCURVE",
"170 202 CURVE"
);
}
);
width = 575;
},
{
layerId = "8A9476DE-11F4-4864-A7B4-14D9B7165FAE";
paths = (
{
closed = 1;
nodes = (
"237 675 LINE SMOOTH",
"240 691 OFFCURVE",
"232 700 OFFCURVE",
"216 700 CURVE SMOOTH",
"181 700 LINE SMOOTH",
"165 700 OFFCURVE",
"155 691 OFFCURVE",
"152 675 CURVE SMOOTH",
"49 25 LINE SMOOTH",
"47 9 OFFCURVE",
"54 0 OFFCURVE",
"70 0 CURVE SMOOTH",
"105 0 LINE SMOOTH",
"121 0 OFFCURVE",
"132 9 OFFCURVE",
"134 25 CURVE SMOOTH",
"150 126 LINE",
"188 122 OFFCURVE",
"219 121 OFFCURVE",
"239 121 CURVE SMOOTH",
"438 121 OFFCURVE",
"519 254 OFFCURVE",
"519 448 CURVE SMOOTH",
"519 590 OFFCURVE",
"459 642 OFFCURVE",
"321 642 CURVE SMOOTH",
"299 642 OFFCURVE",
"268 641 OFFCURVE",
"231 637 CURVE"
);
},
{
closed = 1;
nodes = (
"219 562 LINE",
"259 565 OFFCURVE",
"291 565 OFFCURVE",
"309 565 CURVE SMOOTH",
"399 565 OFFCURVE",
"433 533 OFFCURVE",
"433 435 CURVE SMOOTH",
"433 298 OFFCURVE",
"387 198 OFFCURVE",
"251 198 CURVE SMOOTH",
"231 198 OFFCURVE",
"199 199 OFFCURVE",
"162 202 CURVE"
);
}
);
width = 575;
},
{
layerId = "C492240F-DFB2-48B7-8D1C-81E7E6E3599E";
paths = (
{
closed = 1;
nodes = (
"247 683 LINE SMOOTH",
"251 705 OFFCURVE",
"239 720 OFFCURVE",
"216 720 CURVE SMOOTH",
"181 720 LINE SMOOTH",
"161 720 OFFCURVE",
"146 708 OFFCURVE",
"142 687 CURVE SMOOTH",
"39 37 LINE SMOOTH",
"36 14 OFFCURVE",
"48 0 OFFCURVE",
"70 0 CURVE SMOOTH",
"105 0 LINE SMOOTH",
"126 0 OFFCURVE",
"141 13 OFFCURVE",
"144 34 CURVE SMOOTH",
"158 125 LINE",
"192 122 OFFCURVE",
"221 121 OFFCURVE",
"239 121 CURVE SMOOTH",
"428 121 OFFCURVE",
"529 239 OFFCURVE",
"529 458 CURVE SMOOTH",
"529 602 OFFCURVE",
"468 662 OFFCURVE",
"321 662 CURVE SMOOTH",
"301 662 OFFCURVE",
"275 661 OFFCURVE",
"243 658 CURVE"
);
},
{
closed = 1;
nodes = (
"228 563 LINE",
"264 565 OFFCURVE",
"292 565 OFFCURVE",
"309 565 CURVE SMOOTH",
"395 565 OFFCURVE",
"423 536 OFFCURVE",
"423 445 CURVE SMOOTH",
"423 293 OFFCURVE",
"366 218 OFFCURVE",
"251 218 CURVE SMOOTH",
"233 218 OFFCURVE",
"206 219 OFFCURVE",
"174 221 CURVE"
);
}
);
width = 575;
}
);
unicode = 00DE;
},
{
glyphname = Q;
lastChange = "2016-06-09 18:35:33 +0000";
layers = (
{
anchors = (
{
name = top;
position = "{288, 700}";
}
);
hints = (
{
horizontal = 1;
origin = "{0, 9}";
target = "{1, 10}";
type = TTStem;
options = 4;
},
{
horizontal = 1;
origin = "{0, 16}";
target = "{1, 3}";
type = TTStem;
options = 4;
},
{
horizontal = 1;
origin = "{0, 9}";
target = "{1, 10}";
type = Stem;
},
{
horizontal = 1;
origin = "{0, 16}";
target = "{1, 3}";
type = Stem;
},
{
origin = "{0, 20}";
target = "{1, 13}";
type = Stem;
},
{
origin = "{1, 7}";
target = "{0, 12}";
type = Stem;
},
{
horizontal = 1;
origin = "{0, 9}";
target = "{1, 10}";
type = TTStem;
},
{
horizontal = 1;
origin = "{0, 16}";
target = "{1, 3}";
type = TTStem;
}
);
layerId = "A14B1AE3-86D5-4EA7-AE2F-7B4FA04DAB2E";
paths = (
{
closed = 1;
nodes = (
"535 -142 LINE",
"528 -127 OFFCURVE",
"517 -122 OFFCURVE",
"502 -128 CURVE SMOOTH",
"475 -138 OFFCURVE",
"452 -142 OFFCURVE",
"427 -142 CURVE SMOOTH",
"369 -142 OFFCURVE",
"331 -114 OFFCURVE",
"331 -6 CURVE",
"426 13 OFFCURVE",
"490 99 OFFCURVE",
"490 243 CURVE SMOOTH",
"490 457 LINE SMOOTH",
"490 622 OFFCURVE",
"406 710 OFFCURVE",
"288 710 CURVE SMOOTH",
"170 710 OFFCURVE",
"85 624 OFFCURVE",
"85 457 CURVE SMOOTH",
"85 243 LINE SMOOTH",
"85 97 OFFCURVE",
"150 13 OFFCURVE",
"245 -6 CURVE",
"245 -167 OFFCURVE",
"332 -220 OFFCURVE",
"427 -220 CURVE SMOOTH",
"462 -220 OFFCURVE",
"499 -212 OFFCURVE",
"532 -200 CURVE",
"548 -195 OFFCURVE",
"552 -183 OFFCURVE",
"546 -168 CURVE SMOOTH"
);
},
{
closed = 1;
nodes = (
"170 457 LINE SMOOTH",
"170 569 OFFCURVE",
"223 634 OFFCURVE",
"288 634 CURVE SMOOTH",
"353 634 OFFCURVE",
"405 569 OFFCURVE",
"405 457 CURVE SMOOTH",
"405 243 LINE SMOOTH",
"405 131 OFFCURVE",
"353 66 OFFCURVE",
"288 66 CURVE SMOOTH",
"223 66 OFFCURVE",
"170 131 OFFCURVE",
"170 243 CURVE SMOOTH"
);
}
);
width = 575;
},
{
components = (
{
name = O;
}
);
layerId = "FB732A47-0020-4E5B-B7FA-72B1D79E8828";
paths = (
{
closed = 1;
nodes = (
"544 -128 LINE SMOOTH",
"536 -109 OFFCURVE",
"517 -101 OFFCURVE",
"498 -109 CURVE",
"472 -118 OFFCURVE",
"451 -122 OFFCURVE",
"427 -122 CURVE SMOOTH",
"374 -122 OFFCURVE",
"341 -97 OFFCURVE",
"341 4 CURVE SMOOTH",
"341 63 LINE",
"235 63 LINE",
"235 4 LINE SMOOTH",
"235 -163 OFFCURVE",
"329 -220 OFFCURVE",
"427 -220 CURVE SMOOTH",
"463 -220 OFFCURVE",
"502 -212 OFFCURVE",
"535 -199 CURVE",
"556 -193 OFFCURVE",
"563 -173 OFFCURVE",
"555 -154 CURVE SMOOTH"
);
}
);
width = 575;
},
{
components = (
{
name = O;
}
);
layerId = "8A9476DE-11F4-4864-A7B4-14D9B7165FAE";
paths = (
{
closed = 1;
nodes = (
"473 -142 LINE",
"468 -127 OFFCURVE",
"458 -122 OFFCURVE",
"442 -128 CURVE SMOOTH",
"414 -138 OFFCURVE",
"390 -142 OFFCURVE",
"365 -142 CURVE SMOOTH",
"307 -142 OFFCURVE",
"273 -114 OFFCURVE",
"290 -6 CURVE SMOOTH",
"298 43 LINE",
"212 43 LINE",
"204 -6 LINE SMOOTH",
"179 -167 OFFCURVE",
"258 -220 OFFCURVE",
"353 -220 CURVE SMOOTH",
"388 -220 OFFCURVE",
"426 -212 OFFCURVE",
"461 -200 CURVE",
"478 -195 OFFCURVE",
"483 -183 OFFCURVE",
"480 -168 CURVE"
);
}
);
width = 575;
},
{
components = (
{
name = O;
}
);
layerId = "C492240F-DFB2-48B7-8D1C-81E7E6E3599E";
paths = (
{
closed = 1;
nodes = (
"484 -128 LINE SMOOTH",
"479 -109 OFFCURVE",
"461 -101 OFFCURVE",
"441 -109 CURVE",
"414 -118 OFFCURVE",
"392 -122 OFFCURVE",
"368 -122 CURVE SMOOTH",
"315 -122 OFFCURVE",
"286 -97 OFFCURVE",
"302 4 CURVE SMOOTH",
"311 63 LINE",
"205 63 LINE",
"196 4 LINE SMOOTH",
"170 -163 OFFCURVE",
"255 -220 OFFCURVE",
"353 -220 CURVE SMOOTH",
"389 -220 OFFCURVE",
"429 -212 OFFCURVE",
"464 -199 CURVE",
"486 -193 OFFCURVE",
"496 -173 OFFCURVE",
"491 -154 CURVE SMOOTH"
);
}
);
width = 575;
},
{
associatedMasterId = "A14B1AE3-86D5-4EA7-AE2F-7B4FA04DAB2E";
hints = (
{
horizontal = 1;
origin = "{1, 3}";
target = "{2, 3}";
type = Stem;
},
{
horizontal = 1;
origin = "{0, 7}";
target = "{0, 0}";
type = Stem;
},
{
horizontal = 1;
origin = "{1, 10}";
target = "{2, 10}";
type = Stem;
},
{
origin = "{1, 13}";
target = "{2, 7}";
type = Stem;
},
{
origin = "{2, 13}";
target = "{1, 7}";
type = Stem;
},
{
origin = "{0, 4}";
target = "{0, 3}";
type = Stem;
}
);
layerId = "4280296E-605D-4E97-B8E4-348BB5218BF5";
name = "Regular Dec 30 14, 23:49";
paths = (
{
closed = 1;
nodes = (
"447 -171 LINE SMOOTH",
"346 -171 OFFCURVE",
"328 -123 OFFCURVE",
"330 -6 CURVE",
"245 -6 LINE",
"246 -165 OFFCURVE",
"286 -248 OFFCURVE",
"447 -248 CURVE SMOOTH",
"508 -248 LINE SMOOTH",
"524 -248 OFFCURVE",
"533 -239 OFFCURVE",
"533 -223 CURVE SMOOTH",
"533 -196 LINE SMOOTH",
"533 -180 OFFCURVE",
"524 -171 OFFCURVE",
"508 -171 CURVE SMOOTH"
);
},
{
closed = 1;
nodes = (
"85 243 LINE SMOOTH",
"85 99 OFFCURVE",
"144 -10 OFFCURVE",
"288 -10 CURVE SMOOTH",
"429 -10 OFFCURVE",
"490 97 OFFCURVE",
"490 243 CURVE SMOOTH",
"490 457 LINE SMOOTH",
"490 602 OFFCURVE",
"431 710 OFFCURVE",
"288 710 CURVE SMOOTH",
"146 710 OFFCURVE",
"85 604 OFFCURVE",
"85 457 CURVE SMOOTH"
);
},
{
closed = 1;
nodes = (
"405 243 LINE SMOOTH",
"405 151 OFFCURVE",
"380 67 OFFCURVE",
"288 67 CURVE SMOOTH",
"196 67 OFFCURVE",
"170 151 OFFCURVE",
"170 243 CURVE SMOOTH",
"170 457 LINE SMOOTH",
"170 549 OFFCURVE",
"196 634 OFFCURVE",
"288 634 CURVE SMOOTH",
"380 634 OFFCURVE",
"405 549 OFFCURVE",
"405 457 CURVE SMOOTH"
);
}
);
width = 575;
}
);
unicode = 0051;
},
{
glyphname = R;
lastChange = "2016-06-09 18:35:33 +0000";
layers = (
{
anchors = (
{
name = bottom;
position = "{288, 0}";
},
{
name = top;
position = "{288, 700}";
}
);
hints = (
{
place = "{85, 85}";
type = Stem;
},
{
horizontal = 1;
place = "{312, 77}";
type = Stem;
},
{
horizontal = 1;
place = "{700, -77}";
type = Stem;
},
{
horizontal = 1;
place = "{675, 10.5}";
type = Stem;
},
{
place = "{415, 85}";
type = Stem;
},
{
horizontal = 1;
place = "{21.5, -21.5}";
type = Stem;
},
{
horizontal = 1;
origin = "{0, 19}";
target = "{1, 0}";
type = TTStem;
},
{
horizontal = 1;
origin = "{0, 7}";
target = "{1, 1}";
type = TTStem;
},
{
horizontal = 1;
origin = "{0, 15}";
type = Anchor;
},
{
horizontal = 1;
origin = "{0, 24}";
type = Anchor;
}
);
layerId = "A14B1AE3-86D5-4EA7-AE2F-7B4FA04DAB2E";
paths = (
{
closed = 1;
nodes = (
"398 335 LINE",
"463 367 OFFCURVE",
"500 434 OFFCURVE",
"500 506 CURVE SMOOTH",
"500 615 OFFCURVE",
"421 700 OFFCURVE",
"268 700 CURVE SMOOTH",
"110 700 LINE SMOOTH",
"94 700 OFFCURVE",
"85 692 OFFCURVE",
"85 675 CURVE SMOOTH",
"85 25 LINE SMOOTH",
"85 9 OFFCURVE",
"94 0 OFFCURVE",
"110 0 CURVE SMOOTH",
"145 0 LINE SMOOTH",
"161 0 OFFCURVE",
"170 9 OFFCURVE",
"170 25 CURVE SMOOTH",
"170 312 LINE",
"315 312 LINE",
"462 18 LINE SMOOTH",
"468 6 OFFCURVE",
"477 0 OFFCURVE",
"491 0 CURVE SMOOTH",
"533 0 LINE SMOOTH",
"552 0 OFFCURVE",
"560 12 OFFCURVE",
"551 30 CURVE SMOOTH"
);
},
{
closed = 1;
nodes = (
"170 389 LINE",
"170 624 LINE",
"268 624 LINE SMOOTH",
"367 624 OFFCURVE",
"415 565 OFFCURVE",
"415 506 CURVE SMOOTH",
"415 448 OFFCURVE",
"369 389 OFFCURVE",
"268 389 CURVE SMOOTH"
);
}
);
width = 575;
},
{
anchors = (
{
name = bottom;
position = "{288, 0}";
},
{
name = top;
position = "{288, 700}";
}
);
hints = (
{
horizontal = 1;
place = "{21.5, -21.5}";
type = Stem;
},
{
horizontal = 1;
origin = "{0, 19}";
target = "{1, 0}";
type = TTStem;
},
{
horizontal = 1;
origin = "{0, 7}";
target = "{1, 1}";
type = TTStem;
},
{
horizontal = 1;
origin = "{0, 15}";
type = Anchor;
},
{
horizontal = 1;
origin = "{0, 24}";
type = Anchor;
}
);
layerId = "FB732A47-0020-4E5B-B7FA-72B1D79E8828";
paths = (
{
closed = 1;
nodes = (
"411 341 LINE",
"472 375 OFFCURVE",
"510 442 OFFCURVE",
"510 516 CURVE SMOOTH",
"510 640 OFFCURVE",
"415 720 OFFCURVE",
"268 720 CURVE SMOOTH",
"110 720 LINE SMOOTH",
"88 720 OFFCURVE",
"75 707 OFFCURVE",
"75 685 CURVE SMOOTH",
"75 35 LINE SMOOTH",
"75 14 OFFCURVE",
"89 0 OFFCURVE",
"110 0 CURVE SMOOTH",
"145 0 LINE SMOOTH",
"166 0 OFFCURVE",
"180 14 OFFCURVE",
"180 35 CURVE SMOOTH",
"180 312 LINE",
"309 312 LINE",
"453 24 LINE SMOOTH",
"461 8 OFFCURVE",
"474 0 OFFCURVE",
"491 0 CURVE SMOOTH",
"533 0 LINE SMOOTH",
"560 0 OFFCURVE",
"572 20 OFFCURVE",
"560 44 CURVE SMOOTH"
);
},
{
closed = 1;
nodes = (
"180 409 LINE",
"180 624 LINE",
"268 624 LINE SMOOTH",
"350 624 OFFCURVE",
"405 580 OFFCURVE",
"405 516 CURVE SMOOTH",
"405 453 OFFCURVE",
"350 409 OFFCURVE",
"268 409 CURVE SMOOTH"
);
}
);
width = 575;
},
{
anchors = (
{
name = bottom;
position = "{288, 0}";
},
{
name = top;
position = "{288, 700}";
}
);
associatedMasterId = "A14B1AE3-86D5-4EA7-AE2F-7B4FA04DAB2E";
hints = (
{
place = "{0, 0}";
type = Stem;
},
{
horizontal = 1;
place = "{0, 0}";
type = Stem;
},
{
horizontal = 1;
place = "{0, 0}";
type = Stem;
},
{
horizontal = 1;
place = "{0, 0}";
type = Stem;
},
{
place = "{0, 0}";
type = Stem;
}
);
layerId = "39D6DB0C-DC26-40A3-ADCF-99F89BA864AD";
name = "Regular Jan 23 14, 23:00";
paths = (
{
closed = 1;
nodes = (
"533 0 LINE SMOOTH",
"552 0 OFFCURVE",
"560 12 OFFCURVE",
"551 30 CURVE SMOOTH",
"401 330 LINE",
"459 358 OFFCURVE",
"500 421 OFFCURVE",
"500 506 CURVE SMOOTH",
"500 635 OFFCURVE",
"421 700 OFFCURVE",
"288 700 CURVE SMOOTH",
"110 700 LINE SMOOTH",
"94 700 OFFCURVE",
"85 692 OFFCURVE",
"85 675 CURVE SMOOTH",
"85 25 LINE SMOOTH",
"85 9 OFFCURVE",
"94 0 OFFCURVE",
"110 0 CURVE SMOOTH",
"145 0 LINE SMOOTH",
"161 0 OFFCURVE",
"170 9 OFFCURVE",
"170 25 CURVE SMOOTH",
"170 312 LINE",
"315 312 LINE",
"462 18 LINE SMOOTH",
"468 6 OFFCURVE",
"477 0 OFFCURVE",
"491 0 CURVE SMOOTH"
);
},
{
closed = 1;
nodes = (
"170 389 LINE",
"170 624 LINE",
"288 624 LINE SMOOTH",
"367 624 OFFCURVE",
"415 585 OFFCURVE",
"415 506 CURVE SMOOTH",
"415 430 OFFCURVE",
"369 389 OFFCURVE",
"288 389 CURVE SMOOTH"
);
}
);
width = 575;
},
{
layerId = "8A9476DE-11F4-4864-A7B4-14D9B7165FAE";
paths = (
{
closed = 1;
nodes = (
"411 335 LINE",
"489 370 OFFCURVE",
"544 454 OFFCURVE",
"544 537 CURVE SMOOTH",
"544 631 OFFCURVE",
"476 700 OFFCURVE",
"339 700 CURVE SMOOTH",
"181 700 LINE SMOOTH",
"165 700 OFFCURVE",
"155 692 OFFCURVE",
"152 675 CURVE SMOOTH",
"49 25 LINE SMOOTH",
"47 9 OFFCURVE",
"54 0 OFFCURVE",
"70 0 CURVE SMOOTH",
"105 0 LINE SMOOTH",
"121 0 OFFCURVE",
"132 9 OFFCURVE",
"134 25 CURVE SMOOTH",
"180 312 LINE",
"325 312 LINE",
"425 18 LINE SMOOTH",
"429 6 OFFCURVE",
"437 0 OFFCURVE",
"451 0 CURVE SMOOTH",
"493 0 LINE SMOOTH",
"512 0 OFFCURVE",
"522 12 OFFCURVE",
"516 30 CURVE SMOOTH"
);
},
{
closed = 1;
nodes = (
"192 389 LINE",
"229 624 LINE",
"327 624 LINE SMOOTH",
"417 624 OFFCURVE",
"457 575 OFFCURVE",
"457 520 CURVE SMOOTH",
"457 446 OFFCURVE",
"383 389 OFFCURVE",
"290 389 CURVE SMOOTH"
);
}
);
width = 575;
},
{
layerId = "C492240F-DFB2-48B7-8D1C-81E7E6E3599E";
paths = (
{
closed = 1;
nodes = (
"424 341 LINE",
"500 380 OFFCURVE",
"554 455 OFFCURVE",
"554 541 CURVE SMOOTH",
"554 645 OFFCURVE",
"474 720 OFFCURVE",
"341 720 CURVE SMOOTH",
"183 720 LINE SMOOTH",
"161 720 OFFCURVE",
"146 707 OFFCURVE",
"142 685 CURVE SMOOTH",
"39 35 LINE SMOOTH",
"36 14 OFFCURVE",
"48 0 OFFCURVE",
"69 0 CURVE SMOOTH",
"104 0 LINE SMOOTH",
"125 0 OFFCURVE",
"141 14 OFFCURVE",
"144 35 CURVE SMOOTH",
"188 312 LINE",
"317 312 LINE",
"416 24 LINE SMOOTH",
"421 8 OFFCURVE",
"433 0 OFFCURVE",
"450 0 CURVE SMOOTH",
"492 0 LINE SMOOTH",
"519 0 OFFCURVE",
"534 20 OFFCURVE",
"526 44 CURVE SMOOTH"
);
},
{
closed = 1;
nodes = (
"204 409 LINE",
"238 624 LINE",
"326 624 LINE SMOOTH",
"401 624 OFFCURVE",
"447 577 OFFCURVE",
"447 519 CURVE SMOOTH",
"447 449 OFFCURVE",
"377 409 OFFCURVE",
"292 409 CURVE SMOOTH"
);
}
);
width = 575;
}
);
unicode = 0052;
},
{
glyphname = S;
lastChange = "2016-06-09 18:35:33 +0000";
layers = (
{
anchors = (
{
name = bottom;
position = "{288, 0}";
},
{
name = top;
position = "{288, 696}";
}
);
background = {
paths = (
{
closed = 1;
nodes = (
"171 360 OFFCURVE",
"171 530 CURVE SMOOTH",
"171 593 OFFCURVE",
"231 632 OFFCURVE",
"328 632 CURVE SMOOTH",
"369 632 OFFCURVE",
"405 625 OFFCURVE",
"449 609 CURVE SMOOTH",
"464 603 OFFCURVE",
"475 608 OFFCURVE",
"481 623 CURVE SMOOTH",
"491 647 LINE SMOOTH",
"497 662 OFFCURVE",
"493 674 OFFCURVE",
"478 680 CURVE SMOOTH",
"431 700 OFFCURVE",
"379 710 OFFCURVE",
"328 710 CURVE SMOOTH",
"178 710 OFFCURVE",
"85 641 OFFCURVE",
"85 530 CURVE SMOOTH",
"85 290 OFFCURVE",
"428 360 OFFCURVE",
"428 190 CURVE SMOOTH",
"428 123 OFFCURVE",
"368 68 OFFCURVE",
"251 68 CURVE SMOOTH",
"210 68 OFFCURVE",
"155 78 OFFCURVE",
"110 94 CURVE",
"95 100 OFFCURVE",
"84 95 OFFCURVE",
"78 80 CURVE SMOOTH",
"68 56 LINE SMOOTH",
"62 41 OFFCURVE",
"66 29 OFFCURVE",
"81 23 CURVE SMOOTH",
"128 3 OFFCURVE",
"200 -10 OFFCURVE",
"251 -10 CURVE SMOOTH",
"425 -10 OFFCURVE",
"514 71 OFFCURVE",
"514 190 CURVE SMOOTH",
"514 430 OFFCURVE"
);
}
);
};
hints = (
{
horizontal = 1;
origin = "{0, 31}";
target = "{0, 18}";
type = TTStem;
},
{
horizontal = 1;
origin = "{0, 6}";
target = "{0, 43}";
type = TTStem;
}
);
layerId = "A14B1AE3-86D5-4EA7-AE2F-7B4FA04DAB2E";
paths = (
{
closed = 1;
nodes = (
"467 652 LINE SMOOTH",
"472 668 OFFCURVE",
"471 676 OFFCURVE",
"456 683 CURVE SMOOTH",
"415 701 OFFCURVE",
"359 710 OFFCURVE",
"316 710 CURVE SMOOTH",
"196 710 OFFCURVE",
"82 646 OFFCURVE",
"82 521 CURVE SMOOTH",
"82 434 OFFCURVE",
"138 349 OFFCURVE",
"284 318 CURVE SMOOTH",
"385 297 OFFCURVE",
"428 246 OFFCURVE",
"428 190 CURVE SMOOTH",
"428 113 OFFCURVE",
"348 69 OFFCURVE",
"255 69 CURVE SMOOTH",
"221 69 OFFCURVE",
"169 75 OFFCURVE",
"130 91 CURVE SMOOTH",
"115 97 OFFCURVE",
"104 92 OFFCURVE",
"98 77 CURVE SMOOTH",
"88 53 LINE SMOOTH",
"82 38 OFFCURVE",
"86 26 OFFCURVE",
"101 20 CURVE SMOOTH",
"147 0 OFFCURVE",
"202 -10 OFFCURVE",
"250 -10 CURVE SMOOTH",
"387 -10 OFFCURVE",
"514 69 OFFCURVE",
"514 195 CURVE SMOOTH",
"514 291 OFFCURVE",
"441 372 OFFCURVE",
"292 403 CURVE SMOOTH",
"206 421 OFFCURVE",
"168 474 OFFCURVE",
"168 524 CURVE SMOOTH",
"168 593 OFFCURVE",
"239 634 OFFCURVE",
"316 634 CURVE SMOOTH",
"354 634 OFFCURVE",
"392 624 OFFCURVE",
"427 611 CURVE SMOOTH",
"442 605 OFFCURVE",
"453 610 OFFCURVE",
"458 625 CURVE SMOOTH"
);
}
);
width = 575;
},
{
anchors = (
{
name = bottom;
position = "{288, 0}";
},
{
name = top;
position = "{288, 700}";
}
);
hints = (
{
horizontal = 1;
origin = "{0, 31}";
target = "{0, 18}";
type = TTStem;
},
{
horizontal = 1;
origin = "{0, 6}";
target = "{0, 43}";
type = TTStem;
}
);
layerId = "FB732A47-0020-4E5B-B7FA-72B1D79E8828";
paths = (
{
closed = 1;
nodes = (
"476 659 LINE SMOOTH",
"483 681 OFFCURVE",
"479 693 OFFCURVE",
"460 702 CURVE SMOOTH",
"421 719 OFFCURVE",
"365 730 OFFCURVE",
"316 730 CURVE SMOOTH",
"173 730 OFFCURVE",
"72 649 OFFCURVE",
"72 531 CURVE SMOOTH",
"72 424 OFFCURVE",
"149 346 OFFCURVE",
"282 318 CURVE SMOOTH",
"369 300 OFFCURVE",
"418 257 OFFCURVE",
"418 200 CURVE SMOOTH",
"418 135 OFFCURVE",
"351 89 OFFCURVE",
"255 89 CURVE SMOOTH",
"214 89 OFFCURVE",
"166 97 OFFCURVE",
"134 110 CURVE SMOOTH",
"114 118 OFFCURVE",
"97 111 OFFCURVE",
"89 91 CURVE SMOOTH",
"79 67 LINE SMOOTH",
"71 46 OFFCURVE",
"78 29 OFFCURVE",
"97 21 CURVE SMOOTH",
"142 1 OFFCURVE",
"198 -10 OFFCURVE",
"250 -10 CURVE SMOOTH",
"405 -10 OFFCURVE",
"524 82 OFFCURVE",
"524 205 CURVE SMOOTH",
"524 312 OFFCURVE",
"439 393 OFFCURVE",
"294 423 CURVE SMOOTH",
"223 438 OFFCURVE",
"178 481 OFFCURVE",
"178 534 CURVE SMOOTH",
"178 591 OFFCURVE",
"237 634 OFFCURVE",
"316 634 CURVE SMOOTH",
"347 634 OFFCURVE",
"382 627 OFFCURVE",
"424 612 CURVE SMOOTH",
"443 604 OFFCURVE",
"461 611 OFFCURVE",
"467 632 CURVE SMOOTH"
);
}
);
width = 575;
},
{
associatedMasterId = "A14B1AE3-86D5-4EA7-AE2F-7B4FA04DAB2E";
layerId = "87D3D162-565C-4898-8664-533F5AECE3CB";
name = "Regular Dec 14 13, 11:16";
paths = (
{
closed = 1;
nodes = (
"453 667 LINE SMOOTH",
"457 683 OFFCURVE",
"450 694 OFFCURVE",
"434 698 CURVE SMOOTH",
"376 708 OFFCURVE",
"330 710 OFFCURVE",
"297 710 CURVE SMOOTH",
"174 710 OFFCURVE",
"85 653 OFFCURVE",
"85 538 CURVE SMOOTH",
"85 424 OFFCURVE",
"164 365 OFFCURVE",
"268 316 CURVE SMOOTH",
"334 287 OFFCURVE",
"407 250 OFFCURVE",
"407 172 CURVE SMOOTH",
"407 103 OFFCURVE",
"357 67 OFFCURVE",
"259 67 CURVE SMOOTH",
"230 67 OFFCURVE",
"179 68 OFFCURVE",
"118 79 CURVE SMOOTH",
"102 81 OFFCURVE",
"92 75 OFFCURVE",
"88 59 CURVE SMOOTH",
"82 33 LINE SMOOTH",
"79 17 OFFCURVE",
"86 6 OFFCURVE",
"102 3 CURVE SMOOTH",
"168 -8 OFFCURVE",
"223 -10 OFFCURVE",
"259 -10 CURVE SMOOTH",
"416 -10 OFFCURVE",
"493 62 OFFCURVE",
"493 166 CURVE SMOOTH",
"493 280 OFFCURVE",
"407 333 OFFCURVE",
"307 384 CURVE SMOOTH",
"238 420 OFFCURVE",
"170 461 OFFCURVE",
"170 537 CURVE SMOOTH",
"170 607 OFFCURVE",
"224 634 OFFCURVE",
"297 634 CURVE SMOOTH",
"321 634 OFFCURVE",
"365 632 OFFCURVE",
"416 623 CURVE SMOOTH",
"432 620 OFFCURVE",
"442 626 OFFCURVE",
"446 641 CURVE SMOOTH"
);
}
);
width = 575;
},
{
anchors = (
{
name = bottom;
position = "{208, 0}";
},
{
name = top;
position = "{449, 694}";
}
);
layerId = "8A9476DE-11F4-4864-A7B4-14D9B7165FAE";
paths = (
{
closed = 1;
nodes = (
"531 652 LINE SMOOTH",
"538 668 OFFCURVE",
"538 676 OFFCURVE",
"525 683 CURVE SMOOTH",
"486 701 OFFCURVE",
"432 710 OFFCURVE",
"389 710 CURVE SMOOTH",
"248 710 OFFCURVE",
"122 623 OFFCURVE",
"122 493 CURVE SMOOTH",
"122 415 OFFCURVE",
"171 345 OFFCURVE",
"295 318 CURVE SMOOTH",
"382 299 OFFCURVE",
"419 256 OFFCURVE",
"419 204 CURVE SMOOTH",
"419 118 OFFCURVE",
"323 69 OFFCURVE",
"226 69 CURVE SMOOTH",
"192 69 OFFCURVE",
"141 75 OFFCURVE",
"105 91 CURVE",
"91 97 OFFCURVE",
"79 92 OFFCURVE",
"71 77 CURVE SMOOTH",
"57 53 LINE SMOOTH",
"48 38 OFFCURVE",
"51 26 OFFCURVE",
"65 20 CURVE SMOOTH",
"107 0 OFFCURVE",
"161 -10 OFFCURVE",
"209 -10 CURVE SMOOTH",
"357 -10 OFFCURVE",
"507 84 OFFCURVE",
"507 220 CURVE SMOOTH",
"507 307 OFFCURVE",
"446 375 OFFCURVE",
"316 403 CURVE SMOOTH",
"242 419 OFFCURVE",
"210 463 OFFCURVE",
"210 511 CURVE SMOOTH",
"210 586 OFFCURVE",
"294 634 OFFCURVE",
"377 634 CURVE SMOOTH",
"415 634 OFFCURVE",
"451 624 OFFCURVE",
"484 611 CURVE SMOOTH",
"498 605 OFFCURVE",
"510 610 OFFCURVE",
"517 625 CURVE SMOOTH"
);
}
);
width = 575;
},
{
layerId = "C492240F-DFB2-48B7-8D1C-81E7E6E3599E";
paths = (
{
closed = 1;
nodes = (
"539 659 LINE SMOOTH",
"550 681 OFFCURVE",
"548 693 OFFCURVE",
"530 702 CURVE SMOOTH",
"494 719 OFFCURVE",
"439 730 OFFCURVE",
"390 730 CURVE SMOOTH",
"240 730 OFFCURVE",
"112 636 OFFCURVE",
"112 499 CURVE SMOOTH",
"112 408 OFFCURVE",
"176 343 OFFCURVE",
"291 318 CURVE SMOOTH",
"367 302 OFFCURVE",
"409 265 OFFCURVE",
"409 212 CURVE SMOOTH",
"409 137 OFFCURVE",
"323 89 OFFCURVE",
"228 89 CURVE SMOOTH",
"187 89 OFFCURVE",
"140 97 OFFCURVE",
"110 110 CURVE SMOOTH",
"92 118 OFFCURVE",
"73 111 OFFCURVE",
"62 91 CURVE SMOOTH",
"48 67 LINE SMOOTH",
"37 46 OFFCURVE",
"41 29 OFFCURVE",
"59 21 CURVE SMOOTH",
"101 1 OFFCURVE",
"155 -10 OFFCURVE",
"207 -10 CURVE SMOOTH",
"365 -10 OFFCURVE",
"517 89 OFFCURVE",
"517 231 CURVE SMOOTH",
"517 327 OFFCURVE",
"446 396 OFFCURVE",
"320 423 CURVE SMOOTH",
"257 437 OFFCURVE",
"220 474 OFFCURVE",
"220 521 CURVE SMOOTH",
"220 587 OFFCURVE",
"294 634 OFFCURVE",
"375 634 CURVE SMOOTH",
"406 634 OFFCURVE",
"440 627 OFFCURVE",
"480 612 CURVE SMOOTH",
"497 604 OFFCURVE",
"517 611 OFFCURVE",
"526 632 CURVE SMOOTH"
);
}
);
width = 575;
},
{
anchors = (
{
name = bottom;
position = "{288, 0}";
},
{
name = top;
position = "{288, 700}";
}
);
associatedMasterId = "A14B1AE3-86D5-4EA7-AE2F-7B4FA04DAB2E";
layerId = "71B9E3DD-23A4-43BE-8F82-1E31DE592B71";
name = "Regular Jan 12 15, 17:10";
paths = (
{
closed = 1;
nodes = (
"453 667 LINE SMOOTH",
"457 683 OFFCURVE",
"450 694 OFFCURVE",
"434 698 CURVE SMOOTH",
"376 708 OFFCURVE",
"330 710 OFFCURVE",
"297 710 CURVE SMOOTH",
"174 710 OFFCURVE",
"85 653 OFFCURVE",
"85 538 CURVE SMOOTH",
"85 424 OFFCURVE",
"164 365 OFFCURVE",
"268 316 CURVE SMOOTH",
"334 287 OFFCURVE",
"407 250 OFFCURVE",
"407 172 CURVE SMOOTH",
"407 103 OFFCURVE",
"357 67 OFFCURVE",
"259 67 CURVE SMOOTH",
"230 67 OFFCURVE",
"179 68 OFFCURVE",
"118 79 CURVE SMOOTH",
"102 81 OFFCURVE",
"92 75 OFFCURVE",
"88 59 CURVE SMOOTH",
"82 33 LINE SMOOTH",
"79 17 OFFCURVE",
"86 6 OFFCURVE",
"102 3 CURVE SMOOTH",
"168 -8 OFFCURVE",
"223 -10 OFFCURVE",
"259 -10 CURVE SMOOTH",
"416 -10 OFFCURVE",
"493 62 OFFCURVE",
"493 166 CURVE SMOOTH",
"493 280 OFFCURVE",
"407 333 OFFCURVE",
"307 384 CURVE SMOOTH",
"238 420 OFFCURVE",
"170 461 OFFCURVE",
"170 537 CURVE SMOOTH",
"170 607 OFFCURVE",
"224 634 OFFCURVE",
"297 634 CURVE SMOOTH",
"321 634 OFFCURVE",
"365 632 OFFCURVE",
"416 623 CURVE SMOOTH",
"432 620 OFFCURVE",
"442 626 OFFCURVE",
"446 641 CURVE SMOOTH"
);
}
);
width = 575;
},
{
anchors = (
{
name = bottom;
position = "{288, 0}";
},
{
name = top;
position = "{288, 700}";
}
);
associatedMasterId = "A14B1AE3-86D5-4EA7-AE2F-7B4FA04DAB2E";
background = {
paths = (
{
closed = 1;
nodes = (
"481 77 LINE SMOOTH",
"475 92 OFFCURVE",
"464 97 OFFCURVE",
"449 91 CURVE SMOOTH",
"405 75 OFFCURVE",
"369 68 OFFCURVE",
"328 68 CURVE SMOOTH",
"239 68 OFFCURVE",
"171 114 OFFCURVE",
"171 270 CURVE SMOOTH",
"171 430 LINE SMOOTH",
"171 586 OFFCURVE",
"239 632 OFFCURVE",
"328 632 CURVE SMOOTH",
"369 632 OFFCURVE",
"405 625 OFFCURVE",
"449 609 CURVE SMOOTH",
"464 603 OFFCURVE",
"475 608 OFFCURVE",
"481 623 CURVE SMOOTH",
"491 647 LINE SMOOTH",
"497 662 OFFCURVE",
"493 674 OFFCURVE",
"478 680 CURVE SMOOTH",
"431 700 OFFCURVE",
"379 710 OFFCURVE",
"328 710 CURVE SMOOTH",
"202 710 OFFCURVE",
"85 640 OFFCURVE",
"85 430 CURVE SMOOTH",
"85 270 LINE SMOOTH",
"85 60 OFFCURVE",
"202 -10 OFFCURVE",
"328 -10 CURVE SMOOTH",
"379 -10 OFFCURVE",
"431 0 OFFCURVE",
"478 20 CURVE SMOOTH",
"493 26 OFFCURVE",
"497 38 OFFCURVE",
"491 53 CURVE SMOOTH"
);
},
{
closed = 1;
nodes = (
"72 38 OFFCURVE",
"76 26 OFFCURVE",
"91 20 CURVE SMOOTH",
"138 0 OFFCURVE",
"190 -10 OFFCURVE",
"241 -10 CURVE SMOOTH",
"367 -10 OFFCURVE",
"484 60 OFFCURVE",
"484 270 CURVE SMOOTH",
"484 430 LINE SMOOTH",
"484 640 OFFCURVE",
"367 710 OFFCURVE",
"241 710 CURVE SMOOTH",
"190 710 OFFCURVE",
"138 700 OFFCURVE",
"91 680 CURVE SMOOTH",
"76 674 OFFCURVE",
"72 662 OFFCURVE",
"78 647 CURVE SMOOTH",
"88 623 LINE SMOOTH",
"94 608 OFFCURVE",
"105 603 OFFCURVE",
"120 609 CURVE SMOOTH",
"164 625 OFFCURVE",
"200 632 OFFCURVE",
"241 632 CURVE SMOOTH",
"330 632 OFFCURVE",
"398 586 OFFCURVE",
"398 430 CURVE SMOOTH",
"398 270 LINE SMOOTH",
"398 114 OFFCURVE",
"330 68 OFFCURVE",
"241 68 CURVE SMOOTH",
"200 68 OFFCURVE",
"164 75 OFFCURVE",
"120 91 CURVE SMOOTH",
"105 97 OFFCURVE",
"94 92 OFFCURVE",
"88 77 CURVE SMOOTH",
"78 53 LINE SMOOTH"
);
}
);
};
layerId = "E6745AAE-C119-48CF-9728-E5C68A94FE5F";
name = "Regular Jan 27 15, 08:58";
paths = (
{
closed = 1;
nodes = (
"165 3 OFFCURVE",
"234 -10 OFFCURVE",
"295 -10 CURVE SMOOTH",
"405.766 -10 OFFCURVE",
"513 34.472 OFFCURVE",
"513 170 CURVE SMOOTH",
"513 294.397 OFFCURVE",
"403.681 347.127 OFFCURVE",
"318.681 388.127 CURVE SMOOTH",
"234.347 428.326 OFFCURVE",
"172 460.447 OFFCURVE",
"172 536 CURVE SMOOTH",
"172 609.005 OFFCURVE",
"213.993 632 OFFCURVE",
"289 632 CURVE SMOOTH",
"333 632 OFFCURVE",
"381 623 OFFCURVE",
"432 609 CURVE SMOOTH",
"447 605 OFFCURVE",
"458 610 OFFCURVE",
"463 625 CURVE SMOOTH",
"474 652 LINE SMOOTH",
"480 668 OFFCURVE",
"474 680 OFFCURVE",
"458 684 CURVE SMOOTH",
"401 699 OFFCURVE",
"341 710 OFFCURVE",
"289 710 CURVE SMOOTH",
"183.965 710 OFFCURVE",
"86 663.03 OFFCURVE",
"86 536 CURVE SMOOTH",
"86 411.603 OFFCURVE",
"195.319 358.873 OFFCURVE",
"281.495 317.796 CURVE SMOOTH",
"364.48 277.76 OFFCURVE",
"427 245.553 OFFCURVE",
"427 170 CURVE SMOOTH",
"427 91.495 OFFCURVE",
"378.273 68 OFFCURVE",
"295 68 CURVE SMOOTH",
"242 68 OFFCURVE",
"184 79 OFFCURVE",
"129 93 CURVE SMOOTH",
"114 97 OFFCURVE",
"103 92 OFFCURVE",
"97 77 CURVE SMOOTH",
"87 50 LINE SMOOTH",
"80 34 OFFCURVE",
"86 22 OFFCURVE",
"103 18 CURVE SMOOTH"
);
}
);
width = 575;
}
);
unicode = 0053;
},
{
glyphname = uni1E9E;
lastChange = "2022-09-08 16:10:34 +0000";
layers = (
{
background = {
paths = (
{
closed = 1;
nodes = (
"285 323 OFFCURVE",
"309 328 OFFCURVE",
"340 328 CURVE SMOOTH",
"416 328 OFFCURVE",
"450 308 OFFCURVE",
"450 198 CURVE SMOOTH",
"450 88 OFFCURVE",
"416 68 OFFCURVE",
"340 68 CURVE SMOOTH",
"317 68 OFFCURVE",
"297 71 OFFCURVE",
"276 78 CURVE SMOOTH",
"261 83 OFFCURVE",
"249 78 OFFCURVE",
"243 64 CURVE SMOOTH",
"231 38 LINE SMOOTH",
"224 22 OFFCURVE",
"228 10 OFFCURVE",
"244 5 CURVE SMOOTH",
"276 -5 OFFCURVE",
"308 -10 OFFCURVE",
"340 -10 CURVE SMOOTH",
"441 -10 OFFCURVE",
"535 46 OFFCURVE",
"535 198 CURVE SMOOTH",
"535 350 OFFCURVE",
"441 406 OFFCURVE",
"340 406 CURVE SMOOTH",
"300 406 OFFCURVE",
"258 398 OFFCURVE",
"220 382 CURVE",
"253 310 LINE"
);
}
);
};
hints = (
{
horizontal = 1;
origin = "{0, 33}";
target = "{0, 20}";
type = Stem;
},
{
horizontal = 1;
origin = "{0, 14}";
target = "{0, 39}";
type = Stem;
},
{
horizontal = 1;
origin = "{0, 48}";
target = "{0, 60}";
type = Stem;
},
{
horizontal = 1;
origin = "{0, 55}";
target = up;
type = BottomGhost;
},
{
origin = "{0, 52}";
target = "{0, 59}";
type = Stem;
}
);
layerId = "A14B1AE3-86D5-4EA7-AE2F-7B4FA04DAB2E";
paths = (
{
closed = 1;
nodes = (
"424 624 LINE",
"421 571 OFFCURVE",
"404 530 OFFCURVE",
"380 504 CURVE SMOOTH",
"274 391 LINE SMOOTH",
"263 380 OFFCURVE",
"264 366 OFFCURVE",
"275 355 CURVE SMOOTH",
"290 339 LINE SMOOTH",
"299 329 OFFCURVE",
"309 326 OFFCURVE",
"322 327 CURVE SMOOTH",
"327 328 OFFCURVE",
"333 328 OFFCURVE",
"340 328 CURVE SMOOTH",
"416 328 OFFCURVE",
"450 308 OFFCURVE",
"450 198 CURVE SMOOTH",
"450 88 OFFCURVE",
"416 68 OFFCURVE",
"340 68 CURVE SMOOTH",
"317 68 OFFCURVE",
"297 71 OFFCURVE",
"276 78 CURVE SMOOTH",
"261 83 OFFCURVE",
"249 78 OFFCURVE",
"243 64 CURVE SMOOTH",
"231 38 LINE SMOOTH",
"224 22 OFFCURVE",
"228 10 OFFCURVE",
"244 5 CURVE SMOOTH",
"276 -5 OFFCURVE",
"308 -10 OFFCURVE",
"340 -10 CURVE SMOOTH",
"441 -10 OFFCURVE",
"535 46 OFFCURVE",
"535 198 CURVE SMOOTH",
"535 327 OFFCURVE",
"463 394 OFFCURVE",
"369 390 CURVE",
"434 455 LINE SMOOTH",
"483 504 OFFCURVE",
"510 572 OFFCURVE",
"510 645 CURVE SMOOTH",
"510 675 LINE SMOOTH",
"510 692 OFFCURVE",
"502 700 OFFCURVE",
"485 700 CURVE SMOOTH",
"110 700 LINE SMOOTH",
"94 700 OFFCURVE",
"85 691 OFFCURVE",
"85 675 CURVE SMOOTH",
"85 25 LINE SMOOTH",
"85 9 OFFCURVE",
"94 0 OFFCURVE",
"110 0 CURVE SMOOTH",
"145 0 LINE SMOOTH",
"162 0 OFFCURVE",
"170 9 OFFCURVE",
"170 25 CURVE SMOOTH",
"170 624 LINE"
);
}
);
width = 575;
},
{
hints = (
{
horizontal = 1;
origin = "{0, 33}";
target = "{0, 20}";
type = Stem;
},
{
horizontal = 1;
origin = "{0, 48}";
target = "{0, 60}";
type = Stem;
},
{
horizontal = 1;
origin = "{0, 14}";
target = "{0, 39}";
type = Stem;
},
{
horizontal = 1;
origin = "{0, 55}";
target = up;
type = BottomGhost;
},
{
origin = "{0, 52}";
target = "{0, 59}";
type = Stem;
}
);
layerId = "FB732A47-0020-4E5B-B7FA-72B1D79E8828";
paths = (
{
closed = 1;
nodes = (
"413 624 LINE",
"409 578 OFFCURVE",
"394 544 OFFCURVE",
"373 521 CURVE SMOOTH",
"267 408 LINE SMOOTH",
"252 393 OFFCURVE",
"253 372 OFFCURVE",
"268 358 CURVE SMOOTH",
"283 342 LINE SMOOTH",
"294 330 OFFCURVE",
"308 326 OFFCURVE",
"323 327 CURVE SMOOTH",
"328 328 OFFCURVE",
"333 328 OFFCURVE",
"340 328 CURVE SMOOTH",
"413 328 OFFCURVE",
"440 312 OFFCURVE",
"440 208 CURVE SMOOTH",
"440 104 OFFCURVE",
"413 88 OFFCURVE",
"340 88 CURVE SMOOTH",
"318 88 OFFCURVE",
"299 91 OFFCURVE",
"279 97 CURVE SMOOTH",
"259 104 OFFCURVE",
"242 97 OFFCURVE",
"234 78 CURVE SMOOTH",
"222 52 LINE SMOOTH",
"213 31 OFFCURVE",
"219 12 OFFCURVE",
"241 5 CURVE SMOOTH",
"274 -5 OFFCURVE",
"307 -10 OFFCURVE",
"340 -10 CURVE SMOOTH",
"445 -10 OFFCURVE",
"545 49 OFFCURVE",
"545 208 CURVE SMOOTH",
"545 332 OFFCURVE",
"480 402 OFFCURVE",
"393 410 CURVE",
"441 458 LINE SMOOTH",
"492 509 OFFCURVE",
"520 580 OFFCURVE",
"520 655 CURVE SMOOTH",
"520 685 LINE SMOOTH",
"520 707 OFFCURVE",
"507 720 OFFCURVE",
"485 720 CURVE SMOOTH",
"110 720 LINE SMOOTH",
"89 720 OFFCURVE",
"75 706 OFFCURVE",
"75 685 CURVE SMOOTH",
"75 35 LINE SMOOTH",
"75 14 OFFCURVE",
"89 0 OFFCURVE",
"110 0 CURVE SMOOTH",
"145 0 LINE SMOOTH",
"168 0 OFFCURVE",
"180 14 OFFCURVE",
"180 35 CURVE SMOOTH",
"180 624 LINE"
);
}
);
width = 575;
},
{
layerId = "8A9476DE-11F4-4864-A7B4-14D9B7165FAE";
paths = (
{
closed = 1;
nodes = (
"483 624 LINE",
"472 571 OFFCURVE",
"448 530 OFFCURVE",
"420 504 CURVE SMOOTH",
"296 391 LINE SMOOTH",
"284 380 OFFCURVE",
"282 366 OFFCURVE",
"292 355 CURVE SMOOTH",
"304 339 LINE SMOOTH",
"312 329 OFFCURVE",
"321 326 OFFCURVE",
"334 327 CURVE SMOOTH",
"339 328 OFFCURVE",
"345 328 OFFCURVE",
"352 328 CURVE SMOOTH",
"428 328 OFFCURVE",
"459 308 OFFCURVE",
"442 198 CURVE SMOOTH",
"424 88 OFFCURVE",
"387 68 OFFCURVE",
"311 68 CURVE SMOOTH",
"288 68 OFFCURVE",
"269 71 OFFCURVE",
"249 78 CURVE SMOOTH",
"235 83 OFFCURVE",
"222 78 OFFCURVE",
"214 64 CURVE SMOOTH",
"197 38 LINE SMOOTH",
"188 22 OFFCURVE",
"190 10 OFFCURVE",
"205 5 CURVE SMOOTH",
"236 -5 OFFCURVE",
"267 -10 OFFCURVE",
"299 -10 CURVE SMOOTH",
"400 -10 OFFCURVE",
"503 46 OFFCURVE",
"527 198 CURVE SMOOTH",
"547 327 OFFCURVE",
"486 394 OFFCURVE",
"391 390 CURVE",
"466 455 LINE SMOOTH",
"523 504 OFFCURVE",
"561 572 OFFCURVE",
"573 645 CURVE SMOOTH",
"577 675 LINE SMOOTH",
"580 692 OFFCURVE",
"573 700 OFFCURVE",
"556 700 CURVE SMOOTH",
"181 700 LINE SMOOTH",
"165 700 OFFCURVE",
"155 691 OFFCURVE",
"152 675 CURVE SMOOTH",
"49 25 LINE SMOOTH",
"47 9 OFFCURVE",
"54 0 OFFCURVE",
"70 0 CURVE SMOOTH",
"105 0 LINE SMOOTH",
"122 0 OFFCURVE",
"132 9 OFFCURVE",
"134 25 CURVE SMOOTH",
"229 624 LINE"
);
}
);
width = 575;
},
{
layerId = "C492240F-DFB2-48B7-8D1C-81E7E6E3599E";
paths = (
{
closed = 1;
nodes = (
"471 624 LINE",
"459 578 OFFCURVE",
"439 544 OFFCURVE",
"414 521 CURVE SMOOTH",
"290 408 LINE SMOOTH",
"273 393 OFFCURVE",
"271 372 OFFCURVE",
"284 358 CURVE SMOOTH",
"296 342 LINE SMOOTH",
"305 330 OFFCURVE",
"318 326 OFFCURVE",
"334 327 CURVE SMOOTH",
"339 328 OFFCURVE",
"344 328 OFFCURVE",
"351 328 CURVE SMOOTH",
"424 328 OFFCURVE",
"448 312 OFFCURVE",
"432 208 CURVE SMOOTH",
"415 104 OFFCURVE",
"386 88 OFFCURVE",
"313 88 CURVE SMOOTH",
"291 88 OFFCURVE",
"272 91 OFFCURVE",
"253 97 CURVE SMOOTH",
"234 104 OFFCURVE",
"216 97 OFFCURVE",
"205 78 CURVE SMOOTH",
"189 52 LINE SMOOTH",
"177 31 OFFCURVE",
"180 12 OFFCURVE",
"201 5 CURVE SMOOTH",
"232 -5 OFFCURVE",
"264 -10 OFFCURVE",
"297 -10 CURVE SMOOTH",
"402 -10 OFFCURVE",
"512 49 OFFCURVE",
"537 208 CURVE SMOOTH",
"556 332 OFFCURVE",
"502 402 OFFCURVE",
"417 410 CURVE",
"472 458 LINE SMOOTH",
"531 509 OFFCURVE",
"571 580 OFFCURVE",
"583 655 CURVE SMOOTH",
"587 685 LINE SMOOTH",
"591 707 OFFCURVE",
"580 720 OFFCURVE",
"558 720 CURVE SMOOTH",
"183 720 LINE SMOOTH",
"162 720 OFFCURVE",
"146 706 OFFCURVE",
"142 685 CURVE SMOOTH",
"39 35 LINE SMOOTH",
"36 14 OFFCURVE",
"48 0 OFFCURVE",
"69 0 CURVE SMOOTH",
"104 0 LINE SMOOTH",
"127 0 OFFCURVE",
"141 14 OFFCURVE",
"144 35 CURVE SMOOTH",
"238 624 LINE"
);
}
);
width = 575;
}
);
widthMetricsKey = space;
unicode = 1E9E;
},
{
glyphname = T;
lastChange = "2016-06-09 18:35:33 +0000";
layers = (
{
anchors = (
{
name = bottom;
position = "{288, 0}";
},
{
name = center;
position = "{288, 350}";
},
{
name = top;
position = "{288, 700}";
}
);
hints = (
{
horizontal = 1;
origin = "{0, 16}";
target = up;
type = BottomGhost;
},
{
horizontal = 1;
origin = "{0, 4}";
target = "{0, 11}";
type = Stem;
},
{
origin = "{0, 12}";
target = "{0, 21}";
type = Stem;
},
{
horizontal = 1;
place = "{21.5, -21.5}";
type = Stem;
},
{
horizontal = 1;
origin = "{0, 4}";
target = "{0, 11}";
type = TTStem;
},
{
horizontal = 1;
origin = "{0, 17}";
type = Anchor;
}
);
layerId = "A14B1AE3-86D5-4EA7-AE2F-7B4FA04DAB2E";
paths = (
{
closed = 1;
nodes = (
"554 675 LINE SMOOTH",
"554 692 OFFCURVE",
"545 700 OFFCURVE",
"529 700 CURVE SMOOTH",
"47 700 LINE SMOOTH",
"30 700 OFFCURVE",
"22 691 OFFCURVE",
"22 675 CURVE SMOOTH",
"22 649 LINE SMOOTH",
"22 633 OFFCURVE",
"30 624 OFFCURVE",
"46 624 CURVE SMOOTH",
"245 624 LINE",
"245 25 LINE SMOOTH",
"245 9 OFFCURVE",
"254 0 OFFCURVE",
"270 0 CURVE SMOOTH",
"305 0 LINE SMOOTH",
"322 0 OFFCURVE",
"330 9 OFFCURVE",
"330 25 CURVE SMOOTH",
"330 624 LINE",
"529 624 LINE SMOOTH",
"545 624 OFFCURVE",
"554 633 OFFCURVE",
"554 649 CURVE SMOOTH"
);
}
);
width = 575;
},
{
anchors = (
{
name = bottom;
position = "{288, 0}";
},
{
name = center;
position = "{288, 350}";
},
{
name = top;
position = "{288, 700}";
}
);
hints = (
{
horizontal = 1;
place = "{21.5, -21.5}";
type = Stem;
},
{
horizontal = 1;
origin = "{0, 4}";
target = "{0, 11}";
type = TTStem;
},
{
horizontal = 1;
origin = "{0, 17}";
type = Anchor;
}
);
layerId = "FB732A47-0020-4E5B-B7FA-72B1D79E8828";
paths = (
{
closed = 1;
nodes = (
"564 685 LINE",
"564 706 OFFCURVE",
"549 720 OFFCURVE",
"529 720 CURVE",
"47 720 LINE",
"26 720 OFFCURVE",
"12 705 OFFCURVE",
"12 685 CURVE",
"12 659 LINE",
"12 639 OFFCURVE",
"26 624 OFFCURVE",
"46 624 CURVE",
"235 624 LINE",
"235 35 LINE",
"235 15 OFFCURVE",
"250 0 OFFCURVE",
"270 0 CURVE",
"305 0 LINE",
"326 0 OFFCURVE",
"340 15 OFFCURVE",
"340 35 CURVE",
"340 624 LINE",
"529 624 LINE",
"549 624 OFFCURVE",
"564 639 OFFCURVE",
"564 659 CURVE"
);
}
);
width = 575;
},
{
layerId = "8A9476DE-11F4-4864-A7B4-14D9B7165FAE";
paths = (
{
closed = 1;
nodes = (
"621 675 LINE SMOOTH",
"624 692 OFFCURVE",
"616 700 OFFCURVE",
"600 700 CURVE SMOOTH",
"118 700 LINE SMOOTH",
"101 700 OFFCURVE",
"92 691 OFFCURVE",
"89 675 CURVE SMOOTH",
"85 649 LINE SMOOTH",
"83 633 OFFCURVE",
"89 624 OFFCURVE",
"105 624 CURVE SMOOTH",
"304 624 LINE",
"209 25 LINE SMOOTH",
"207 9 OFFCURVE",
"214 0 OFFCURVE",
"230 0 CURVE SMOOTH",
"265 0 LINE SMOOTH",
"282 0 OFFCURVE",
"292 9 OFFCURVE",
"294 25 CURVE SMOOTH",
"389 624 LINE",
"588 624 LINE SMOOTH",
"604 624 OFFCURVE",
"615 633 OFFCURVE",
"617 649 CURVE SMOOTH"
);
}
);
width = 575;
},
{
layerId = "C492240F-DFB2-48B7-8D1C-81E7E6E3599E";
paths = (
{
closed = 1;
nodes = (
"633 685 LINE",
"636 706 OFFCURVE",
"623 720 OFFCURVE",
"603 720 CURVE",
"121 720 LINE",
"100 720 OFFCURVE",
"84 705 OFFCURVE",
"81 685 CURVE",
"77 659 LINE",
"74 639 OFFCURVE",
"85 624 OFFCURVE",
"105 624 CURVE",
"294 624 LINE",
"201 35 LINE",
"198 15 OFFCURVE",
"210 0 OFFCURVE",
"230 0 CURVE",
"265 0 LINE",
"286 0 OFFCURVE",
"303 15 OFFCURVE",
"306 35 CURVE",
"399 624 LINE",
"588 624 LINE",
"608 624 OFFCURVE",
"626 639 OFFCURVE",
"629 659 CURVE"
);
}
);
width = 575;
}
);
unicode = 0054;
},
{
glyphname = U;
lastChange = "2019-04-15 20:28:16 +0000";
layers = (
{
anchors = (
{
name = bottom;
position = "{288, 0}";
},
{
name = ogonek;
position = "{355, 5}";
},
{
name = top;
position = "{288, 700}";
},
{
name = topright;
position = "{555, 700}";
}
);
hints = (
{
horizontal = 1;
origin = "{0, 18}";
target = "{0, 3}";
type = TTStem;
},
{
horizontal = 1;
origin = "{0, 10}";
type = Anchor;
},
{
horizontal = 1;
origin = "{0, 26}";
type = Anchor;
},
{
horizontal = 1;
origin = "{0, 18}";
target = "{0, 3}";
type = Stem;
},
{
horizontal = 1;
origin = "{0, 11}";
target = down;
type = TopGhost;
},
{
origin = "{0, 15}";
target = "{0, 6}";
type = Stem;
},
{
origin = "{0, 0}";
target = "{0, 21}";
type = Stem;
}
);
layerId = "A14B1AE3-86D5-4EA7-AE2F-7B4FA04DAB2E";
paths = (
{
closed = 1;
nodes = (
"405 213 LINE SMOOTH",
"405 103 OFFCURVE",
"372 66 OFFCURVE",
"288 66 CURVE SMOOTH",
"203 66 OFFCURVE",
"170 103 OFFCURVE",
"170 213 CURVE SMOOTH",
"170 675 LINE SMOOTH",
"170 691 OFFCURVE",
"161 700 OFFCURVE",
"145 700 CURVE SMOOTH",
"110 700 LINE SMOOTH",
"94 700 OFFCURVE",
"85 691 OFFCURVE",
"85 675 CURVE SMOOTH",
"85 213 LINE SMOOTH",
"85 46 OFFCURVE",
"170 -10 OFFCURVE",
"288 -10 CURVE SMOOTH",
"406 -10 OFFCURVE",
"490 46 OFFCURVE",
"490 213 CURVE SMOOTH",
"490 675 LINE SMOOTH",
"490 691 OFFCURVE",
"481 700 OFFCURVE",
"465 700 CURVE SMOOTH",
"430 700 LINE SMOOTH",
"414 700 OFFCURVE",
"405 691 OFFCURVE",
"405 675 CURVE SMOOTH"
);
}
);
width = 575;
},
{
anchors = (
{
name = ogonek;
position = "{518, 5}";
},
{
name = top;
position = "{288, 700}";
}
);
hints = (
{
horizontal = 1;
origin = "{0, 18}";
target = "{0, 3}";
type = TTStem;
},
{
horizontal = 1;
origin = "{0, 10}";
type = Anchor;
},
{
horizontal = 1;
origin = "{0, 26}";
type = Anchor;
},
{
horizontal = 1;
origin = "{0, 18}";
target = "{0, 3}";
type = Stem;
},
{
horizontal = 1;
origin = "{0, 11}";
target = down;
type = TopGhost;
},
{
origin = "{0, 15}";
target = "{0, 6}";
type = Stem;
},
{
origin = "{0, 0}";
target = "{0, 21}";
type = Stem;
}
);
layerId = "FB732A47-0020-4E5B-B7FA-72B1D79E8828";
paths = (
{
closed = 1;
nodes = (
"395 223 LINE SMOOTH",
"395 119.995 OFFCURVE",
"367.572 86 OFFCURVE",
"288 86 CURVE SMOOTH",
"207.541 86 OFFCURVE",
"180 119.832 OFFCURVE",
"180 223 CURVE SMOOTH",
"180 685 LINE SMOOTH",
"180 706.474 OFFCURVE",
"166.474 720 OFFCURVE",
"145 720 CURVE SMOOTH",
"110 720 LINE SMOOTH",
"88.526 720 OFFCURVE",
"75 706.474 OFFCURVE",
"75 685 CURVE SMOOTH",
"75 223 LINE SMOOTH",
"75 68.629 OFFCURVE",
"146.708 -10 OFFCURVE",
"288 -10 CURVE SMOOTH",
"428.921 -10 OFFCURVE",
"500 68.318 OFFCURVE",
"500 223 CURVE SMOOTH",
"500 685 LINE SMOOTH",
"500 706.474 OFFCURVE",
"486.474 720 OFFCURVE",
"465 720 CURVE SMOOTH",
"430 720 LINE SMOOTH",
"408.526 720 OFFCURVE",
"395 706.474 OFFCURVE",
"395 685 CURVE SMOOTH"
);
}
);
width = 575;
},
{
anchors = (
{
name = bottom;
position = "{248, 0}";
},
{
name = ogonek;
position = "{477, 10}";
},
{
name = top;
position = "{359, 700}";
},
{
name = topright;
position = "{626, 700}";
}
);
hints = (
{
horizontal = 1;
origin = "{0, 24}";
target = "{0, 3}";
type = Stem;
},
{
horizontal = 1;
origin = "{0, 14}";
target = down;
type = TopGhost;
}
);
layerId = "8A9476DE-11F4-4864-A7B4-14D9B7165FAE";
paths = (
{
closed = 1;
nodes = (
"399 213 LINE SMOOTH",
"382 103 OFFCURVE",
"355 66 OFFCURVE",
"271 66 CURVE SMOOTH",
"202 66 OFFCURVE",
"159 90 OFFCURVE",
"159 159 CURVE SMOOTH",
"159 174 OFFCURVE",
"161 192 OFFCURVE",
"164 213 CURVE SMOOTH",
"237 675 LINE SMOOTH",
"240 691 OFFCURVE",
"232 700 OFFCURVE",
"216 700 CURVE SMOOTH",
"181 700 LINE SMOOTH",
"165 700 OFFCURVE",
"155 691 OFFCURVE",
"152 675 CURVE SMOOTH",
"79 213 LINE SMOOTH",
"76 191 OFFCURVE",
"74 171 OFFCURVE",
"74 152 CURVE SMOOTH",
"74 32 OFFCURVE",
"157 -10 OFFCURVE",
"259 -10 CURVE SMOOTH",
"377 -10 OFFCURVE",
"458 46 OFFCURVE",
"484 213 CURVE SMOOTH",
"557 675 LINE SMOOTH",
"560 691 OFFCURVE",
"552 700 OFFCURVE",
"536 700 CURVE SMOOTH",
"501 700 LINE SMOOTH",
"485 700 OFFCURVE",
"475 691 OFFCURVE",
"472 675 CURVE SMOOTH"
);
}
);
width = 575;
},
{
anchors = (
{
name = bottom;
position = "{247, 0}";
},
{
name = ogonek;
position = "{476, 10}";
},
{
name = top;
position = "{361, 720}";
},
{
name = topright;
position = "{628, 720}";
}
);
hints = (
{
horizontal = 1;
origin = "{0, 24}";
target = "{0, 3}";
type = Stem;
},
{
horizontal = 1;
origin = "{0, 14}";
target = down;
type = TopGhost;
}
);
layerId = "C492240F-DFB2-48B7-8D1C-81E7E6E3599E";
paths = (
{
closed = 1;
nodes = (
"389 223 LINE SMOOTH",
"373 120 OFFCURVE",
"350 86 OFFCURVE",
"270 86 CURVE SMOOTH",
"206 86 OFFCURVE",
"169 108 OFFCURVE",
"169 169 CURVE SMOOTH",
"169 185 OFFCURVE",
"171 202 OFFCURVE",
"174 223 CURVE SMOOTH",
"247 685 LINE SMOOTH",
"251 706 OFFCURVE",
"239 720 OFFCURVE",
"218 720 CURVE SMOOTH",
"183 720 LINE SMOOTH",
"161 720 OFFCURVE",
"146 706 OFFCURVE",
"142 685 CURVE SMOOTH",
"69 223 LINE SMOOTH",
"66 201 OFFCURVE",
"64 180 OFFCURVE",
"64 161 CURVE SMOOTH",
"64 48 OFFCURVE",
"134 -10 OFFCURVE",
"255 -10 CURVE SMOOTH",
"396 -10 OFFCURVE",
"470 68 OFFCURVE",
"494 223 CURVE SMOOTH",
"567 685 LINE SMOOTH",
"571 706 OFFCURVE",
"559 720 OFFCURVE",
"538 720 CURVE SMOOTH",
"503 720 LINE SMOOTH",
"481 720 OFFCURVE",
"466 706 OFFCURVE",
"462 685 CURVE SMOOTH"
);
}
);
width = 575;
},
{
anchors = (
{
name = ogonek;
position = "{355, 5}";
},
{
name = top;
position = "{288, 700}";
}
);
associatedMasterId = "A14B1AE3-86D5-4EA7-AE2F-7B4FA04DAB2E";
hints = (
{
horizontal = 1;
origin = "{0, 14}";
target = down;
type = TopGhost;
},
{
horizontal = 1;
origin = "{0, 22}";
target = "{0, 7}";
type = Stem;
},
{
origin = "{0, 19}";
target = "{0, 10}";
type = Stem;
},
{
origin = "{0, 4}";
target = "{0, 25}";
type = Stem;
},
{
horizontal = 1;
origin = "{0, 14}";
type = Anchor;
},
{
horizontal = 1;
origin = "{0, 22}";
target = "{0, 7}";
type = Align;
}
);
layerId = "867F95A2-EF2F-4476-A605-5C22CF53B1CF";
name = "Regular Dec 21 15, 18:29";
paths = (
{
closed = 1;
nodes = (
"430 700 LINE SMOOTH",
"414 700 OFFCURVE",
"405 691 OFFCURVE",
"405 675 CURVE SMOOTH",
"405 213 LINE SMOOTH",
"405 110 OFFCURVE",
"353 66 OFFCURVE",
"288 66 CURVE SMOOTH",
"223 66 OFFCURVE",
"170 110 OFFCURVE",
"170 213 CURVE SMOOTH",
"170 675 LINE SMOOTH",
"170 692 OFFCURVE",
"161 700 OFFCURVE",
"145 700 CURVE SMOOTH",
"110 700 LINE SMOOTH",
"94 700 OFFCURVE",
"85 691 OFFCURVE",
"85 675 CURVE SMOOTH",
"85 213 LINE SMOOTH",
"85 46 OFFCURVE",
"170 -10 OFFCURVE",
"288 -10 CURVE SMOOTH",
"406 -10 OFFCURVE",
"490 48 OFFCURVE",
"490 213 CURVE SMOOTH",
"490 675 LINE SMOOTH",
"490 692 OFFCURVE",
"482 700 OFFCURVE",
"465 700 CURVE SMOOTH"
);
}
);
width = 575;
}
);
unicode = 0055;
},
{
glyphname = V;
lastChange = "2016-06-09 18:35:33 +0000";
layers = (
{
anchors = (
{
name = ogonek;
position = "{517, 690}";
},
{
name = top;
position = "{288, 0}";
}
);
hints = (
{
horizontal = 1;
place = "{700, -20}";
target = down;
type = TopGhost;
},
{
horizontal = 1;
place = "{-10, 77}";
type = Stem;
},
{
horizontal = 1;
place = "{700, 21}";
target = up;
type = BottomGhost;
},
{
horizontal = 1;
place = "{-10, 76}";
type = Stem;
},
{
horizontal = 1;
origin = "{0, 26}";
target = "{0, 11}";
type = Align;
},
{
horizontal = 1;
origin = "{0, 15}";
target = "{0, 22}";
other1 = "{0, 14}";
other2 = "{0, 23}";
type = Diagonal;
},
{
horizontal = 1;
origin = "{0, 0}";
target = "{0, 7}";
other1 = "{0, 29}";
other2 = "{0, 8}";
type = Diagonal;
},
{
horizontal = 1;
origin = "{0, 18}";
type = Anchor;
},
{
horizontal = 1;
origin = "{0, 4}";
type = Anchor;
}
);
layerId = "A14B1AE3-86D5-4EA7-AE2F-7B4FA04DAB2E";
paths = (
{
closed = 1;
nodes = (
"558 672 LINE",
"563 689 OFFCURVE",
"554 700 OFFCURVE",
"537 700 CURVE SMOOTH",
"501 700 LINE SMOOTH",
"486 700 OFFCURVE",
"477 693 OFFCURVE",
"473 678 CURVE SMOOTH",
"327 93 LINE SMOOTH",
"323 75 OFFCURVE",
"305 66 OFFCURVE",
"288 66 CURVE SMOOTH",
"271 66 OFFCURVE",
"253 75 OFFCURVE",
"249 93 CURVE SMOOTH",
"102 678 LINE",
"99 693 OFFCURVE",
"89 700 OFFCURVE",
"74 700 CURVE SMOOTH",
"39 700 LINE SMOOTH",
"21 700 OFFCURVE",
"13 689 OFFCURVE",
"17 672 CURVE SMOOTH",
"165 79 LINE SMOOTH",
"180 21 OFFCURVE",
"229 -10 OFFCURVE",
"288 -10 CURVE SMOOTH",
"347 -10 OFFCURVE",
"396 21 OFFCURVE",
"410 79 CURVE SMOOTH"
);
}
);
width = 575;
},
{
hints = (
{
horizontal = 1;
place = "{-10, 11500}";
type = Stem;
},
{
place = "{5.93, 563.41}";
type = Stem;
},
{
horizontal = 1;
origin = "{0, 18}";
type = Anchor;
},
{
horizontal = 1;
origin = "{0, 26}";
target = "{0, 11}";
type = Align;
}
);
layerId = "FB732A47-0020-4E5B-B7FA-72B1D79E8828";
paths = (
{
closed = 1;
nodes = (
"568 680 LINE",
"574 702 OFFCURVE",
"561 720 OFFCURVE",
"537 720 CURVE SMOOTH",
"501 720 LINE SMOOTH",
"482 720 OFFCURVE",
"468 710 OFFCURVE",
"463 691 CURVE SMOOTH",
"317 105 LINE SMOOTH",
"315 94 OFFCURVE",
"303 86 OFFCURVE",
"288 86 CURVE SMOOTH",
"273 86 OFFCURVE",
"261 94 OFFCURVE",
"259 105 CURVE SMOOTH",
"112 690 LINE",
"108 709 OFFCURVE",
"94 720 OFFCURVE",
"74 720 CURVE SMOOTH",
"39 720 LINE SMOOTH",
"15 720 OFFCURVE",
"2 703 OFFCURVE",
"7 680 CURVE SMOOTH",
"155 87 LINE SMOOTH",
"171 27 OFFCURVE",
"222 -10 OFFCURVE",
"288 -10 CURVE SMOOTH",
"355 -10 OFFCURVE",
"405 27 OFFCURVE",
"420 87 CURVE SMOOTH"
);
}
);
width = 575;
},
{
associatedMasterId = "A14B1AE3-86D5-4EA7-AE2F-7B4FA04DAB2E";
hints = (
{
horizontal = 1;
place = "{0, 0}";
type = Stem;
},
{
horizontal = 1;
place = "{0, 0}";
type = Stem;
},
{
place = "{0, 0}";
type = Stem;
},
{
place = "{0, 0}";
type = Stem;
}
);
layerId = "436DD152-1BCD-4BDA-8943-33290E82B091";
name = "Regular Dec 27 13, 23:35";
paths = (
{
closed = 1;
nodes = (
"36 700 LINE SMOOTH",
"18 700 OFFCURVE",
"10 690 OFFCURVE",
"15 672 CURVE SMOOTH",
"181 64 LINE SMOOTH",
"196 8 OFFCURVE",
"228 -10 OFFCURVE",
"288 -10 CURVE SMOOTH",
"346 -10 OFFCURVE",
"379 7 OFFCURVE",
"395 64 CURVE SMOOTH",
"561 672 LINE SMOOTH",
"565 690 OFFCURVE",
"557 700 OFFCURVE",
"539 700 CURVE SMOOTH",
"502 700 LINE SMOOTH",
"487 700 OFFCURVE",
"478 693 OFFCURVE",
"474 679 CURVE SMOOTH",
"313 84 LINE SMOOTH",
"310 71 OFFCURVE",
"304 67 OFFCURVE",
"288 67 CURVE SMOOTH",
"277 67 OFFCURVE",
"266 68 OFFCURVE",
"263 84 CURVE",
"101 679 LINE SMOOTH",
"97 693 OFFCURVE",
"88 700 OFFCURVE",
"73 700 CURVE SMOOTH"
);
}
);
width = 575;
},
{
associatedMasterId = "FB732A47-0020-4E5B-B7FA-72B1D79E8828";
layerId = "54FEFE0C-49D8-405A-945E-D7D668D42C7D";
name = "Bold Aug 24 14, 22:52";
paths = (
{
closed = 1;
nodes = (
"558 672 LINE SMOOTH",
"563 690 OFFCURVE",
"554 700 OFFCURVE",
"537 700 CURVE SMOOTH",
"451 700 LINE SMOOTH",
"436 700 OFFCURVE",
"426 693 OFFCURVE",
"423 679 CURVE SMOOTH",
"327 93 LINE SMOOTH",
"324 76 OFFCURVE",
"309 67 OFFCURVE",
"288 67 CURVE SMOOTH",
"267 67 OFFCURVE",
"252 76 OFFCURVE",
"249 93 CURVE SMOOTH",
"152 679 LINE SMOOTH",
"150 693 OFFCURVE",
"139 700 OFFCURVE",
"124 700 CURVE SMOOTH",
"39 700 LINE SMOOTH",
"21 700 OFFCURVE",
"13 690 OFFCURVE",
"17 672 CURVE SMOOTH",
"165 80 LINE SMOOTH",
"180 22 OFFCURVE",
"223 -10 OFFCURVE",
"288 -10 CURVE SMOOTH",
"352 -10 OFFCURVE",
"396 22 OFFCURVE",
"410 80 CURVE SMOOTH"
);
}
);
width = 575;
},
{
layerId = "8A9476DE-11F4-4864-A7B4-14D9B7165FAE";
paths = (
{
closed = 1;
nodes = (
"625 672 LINE SMOOTH",
"633 689 OFFCURVE",
"625 700 OFFCURVE",
"608 700 CURVE SMOOTH",
"572 700 LINE SMOOTH",
"557 700 OFFCURVE",
"547 693 OFFCURVE",
"541 678 CURVE",
"302 93 LINE",
"295 75 OFFCURVE",
"276 66 OFFCURVE",
"259 66 CURVE SMOOTH",
"242 66 OFFCURVE",
"225 75 OFFCURVE",
"224 93 CURVE",
"170 678 LINE",
"169 693 OFFCURVE",
"160 700 OFFCURVE",
"145 700 CURVE SMOOTH",
"110 700 LINE SMOOTH",
"92 700 OFFCURVE",
"83 689 OFFCURVE",
"84 672 CURVE SMOOTH",
"138 79 LINE SMOOTH",
"144 21 OFFCURVE",
"194 -10 OFFCURVE",
"253 -10 CURVE SMOOTH",
"312 -10 OFFCURVE",
"360 21 OFFCURVE",
"383 79 CURVE SMOOTH"
);
}
);
width = 575;
},
{
layerId = "C492240F-DFB2-48B7-8D1C-81E7E6E3599E";
paths = (
{
closed = 1;
nodes = (
"634 680 LINE",
"644 702 OFFCURVE",
"634 720 OFFCURVE",
"610 720 CURVE SMOOTH",
"574 720 LINE SMOOTH",
"554 720 OFFCURVE",
"540 710 OFFCURVE",
"532 691 CURVE SMOOTH",
"293 105 LINE SMOOTH",
"288 94 OFFCURVE",
"275 86 OFFCURVE",
"260 86 CURVE SMOOTH",
"245 86 OFFCURVE",
"235 94 OFFCURVE",
"234 105 CURVE SMOOTH",
"180 690 LINE",
"179 709 OFFCURVE",
"167 720 OFFCURVE",
"147 720 CURVE SMOOTH",
"112 720 LINE SMOOTH",
"88 720 OFFCURVE",
"72 703 OFFCURVE",
"74 680 CURVE SMOOTH",
"128 87 LINE SMOOTH",
"134 27 OFFCURVE",
"186 -10 OFFCURVE",
"252 -10 CURVE SMOOTH",
"319 -10 OFFCURVE",
"368 27 OFFCURVE",
"392 87 CURVE SMOOTH"
);
}
);
width = 575;
}
);
unicode = 0056;
},
{
glyphname = W;
lastChange = "2016-06-09 18:35:33 +0000";
layers = (
{
anchors = (
{
name = top;
position = "{288, 700}";
}
);
hints = (
{
horizontal = 1;
place = "{400, 0}";
type = Anchor;
},
{
horizontal = 1;
place = "{700, 0}";
type = Anchor;
},
{
horizontal = 1;
place = "{700, 0}";
type = Anchor;
},
{
horizontal = 1;
place = "{-5, 0}";
type = Anchor;
},
{
horizontal = 1;
place = "{678.5, 21.5}";
type = Stem;
},
{
horizontal = 1;
place = "{-4.99, 20.48}";
type = Stem;
},
{
place = "{50.99, -73.99}";
type = Stem;
},
{
place = "{450.99, -74}";
type = Stem;
},
{
horizontal = 1;
origin = "{0, 30}";
type = Anchor;
},
{
horizontal = 1;
origin = "{0, 38}";
type = Anchor;
},
{
horizontal = 1;
origin = "{0, 21}";
type = Anchor;
},
{
horizontal = 1;
origin = "{0, 4}";
type = Anchor;
}
);
layerId = "A14B1AE3-86D5-4EA7-AE2F-7B4FA04DAB2E";
paths = (
{
closed = 1;
nodes = (
"545 674 LINE SMOOTH",
"545 689 OFFCURVE",
"534 700 OFFCURVE",
"519 700 CURVE SMOOTH",
"485 700 LINE SMOOTH",
"470 700 OFFCURVE",
"461 689 OFFCURVE",
"460 674 CURVE SMOOTH",
"442 160 LINE",
"331 382 LINE SMOOTH",
"325 395 OFFCURVE",
"316 400 OFFCURVE",
"302 400 CURVE SMOOTH",
"274 400 LINE SMOOTH",
"260 400 OFFCURVE",
"251 395 OFFCURVE",
"245 382 CURVE SMOOTH",
"134 160 LINE",
"116 674 LINE SMOOTH",
"115 689 OFFCURVE",
"106 700 OFFCURVE",
"91 700 CURVE SMOOTH",
"57 700 LINE SMOOTH",
"42 700 OFFCURVE",
"31 689 OFFCURVE",
"31 674 CURVE SMOOTH",
"51 20 LINE SMOOTH",
"51 4 OFFCURVE",
"60 -5 OFFCURVE",
"78 -5 CURVE SMOOTH",
"94 -5 LINE SMOOTH",
"122 -5 OFFCURVE",
"141 6 OFFCURVE",
"153 31 CURVE SMOOTH",
"288 301 LINE",
"423 31 LINE SMOOTH",
"435 6 OFFCURVE",
"454 -5 OFFCURVE",
"482 -5 CURVE SMOOTH",
"498 -5 LINE SMOOTH",
"516 -5 OFFCURVE",
"525 4 OFFCURVE",
"525 20 CURVE SMOOTH"
);
}
);
width = 575;
},
{
anchors = (
{
name = top;
position = "{288, 700}";
}
);
components = (
{
name = M;
transform = "{-1, 0, 0, -1, 575, 720}";
}
);
layerId = "FB732A47-0020-4E5B-B7FA-72B1D79E8828";
width = 575;
},
{
anchors = (
{
name = top;
position = "{288, 700}";
}
);
associatedMasterId = "A14B1AE3-86D5-4EA7-AE2F-7B4FA04DAB2E";
hints = (
{
horizontal = 1;
place = "{-5, 10.5}";
type = Stem;
},
{
place = "{447, 0}";
type = Stem;
},
{
horizontal = 1;
place = "{700, -10}";
type = Stem;
},
{
place = "{51, 85}";
type = Stem;
},
{
place = "{439, 85}";
type = Stem;
},
{
horizontal = 1;
place = "{0, 0}";
type = Stem;
}
);
layerId = "55B76DDD-9971-40EF-B971-0706934E2DEA";
name = "Regular Jan 21 14, 20:25";
paths = (
{
closed = 1;
nodes = (
"515 -5 OFFCURVE",
"524 4 OFFCURVE",
"524 20 CURVE SMOOTH",
"524 675 LINE SMOOTH",
"524 690 OFFCURVE",
"514 700 OFFCURVE",
"499 700 CURVE SMOOTH",
"465 700 LINE SMOOTH",
"450 700 OFFCURVE",
"439 690 OFFCURVE",
"439 675 CURVE SMOOTH",
"439 426 OFFCURVE",
"441 299 OFFCURVE",
"444 226 CURVE",
"382 351 LINE SMOOTH",
"360 394 OFFCURVE",
"336 430 OFFCURVE",
"288 430 CURVE SMOOTH",
"240 430 OFFCURVE",
"215 394 OFFCURVE",
"194 351 CURVE SMOOTH",
"131 226 LINE",
"134 299 OFFCURVE",
"136 426 OFFCURVE",
"136 675 CURVE SMOOTH",
"136 690 OFFCURVE",
"126 700 OFFCURVE",
"111 700 CURVE SMOOTH",
"77 700 LINE SMOOTH",
"62 700 OFFCURVE",
"51 690 OFFCURVE",
"51 675 CURVE SMOOTH",
"51 20 LINE SMOOTH",
"51 4 OFFCURVE",
"60 -5 OFFCURVE",
"78 -5 CURVE SMOOTH",
"79 -5 LINE SMOOTH",
"93 -5 OFFCURVE",
"103 1 OFFCURVE",
"109 13 CURVE SMOOTH",
"262 320 LINE SMOOTH",
"268 332 OFFCURVE",
"275 342 OFFCURVE",
"288 342 CURVE SMOOTH",
"301 342 OFFCURVE",
"307 332 OFFCURVE",
"313 320 CURVE SMOOTH",
"467 13 LINE SMOOTH",
"473 1 OFFCURVE",
"482 -5 OFFCURVE",
"496 -5 CURVE SMOOTH",
"498 -5 LINE SMOOTH"
);
}
);
width = 575;
},
{
components = (
{
name = M;
transform = "{-1, 0, 0, -1, 607, 700}";
}
);
layerId = "8A9476DE-11F4-4864-A7B4-14D9B7165FAE";
width = 575;
},
{
components = (
{
name = M;
transform = "{-1, 0, 0, -1, 607, 720}";
}
);
layerId = "C492240F-DFB2-48B7-8D1C-81E7E6E3599E";
width = 575;
},
{
anchors = (
{
name = top;
position = "{288, 700}";
}
);
associatedMasterId = "A14B1AE3-86D5-4EA7-AE2F-7B4FA04DAB2E";
layerId = "E34D159A-D0D3-4DBA-B4E1-7A4D0E6BD5AD";
name = "Regular Feb 23 15, 17:43";
paths = (
{
closed = 1;
nodes = (
"466 700 LINE SMOOTH",
"450 700 OFFCURVE",
"441 692 OFFCURVE",
"441 675 CURVE SMOOTH",
"441 153 LINE SMOOTH",
"441 96 OFFCURVE",
"422 67 OFFCURVE",
"386 67 CURVE SMOOTH",
"350 67 OFFCURVE",
"331 96 OFFCURVE",
"331 153 CURVE SMOOTH",
"331 475 LINE SMOOTH",
"331 492 OFFCURVE",
"323 500 OFFCURVE",
"306 500 CURVE SMOOTH",
"271 500 LINE SMOOTH",
"254 500 OFFCURVE",
"246 492 OFFCURVE",
"246 475 CURVE SMOOTH",
"246 153 LINE SMOOTH",
"246 96 OFFCURVE",
"227 67 OFFCURVE",
"191 67 CURVE SMOOTH",
"155 67 OFFCURVE",
"136 96 OFFCURVE",
"136 153 CURVE SMOOTH",
"136 675 LINE SMOOTH",
"136 692 OFFCURVE",
"127 700 OFFCURVE",
"111 700 CURVE SMOOTH",
"76 700 LINE SMOOTH",
"60 700 OFFCURVE",
"51 691 OFFCURVE",
"51 675 CURVE SMOOTH",
"51 153 LINE SMOOTH",
"51 45 OFFCURVE",
"94 -10 OFFCURVE",
"177 -10 CURVE SMOOTH",
"233.108 -10 OFFCURVE",
"270.488 15.75 OFFCURVE",
"288.5 66.61 CURVE",
"306.512 15.75 OFFCURVE",
"343.892 -10 OFFCURVE",
"400 -10 CURVE SMOOTH",
"483 -10 OFFCURVE",
"526 45 OFFCURVE",
"526 153 CURVE SMOOTH",
"526 675 LINE SMOOTH",
"526 691 OFFCURVE",
"517 700 OFFCURVE",
"501 700 CURVE SMOOTH"
);
}
);
width = 575;
}
);
unicode = 0057;
},
